<?xml version="1.0" encoding="utf-8"?>
<!-- Generator: Adobe Illustrator 30.1.0, SVG Export Plug-In . SVG Version: 9.03 Build 0)  -->
<svg version="1.1" id="Layer_1" xmlns="http://www.w3.org/2000/svg" xmlns:xlink="http://www.w3.org/1999/xlink" x="0px" y="0px"
	 viewBox="0 0 115.662 74.066" style="enable-background:new 0 0 115.662 74.066;" xml:space="preserve">
<g>
	<path style="fill:#24A89E;" d="M29.272,9.587c-1.641-2.818-5.195-1.457-7.309-0.389c-1.163,0.587-2.31,1.323-3.299,2.292
		c-1.354,1.325-2.295,3.206-2.918,5.176c-1.021,3.234-0.783,7.249,1.304,9.769c1.505,1.817,3.727,1.958,5.683,1.514
		c2.54-0.577,4.938-2.144,7.067-3.901c2.023-1.668,3.967-3.684,5.446-6.088c1.332-2.162,2.519-5.466,1.594-8.163
		c-1.11-3.236-4.604-3.718-7.061-3.264c-3.336,0.616-6.603,2.888-9.046,5.713c-1.859,2.15-3.261,5.195-3.242,8.421
		c0.028,5.023,4.703,5.491,7.729,4.796c4.049-0.931,8.572-4.001,10.253-8.892c0.987-2.871,1.005-6.863-1.143-8.939
		c-2.311-2.234-5.331-0.682-7.615,0.735c-4.564,2.833-11.657,8.909-9.069,16.429c1.723,5.005,6.64,3.461,9.68,1.475
		c3.797-2.48,7.846-7.114,8.585-12.6c0.343-2.539-0.349-5.194-2.008-6.806c-2.164-2.104-5.303-1.564-7.742-0.649
		c-2.535,0.949-5.187,2.596-7.056,4.965c-1.754,2.222-2.703,5.622-2.971,8.652c-0.266,3.011,0.457,6.159,2.883,7.381
		c2.959,1.49,6.578-0.248,9.183-2.028c2.652-1.813,5.533-4.565,6.645-8.183c1.03-3.346,0.033-7.201-2.375-9.157
		c-2.519-2.044-6.104-1.259-8.78-0.16c-2.867,1.178-5.62,3.336-7.325,6.481c-1.041,1.922-1.552,4.329-1.267,6.631
		c0.239,1.927,1.34,3.415,2.713,4.257c2.913,1.788,7.085,1.062,9.476-1.657c0.184-0.209-0.09-0.547-0.273-0.339
		c-1.992,2.265-5.078,2.898-7.656,2.166c-1.253-0.356-2.45-1.153-3.209-2.464c-0.863-1.487-0.867-3.456-0.566-5.178
		c0.702-4.012,3.591-6.864,6.432-8.549c2.822-1.673,6.818-2.895,9.778-1.113c3.232,1.946,3.835,7.106,1.997,10.637
		c-1.886,3.624-5.291,6.309-8.502,7.76c-2.772,1.253-7.022,1.785-8.405-2.313c-1.081-3.204-0.077-7.31,1.187-10.202
		c1.309-2.992,3.688-4.811,6.132-6.169c2.654-1.475,6.22-2.677,8.943-0.822c2.149,1.464,2.8,4.689,2.275,7.469
		c-0.532,2.814-2.031,5.283-3.645,7.298c-1.73,2.16-3.821,3.966-6.096,5.127c-1.762,0.9-3.956,1.541-5.768,0.494
		c-2.327-1.345-2.748-5.235-2.076-7.966c0.959-3.899,3.972-6.725,6.642-8.776c2.446-1.878,5.785-4.446,8.738-3.068
		c3.08,1.438,2.892,6.612,1.666,9.631c-1.986,4.884-6.973,7.794-11.201,8.22c-1.697,0.172-3.716-0.064-4.95-1.689
		c-1.488-1.958-0.771-5.143,0.014-7.284c1.455-3.967,5.051-6.737,8.198-8.267c1.542-0.749,3.213-1.243,4.876-1.132
		c1.582,0.106,3.395,0.703,4.355,2.386c1.561,2.74-0.07,6.681-1.555,8.92c-1.656,2.494-3.774,4.55-5.985,6.231
		c-3.726,2.834-10.498,5.988-12.656-0.924c-1.402-4.489,0.65-9.922,3.809-12.384c1.414-1.103,3.008-1.91,4.633-2.385
		c1.49-0.436,3.509-0.621,4.52,1.115C29.083,10.076,29.418,9.837,29.272,9.587"/>
	<g>
		<path d="M11.023,20.248H9.685v-6.06h-1.24v-1.05h2.578V20.248z"/>
	</g>
	<rect x="39.044" y="15.082" style="fill:#C7C8CA;" width="27" height="19.701"/>
	<rect x="39.044" y="48.957" style="fill:#C7C8CA;" width="27" height="19.701"/>
	<rect x="80.217" y="15.082" style="fill:#C7C8CA;" width="27" height="19.701"/>
	<rect x="80.217" y="48.957" style="fill:#C7C8CA;" width="27" height="19.701"/>
	<g>
		<path d="M84.705,27.73h-0.396v-4.534h0.396V27.73z"/>
		<path d="M86.234,23.844c0,0.162-0.138,0.288-0.288,0.288c-0.144,0-0.288-0.126-0.288-0.288c0-0.162,0.144-0.288,0.288-0.288
			C86.097,23.556,86.234,23.694,86.234,23.844z M86.144,27.73h-0.396v-2.807h0.396V27.73z"/>
		<path d="M87.099,27.73v-4.534h0.396v2.195h0.012c0.234-0.335,0.66-0.54,1.092-0.54c0.869,0,1.493,0.624,1.493,1.475
			c0,0.846-0.63,1.475-1.493,1.475c-0.426,0-0.858-0.204-1.092-0.54h-0.012v0.468H87.099z M89.659,26.326
			c0-0.647-0.438-1.115-1.067-1.115c-0.636,0-1.115,0.492-1.115,1.115c0,0.63,0.486,1.116,1.122,1.116
			C89.222,27.442,89.659,26.98,89.659,26.326z"/>
		<path d="M92.378,24.888l-0.078,0.39c-0.054-0.024-0.126-0.03-0.222-0.03c-0.54,0-0.875,0.432-0.875,0.923v1.559h-0.396v-1.949
			c0-0.408-0.018-0.498-0.024-0.858h0.39v0.522h0.012c0.15-0.378,0.474-0.594,0.899-0.594
			C92.198,24.851,92.288,24.864,92.378,24.888z"/>
		<path d="M92.612,26.98c0-0.648,0.492-0.972,1.763-0.972h0.18v-0.06c0-0.509-0.234-0.737-0.72-0.737
			c-0.336,0-0.618,0.114-0.857,0.33l-0.24-0.282c0.264-0.27,0.66-0.408,1.182-0.408c0.642,0,1.031,0.396,1.031,0.978v1.301
			c0,0.102,0.018,0.384,0.048,0.6h-0.384c-0.024-0.126-0.036-0.282-0.036-0.456h-0.012c-0.234,0.366-0.54,0.527-0.989,0.527
			C93.02,27.802,92.612,27.478,92.612,26.98z M93.044,26.926c0,0.318,0.27,0.516,0.66,0.516c0.51,0,0.852-0.312,0.852-0.96v-0.15
			H94.28C93.53,26.332,93.044,26.524,93.044,26.926z"/>
		<path d="M96.446,23.844c0,0.162-0.138,0.288-0.288,0.288c-0.144,0-0.288-0.126-0.288-0.288c0-0.162,0.144-0.288,0.288-0.288
			C96.309,23.556,96.446,23.694,96.446,23.844z M96.356,27.73H95.96v-2.807h0.396V27.73z"/>
		<path d="M98.924,24.888l-0.078,0.39c-0.054-0.024-0.126-0.03-0.222-0.03c-0.54,0-0.875,0.432-0.875,0.923v1.559h-0.396v-1.949
			c0-0.408-0.018-0.498-0.024-0.858h0.39v0.522h0.012c0.15-0.378,0.474-0.594,0.899-0.594
			C98.744,24.851,98.834,24.864,98.924,24.888z"/>
		<path d="M99.878,23.844c0,0.162-0.138,0.288-0.288,0.288c-0.144,0-0.288-0.126-0.288-0.288c0-0.162,0.144-0.288,0.288-0.288
			C99.74,23.556,99.878,23.694,99.878,23.844z M99.788,27.73h-0.396v-2.807h0.396V27.73z"/>
		<path d="M103.357,26.315v0.12h-2.339c0.06,0.588,0.498,1.008,1.032,1.008c0.359,0,0.708-0.18,0.899-0.486l0.306,0.252
			c-0.33,0.414-0.744,0.593-1.205,0.593c-0.846,0-1.451-0.642-1.451-1.475c0-0.839,0.624-1.475,1.409-1.475
			C102.769,24.851,103.357,25.367,103.357,26.315z M102.014,25.211c-0.48,0-0.972,0.402-0.983,0.899h1.895
			C102.925,25.565,102.565,25.211,102.014,25.211z"/>
	</g>
	<g>
		<path d="M86.162,61.149c0,0.677-0.401,1.247-1.193,1.247c-0.593,0-1.001-0.312-1.097-0.888l0.438-0.09
			c0.078,0.354,0.294,0.582,0.672,0.582c0.51,0,0.75-0.354,0.75-1.026v-2.932h0.432V61.149z"/>
		<path d="M86.967,61.539c0-0.648,0.492-0.972,1.763-0.972h0.18v-0.06c0-0.509-0.234-0.737-0.72-0.737
			c-0.336,0-0.618,0.114-0.857,0.33l-0.24-0.282c0.264-0.27,0.66-0.408,1.182-0.408c0.642,0,1.031,0.396,1.031,0.978v1.301
			c0,0.102,0.018,0.384,0.048,0.6H88.97c-0.024-0.126-0.036-0.282-0.036-0.456h-0.012c-0.234,0.366-0.54,0.527-0.989,0.527
			C87.375,62.36,86.967,62.036,86.967,61.539z M87.399,61.485c0,0.318,0.27,0.516,0.66,0.516c0.51,0,0.852-0.312,0.852-0.96v-0.15
			h-0.276C87.885,60.891,87.399,61.083,87.399,61.485z"/>
		<path d="M91.526,59.41c0.432,0,0.858,0.204,1.091,0.54h0.012v-0.468h0.396v4.534h-0.396v-2.195h-0.012
			c-0.24,0.342-0.677,0.54-1.091,0.54c-0.857,0-1.493-0.629-1.493-1.475C90.033,60.034,90.681,59.41,91.526,59.41z M91.526,62.001
			c0.636,0,1.122-0.486,1.122-1.116c0-0.629-0.492-1.115-1.127-1.115c-0.618,0-1.055,0.474-1.055,1.115S90.89,62.001,91.526,62.001z
			"/>
		<path d="M93.891,59.482h0.396v1.583c0,0.642,0.222,0.936,0.755,0.936c0.444,0,0.857-0.378,0.857-1.056v-1.463h0.396v2.213
			c0,0.054,0.024,0.534,0.03,0.594h-0.408c-0.012-0.078-0.018-0.15-0.018-0.228v-0.222h-0.012c-0.186,0.312-0.576,0.521-0.941,0.521
			c-0.726,0-1.056-0.426-1.056-1.073V59.482z"/>
		<path d="M99.841,60.873v0.12h-2.339c0.06,0.588,0.498,1.008,1.032,1.008c0.359,0,0.708-0.18,0.899-0.486l0.306,0.252
			c-0.33,0.414-0.744,0.593-1.205,0.593c-0.846,0-1.451-0.642-1.451-1.475c0-0.839,0.624-1.475,1.409-1.475
			C99.253,59.41,99.841,59.926,99.841,60.873z M98.498,59.77c-0.48,0-0.972,0.402-0.983,0.899h1.895
			C99.41,60.123,99.05,59.77,98.498,59.77z"/>
		<path d="M102.404,59.914l-0.354,0.234c-0.12-0.234-0.318-0.378-0.605-0.378c-0.336,0-0.582,0.162-0.582,0.42
			c0,0.234,0.138,0.359,0.648,0.467c0.306,0.066,0.516,0.12,0.666,0.228c0.246,0.18,0.324,0.414,0.324,0.612
			c0,0.534-0.438,0.863-1.091,0.863c-0.48,0-0.839-0.186-1.08-0.545l0.342-0.234c0.168,0.258,0.402,0.42,0.738,0.42
			c0.378,0,0.654-0.174,0.66-0.468c0.006-0.246-0.162-0.384-0.756-0.504c-0.605-0.12-0.881-0.378-0.881-0.773
			c0-0.51,0.42-0.846,1.038-0.846C101.906,59.41,102.242,59.584,102.404,59.914z"/>
	</g>
	<g>
		<path d="M42.202,59.482v0.426h0.012c0.174-0.293,0.546-0.498,0.906-0.498c0.45,0,0.75,0.216,0.894,0.582
			c0.168-0.366,0.545-0.582,0.929-0.582c0.69,0,1.05,0.396,1.05,1.073v1.805h-0.396v-1.667c0-0.582-0.204-0.852-0.708-0.852
			c-0.522,0-0.792,0.408-0.792,1.001v1.517h-0.396v-1.667c0-0.582-0.204-0.852-0.702-0.852c-0.432,0-0.797,0.372-0.797,1.091v1.427
			h-0.396V60.07c0-0.132-0.018-0.48-0.03-0.588H42.202z"/>
		<path d="M46.774,61.539c0-0.648,0.492-0.972,1.763-0.972h0.18v-0.06c0-0.509-0.234-0.737-0.72-0.737
			c-0.336,0-0.618,0.114-0.857,0.33l-0.24-0.282c0.264-0.27,0.66-0.408,1.182-0.408c0.642,0,1.031,0.396,1.031,0.978v1.301
			c0,0.102,0.018,0.384,0.048,0.6h-0.384c-0.024-0.126-0.036-0.282-0.036-0.456h-0.012c-0.234,0.366-0.54,0.527-0.989,0.527
			C47.182,62.36,46.774,62.036,46.774,61.539z M47.206,61.485c0,0.318,0.27,0.516,0.66,0.516c0.51,0,0.852-0.312,0.852-0.96v-0.15
			h-0.276C47.692,60.891,47.206,61.083,47.206,61.485z"/>
		<path d="M51.315,59.41c0.45,0,0.84,0.192,1.08,0.534h0.018v-0.462h0.396v2.807c0,0.881-0.516,1.439-1.505,1.439
			c-0.558,0-0.99-0.18-1.349-0.563l0.293-0.312c0.234,0.312,0.618,0.516,1.08,0.516c0.702,0,1.085-0.414,1.085-1.08v-0.528h-0.012
			c-0.234,0.354-0.6,0.528-1.049,0.528c-0.828,0-1.463-0.642-1.463-1.427C49.889,60.04,50.5,59.41,51.315,59.41z M50.32,60.849
			c0,0.582,0.456,1.079,1.043,1.079c0.594,0,1.061-0.45,1.061-1.043c0-0.629-0.414-1.115-1.067-1.115
			C50.794,59.77,50.32,60.256,50.32,60.849z"/>
		<path d="M53.555,61.539c0-0.648,0.492-0.972,1.763-0.972h0.18v-0.06c0-0.509-0.234-0.737-0.72-0.737
			c-0.336,0-0.618,0.114-0.857,0.33l-0.24-0.282c0.264-0.27,0.66-0.408,1.182-0.408c0.642,0,1.031,0.396,1.031,0.978v1.301
			c0,0.102,0.018,0.384,0.048,0.6h-0.384c-0.024-0.126-0.036-0.282-0.036-0.456h-0.012c-0.234,0.366-0.54,0.527-0.989,0.527
			C53.962,62.36,53.555,62.036,53.555,61.539z M53.986,61.485c0,0.318,0.27,0.516,0.66,0.516c0.51,0,0.852-0.312,0.852-0.96v-0.15
			h-0.276C54.472,60.891,53.986,61.083,53.986,61.485z"/>
		<path d="M58.653,59.914l-0.354,0.234c-0.12-0.234-0.318-0.378-0.605-0.378c-0.336,0-0.582,0.162-0.582,0.42
			c0,0.234,0.138,0.359,0.648,0.467c0.306,0.066,0.516,0.12,0.666,0.228c0.246,0.18,0.324,0.414,0.324,0.612
			c0,0.534-0.438,0.863-1.091,0.863c-0.48,0-0.839-0.186-1.08-0.545l0.342-0.234c0.168,0.258,0.402,0.42,0.738,0.42
			c0.378,0,0.654-0.174,0.66-0.468c0.006-0.246-0.162-0.384-0.756-0.504c-0.605-0.12-0.881-0.378-0.881-0.773
			c0-0.51,0.42-0.846,1.038-0.846C58.155,59.41,58.491,59.584,58.653,59.914z"/>
		<path d="M59.944,58.403c0,0.162-0.138,0.288-0.288,0.288c-0.144,0-0.288-0.126-0.288-0.288c0-0.162,0.144-0.288,0.288-0.288
			C59.806,58.115,59.944,58.253,59.944,58.403z M59.854,62.288h-0.396v-2.807h0.396V62.288z"/>
		<path d="M60.778,59.482h0.408c0.018,0.15,0.018,0.252,0.018,0.45h0.012c0.174-0.306,0.564-0.521,0.942-0.521
			c0.695,0,1.055,0.396,1.055,1.073v1.805h-0.396v-1.583c0-0.63-0.222-0.936-0.737-0.936c-0.39,0-0.875,0.276-0.875,1.104v1.415
			h-0.396v-2.213L60.778,59.482z"/>
	</g>
</g>
<g>
</g>
<g>
</g>
<g>
</g>
<g>
</g>
<g>
</g>
<g>
</g>
</svg>
