<?xml version="1.0" encoding="UTF-8"?>
<svg xmlns="http://www.w3.org/2000/svg" xmlns:xlink="http://www.w3.org/1999/xlink" viewBox="0 0 182.04 110.19">
  <defs>
    <style>
      .cls-1, .cls-2 {
        fill: none;
      }

      .cls-3, .cls-4 {
        fill-rule: evenodd;
      }

      .cls-3, .cls-5 {
        fill: #fff;
      }

      .cls-2 {
        stroke: #de4484;
        stroke-width: .3px;
      }

      .cls-4 {
        fill: #231f20;
      }

      .cls-6 {
        fill: #de4484;
      }

      .cls-7 {
        isolation: isolate;
      }

      .cls-8 {
        mix-blend-mode: multiply;
      }

      .cls-9 {
        clip-path: url(#clippath-1);
      }

      .cls-10 {
        fill: #f5d7df;
      }

      .cls-5 {
        font-family: AvantGardeITCbyBT-Demi, 'AvantGarde Bk BT';
        font-size: 12px;
        font-weight: 300;
      }

      .cls-11 {
        clip-path: url(#clippath);
      }
    </style>
    <clipPath id="clippath">
      <rect class="cls-1" width="182.04" height="110.19"/>
    </clipPath>
    <clipPath id="clippath-1">
      <polygon class="cls-1" points=".31 .31 7.16 19.59 .31 27.44 .31 109.88 181.73 109.88 181.73 .31 .31 .31"/>
    </clipPath>
  </defs>
  <g class="cls-7">
    <g id="Layer_2" data-name="Layer 2">
      <g id="Layer_1-2" data-name="Layer 1">
        <g>
          <g class="cls-8">
            <g class="cls-11">
              <g class="cls-9">
                <path class="cls-3" d="M208.2.31H-334.22c0,85.97,0,173.15,0,258.94,0,.38-.06.82,0,1.19.02.14-.14.37.22.3,174.27,0,350.07,0,524.65,0,5.58,0,11.23.16,16.82,0,.25,0,.75.12.82-.15V.53c0-.1.01-.21-.07-.22M7.45,85.8c-1.05-.38-2.9-1.04-3.35-1.78-.36-.6-.35-1.72-.45-2.75-.49-5.13-.67-10.05-.67-15.33,0-2.11.09-4.34-.07-6.32-.09-1.05-.32-1.92-.3-2.9.02-.97.16-1.9.3-2.9.24-1.78.59-3.57.89-5.43.45-2.73.88-5.64,1.34-8.33.16-.92.51-1.9.52-2.75,0-.51-.19-1-.15-1.49.24-2.58,2.07-3.01,4.32-3.79,1.15-.4,2.36-.73,3.35-1.04,26.8-8.45,53.93-16.48,81.48-24.11,2.29-.63,4.58-1.36,6.92-1.86,1.23-.26,2.64-.23,4.09-.3,4.14-.19,9.25-.26,13.32-.07,3.48.16,7.06.13,10.64.37,8.53.58,17.15,1.36,24.26,3.35,1.52.43,3.37.93,4.46,1.56,2.16,1.24,3.48,3.5,4.99,5.28.08.86.44,1.69.74,2.53.93,2.59,1.76,5.23,2.68,7.74,1.87-.38,3.56-.73,5.73-.97,1.82-.2,4.6-.48,6.1.37.93.53,1.37,1.91,1.64,3.35.53,2.87.37,6.07-.3,8.48-.33,1.17-.79,2.55-1.86,2.9-.81.27-2.01.04-2.83-.15-.94-.22-1.72-.6-1.93-1.19-.2-.53-.05-1.4,0-2.16.14-2.2.3-4.5.3-6.47-1.79.37-3.49.82-5.28,1.19,2.89,9.96,5.6,20.3,7.37,31.92.85,5.55,1.6,11.47,1.64,18.01.02,3.03.08,6.3-.07,9.45-.07,1.41-.15,3.1-.22,4.69-.08,1.62.07,3.37-.3,4.69-.31,1.13-2.12,3.68-3.12,3.94-.65.17-1.68.07-2.6.08-2.58.03-5.44.11-7.81.22-3.69.18-7.27-.01-10.64.15-6.83.32-14.25.2-20.98.52-1.77.08-3.55.06-5.28.07-3.56.04-6.96.23-10.42.3-1.75.03-3.54.03-5.28.15-.19.01-.33.15-.52.15-1.49,0-2.89-.03-4.32-.22-4.65-.65-9.36-1.67-13.69-2.46-.46,2.32-1.71,3.84-3.5,4.84-3.51-.38-8.43.73-10.57-.52-2.5-1.46-3.37-4.61-4.32-7.59-1.85.07-3.65-.41-5.43-.74-12.4-2.33-24.81-4.74-37.2-7.07-.45,1.26-1.13,2.29-2.16,2.98h-3.12c-1.08,0-2.27.19-3.12-.07-.98-.3-1.81-1.64-2.23-2.53-.55-1.16-.77-2.42-1.12-3.65-.09.44.21.8,0,1.12-4.27-1.13-7.87-1.98-11.83-3.42M-172.09,8.87c4.23.73,6.4,4.18,8.33,7.37,3.33,5.51,6.68,11.11,10.34,16,1.48,1.97,3.06,3.91,4.91,5.58.91.82,1.9,1.64,3.05,2.16,1.19.54,2.63.9,4.09,1.19,5.61,1.12,12.32.94,18.01,3.05,2.1-.65,3.52-1.98,6.32-1.93.06.41-.49.67-.82.89-.84.57-1.42.9-2.31,1.49-.3.2-1.11.63-1.12.82,0-.05.31.44.6.52.33.09.91-.06,1.12-.07,11.06-.89,22.48-1.69,33.19-2.45,10.26-.74,20.8-1.65,30.95-2.31,1.5-.1,3.02-.3,4.46-.3,1.77,0,3.47.5,4.84.97.53.18,1.14.53,1.49.52.29-.01.92-.42,1.41-.67,3.27-1.62,6.79-3.45,9.75-4.84,3.88-1.82,7.62-3.8,11.24-5.51C-14.49,27.68-7.14,24,.16,20.33c-.43-1.08-.92-2.1-1.26-3.27.41-.07.76.35,1.04.6.67.59,1.3,1.23,1.93,1.79.23.2.54.51.74.6.1.04.4-.13.37.15-.76.95-1.58,2.49-2.6,3.42-.16-.46-.05-1.19-.22-1.64-5.08,3.06-10.31,5.96-15.33,9.08,1.29.65,2.38,1.31,3.5,2.01.39.25.8.59,1.19.67.53.11,1.03-.03,1.49,0,.46.03.93.14,1.34.22,2.63.56,4.41,1.58,5.36,3.87,1.51,3.66-.44,7.23-3.05,8.26-.35.14-.77.11-1.19.22-.39.1-.74.31-1.12.37-.86.15-1.82.14-2.68.07-3.53-.27-6.29-1.53-8.56-3.12-1.08-.76-3.04-1.98-2.83-3.87.26-2.26,2.75-3.27,4.24-4.39-.37-.88-.89-1.59-1.71-2.01-6.81,3.98-13.63,7.95-20.39,11.98,1.53,1.15,2.94,2.41,4.39,3.65.56-.13,1.04-.2,1.56-.22,4.67-.23,7.48,1.33,8.56,4.54.99,2.95,0,6.2-2.38,7.81-.46.31-.96.43-1.56.82-.84,4.97-4.46,7.59-8.26,9.6-3.87,2.04-8.62,3.5-13.77,4.09-5.29.61-11.11.75-16.96.89-5.05.12-10.49.07-15.55.07-.76,0-1.56-.15-2.23-.07-.61.07-1.36.45-2.01.67-1.99.67-4.17,1.33-6.4,1.64-1.66.23-3.23.15-4.99.07-6.99-.31-14.32.13-21.06.37-1.76.06-3.57,0-5.21.22-1.58.21-3.18.66-4.76.97-4.92.95-9.96,1.83-14.58,2.83.71.27,1.18.57,1.71.89.54.33,1.04.87,1.64,1.04.57.16,1.17.09,1.71.15.58.06,1.12.17,1.64.3,3.14.78,5.58,2.14,6.62,4.99,1.75,4.76-1.1,9.15-4.32,10.19-.45.15-1.01.11-1.56.22-.52.11-.99.32-1.49.37-1.11.1-2.35.06-3.42-.08-4.12-.53-7.62-2.41-10.27-4.46-1.1-.86-3.07-2.45-3.2-4.17-.19-2.44,2.29-4,3.72-4.84.4-.23,1.01-.46,1.04-.82-.11-.56-.36-1.03-.74-1.41-.33-.32-.9-.77-1.34-.82-.54-.06-1.6.28-2.45.45-12.2,2.3-25.08,4.86-36.83,7.14.51.33,1,.52,1.49.82.48.29.89.76,1.41.89.65.16,1.27.07,1.79.15.55.09,1.07.21,1.56.37.9.3,1.84.58,2.68,1.19,2.18,1.58,3.03,4.73,2.08,7.44-.43,1.22-1.17,2.26-2.16,2.98-1.01.74-2.46,1.03-4.02,1.19-3.17.33-5.9-.61-8.26-1.86-.95-.5-2.08-1.16-3.12-2.01-.86-.7-2.04-1.72-2.31-2.9-.46-2.1,1.52-3.5,2.68-4.24.39-.25.89-.38,1.19-.74-.25-.84-1.06-1.82-1.93-1.93-.46-.06-1.3.16-2.01.3-8.37,1.61-16.9,3.27-25.07,4.91-1.29.26-2.59.5-3.87.6-.7.78-1.53,1.6-2.23,2.31-.23.23-.42.71-.82.59.2-1.8.83-3.56.6-5.28-.15-1.1-.46-2.03-.37-3.05.33.08.47.49.6.74.46.92.87,1.89,1.41,2.68,30.97-7.43,62.13-14.66,93.08-22.1-7.15-2.54-13.44-5.9-18.53-10.57-.58-.53-1.57-1.84-2.23-1.93-.54-.08-1.57.19-2.38.3-11.09,1.52-21.88,3.25-32.96,4.76-.87.12-1.82.46-2.38.37-.3-.05-.61-.35-.89-.52-.3-.18-.67-.29-.82-.67,12.1-2.76,24.31-5.4,36.53-8.04-.46-.89-1.11-1.8-.97-2.9.13-1,1.2-1.8,2.01-2.46.92-.74,2.07-1.24,2.6-1.93-2.12-7.75-5.27-14.76-8.26-21.73-3-6.99-6.05-13.87-9-20.98.88-.46,2.29-.44,3.13-.3M-261.68,106.12c-.86.09-1.65.37-2.46.3-.89-.08-2.17-.58-2.23-1.04.74.36,1.46.79,2.53.82.81.02,1.65-.33,2.45-.37.67-.03,1.49.2,2.23.3.35.05.89.14,1.19.08.58-.13.39-.29.6-.59-1.06-.24-1.63-.88-2.38-1.34-.48-.29-1.02-.52-1.56-.74-1.43-.58-2.89-1.24-4.84-1.19.23.05.27-.08.45-.07-.96-.65-1.86-1.41-2.68-2.23-2.49-2.49-5.4-4.48-7.74-7.07-.27.74-1.48,1.31-1.64,2.08-.05.26.07.76.07,1.12.03,1.31-.02,2.38,0,3.65,2.51,1.98,5.44,3.75,8.41,5.13.44.2.93.31,1.26.67-1.88-.61-3.6-1.46-5.21-2.38-1.61-.92-2.95-2.18-4.46-2.98-.04,4.49-.42,8.61-1.04,12.43-.08.49-.31.95-.3,1.34.02.69.49,1.3.59,1.93-.67-.03-.94-.45-1.49-.6.01.4.47.54.3.89-1.09-.3-1.65-1.13-2.53-1.64,3.84,8.71,7.64,18.28,11.31,27.46.55,1.37,1.18,2.82,1.34,4.24.21,1.81.29,3.57.52,5.28,1.12,8.46,2.97,16.6,4.39,24.7.29,1.66.41,3.45.97,4.84.65,1.64,1.82,3.17,2.38,4.98,1.37.81,3.27,1.51,4.84,2.08.58.21,1.24.52,1.79.6,1.15.16,2.4-.21,3.5-.37,1.16-.17,2.24-.38,3.35-.45-.98.47-2.17.57-3.35.74-1.19.18-2.54.49-3.79.3-.49-.07-1.09-.4-1.64-.6-1.71-.61-3.57-1.28-4.84-2.08-2.91,2.11-7.44,4.15-11.76,3.65.36,1.65,0,4.01.74,5.28,4.21-.99,9.05-1.71,13.69-1.93.71-.03,1.44.06,2.08-.07.81-.16,1.7-.6,2.53-.89,1.79-.64,3.32-1.32,4.84-2.01.83-.38,1.7-.62,2.31-1.19-.05-.33-.13-.54-.3-.82-.11-.2-.56-.42-.3-.52.37.3.71.63.74,1.27.38-.04.61.8.37.89-.14-.18-.13-.51-.3-.67-2.12,1.33-4.94,2.51-7.59,3.42-.94.32-1.93.72-2.9.82-2.18.23-4.22.08-6.1.37-2.11.33-4.14.6-6.1.97-.98.18-2,.27-2.9.67.22.57.26,1.33.45,1.93,2.75-.39,5.35-.95,7.96-1.49.04-.39-.06-.94,0-1.12,1.88-.01,3.56-.05,5.21-.15,1.94-.11,3.26-.46,4.76-.97,2.72-.92,5.19-2.27,7.37-3.57-1.08,1.21-2.84,1.89-4.54,2.68-.82.38-1.67.71-2.61,1.04-.89.31-1.89.72-2.83.89-2.22.4-4.54.14-7.14.3-.06.45.11.84,0,1.12-2.76.49-5.27,1.22-8.33,1.41-.19-.62-.38-1.26-.45-2.01-.93-1.22-.7-3.62-.82-5.65-.15.03-.29-.2-.37-.45.1-2.44-.66-3.81-1.26-5.88-2.94-10.1-4.99-20.63-6.92-31.7-.08-.47-.11-1.02-.22-1.27-.12-.27-.63-.41-.67-.82-.04-.39.33-.43.37-.82-.33-.12-.32-.49-.45-.74-.14-.28-.29-.53-.45-.82-2.08-3.69-4.48-7.01-6.7-10.49-1.47,6.09-3.59,11.54-5.73,16.96-.91.68-1.53,1.56-2.23,2.45-.42.53-.93,1.09-1.19,1.56-.51.92-.84,2.06-1.26,3.12-2.59,6.43-4.96,12.79-7.52,19.27-.71,1.81-1.52,3.22-1.12,5.51,1.04,1.43,2.49,2.64,3.79,3.79.44.39.85.91,1.34,1.19.93.54,2.13.69,3.27.97,1.1.27,2.26.52,3.42.82-1.26.15-2.45-.32-3.57-.6-1.14-.28-2.43-.43-3.35-.97-.45-.26-.92-.8-1.34-1.19-.93-.85-1.8-1.61-2.6-2.46-.43-.46-.79-.96-1.27-1.34-1.88.4-4.07.69-6.18.6-2.38-.11-4.43-.91-6.03-1.64-.35,1.81-1.23,3.09-1.34,5.14,4.14.78,8.29,1.56,11.9,2.83,1.23.43,2.44,1.08,3.65,1.26.87.14,1.91.1,2.98.15,2.7.11,5.12-.02,7.37-.3.25-.56.06-1.08-.15-1.56.41.18.55.97.37,1.49.35.09.28.92,0,1.04-.05-.25.1-.69-.08-.82-3.11.5-6.7.61-9.9.3-1.11-.11-2.15-.5-3.05-.82-.57-.2-1.13-.46-1.71-.67-3.51-1.27-7.6-1.95-11.38-2.6.03.8-.23,1.31-.3,2.01,2.55.65,5.33,1.07,7.96,1.64.16-.33.15-.84.45-1.04,1.53.59,3.41,1.29,4.99,1.79.63.2,1.22.48,1.71.6,1.02.23,2.39.25,3.57.3,1.77.08,3.24-.12,4.76-.22,1.01-.07,1.92-.25,2.83-.3-1.46.55-3.26.67-5.06.74-1.09.05-2.25.06-3.35,0-3.73-.19-6.68-1.64-9.38-2.68-.15.32-.23.72-.37,1.04-2.47-.41-5.24-.91-7.37-1.49-.31-.08-.74-.02-.89-.37-.13-.7.32-1.38.3-2.08,0-.27-.16-.48-.15-.74.04-.78.42-1.63.67-2.38.26-.78.55-1.54.82-2.23.01-.21-.25-.14-.15-.45.5-1.4.52-2.8,1.04-4.09.48-1.19,1.48-2.06,2.01-3.12.49-.98.72-2.22,1.12-3.35,2.36-6.69,5.1-12.84,7.51-19.42.51-1.39,1-3.08,1.86-3.94.13-.37.22-.77.37-1.12.04-.26.46-.13.52-.37,2.75-6.59,4.69-15.26,4.69-24.41,0-1.78-.16-3.36-.97-4.46-.37.17-.54.55-1.04.59.21-9.41-.63-18.16-2.08-26.04-.32-1.75-.6-3.52-1.04-5.21-.14.15-.35.04-.52,0-1.63,6.03-1.69,13.64-1.64,21.35,1.05,1.84.95,5.47.37,7.74-.26,1.01-.3,2.11-.52,2.68-.34.88-1.57,1.43-2.16.45.3-.95.7-2.28.45-3.57-.29,1.37-.2,4.37-2.01,3.27-.19-1.03.16-2.5,0-3.5-.07.52-.31.88-.45,1.34.52.62.06,1.52-.45,1.56-.92.08-1.05-1.1-.97-2.23-.46.6-1.48.14-1.71-.37-.06-1.23.23-1.91.37-2.9.4-2.86.73-5.68,2.75-6.55-.94-6.16-1.93-12.64-1.64-19.79-.16-.19-.59-.11-.6-.45.07-1.8.21-3.51.52-5.06.1-.18.59.04.67-.15,1.87-5.61,4.63-11.22,7.22-16.37.87-1.74,1.68-3.65,3.05-4.84.68-.59,1.56-1.09,2.38-1.56,2.59-1.49,5.27-2.7,8.18-3.87.06-1.21.63-1.9,1.04-2.75.19-.28.36.27.45.07.21-1.82-.29-3.15-.82-4.46-.3-.74-.56-1.51-.89-2.16-.11-.21-.35-.37-.45-.6-.21-.48-.36-1.23-.52-1.86-.17-.67-.38-1.49-.37-2.08,0-.54.24-1.15.3-1.79.07-.75-.04-1.5-.07-2.38.03-.22.32.31.37.08.17-.58.55-.94.67-1.56,1.07-.73,2.38-1.83,3.64-2.6.49-.3.93-.66,1.34-.82.21-.08.8-.2.89-.07-.11.09-.3.09-.37.22,1.57-.36,3.4-.47,5.28-.52.1.35-.34.16-.37.37.98.52,2.54.22,3.65.67.63.26,1.11,1.12,2.16.89.07.28-.28.51-.15.6.69.08,1.47-.11,1.79-.15-.42.61-.58,1.48-.97,2.16-.23.41-.7.64-.74,1.04.24.69.44,1.51.67,2.38.28,1.05.87,2.43.3,3.27.16.74,1.78,1.8,1.86,2.53.09.84-.6,1.41-1.71,1.41.05.7.18,1.3.08,1.93-.1.58-.52,1-.45,1.71.04.37.33.65.37,1.04.05.44-.01.72-.22,1.19-.52-.02-.9.27-1.34.37-.53.12-1.06.03-1.56.15-1.97.48-2.06,2.61-2.83,4.31.5.67,1.04,1.29,1.49,2.01-.19.48,0,1.57-.07,1.93-.4.16-.73-.74-1.12-.6,0,.8.4,1.57.67,2.31.14.4.24.77.37,1.19.12.37.4.68.52,1.04.25.77.32,1.69.52,2.53,1.39,5.85,2.53,12.2,2.98,18.9.84,1.14,1.97,2,2.6,3.35-.9-.88-1.75-2.2-2.53-2.9.07,1.81.28,3.49.3,5.36.71-.76,1.29-1.63,2.01-2.38.05.33-.22.33-.22.6,2.29,2.55,5.37,4.55,7.89,7.07.67.67,1.83,2.08,2.75,2.31.45.11.9,0,1.26.07.38.07.68.24,1.04.37.71.26,1.4.44,2.08.74,1.27.56,2.18,1.55,3.65,2.01.24.69,1.25,1.19,1.26,2.01,0,.31-.13.52-.3.82.22.1.13.51.15.82-.31.49-.71.87-1.27,1.12.01.75-.41,1.07-.82,1.41-1.17.15-1.7-.33-2.16-.89-.15-.45.29-.7.15-.89-.3-.26-.38-.45-.74-.15.12.79,1.15,1.55.52,2.38-1.15.19-2.52-.38-2.23-1.64-1.79-1.43-5.36-1.49-5.06-4.76.1,1.23.65,2.06,1.49,2.68.5.37,1.25.63,1.93.89.48.19.91.48,1.34.74.66.4.21.09.89.07.31,0,.35.1.52.15,1-1.13,2.02-2.25,2.9-3.5-.19.52.17.59.45.82.41-.16.54-.6.97-.74-.19.85-1.3.78-1.26,1.86.76.65,2.3-.23,2.31-1.19,0-.58-.47-1-.97-1.34-.99.85-2.78-.09-4.46.07M29.63,204.41c-.12-1.53-.26-3.06-.37-4.61-.22-3.21-.12-6.46-.15-9.67-.03-3.25-.03-6.32.37-9.38,1.16-8.88,3.11-16.96,5.06-24.78,1.33-5.34,2.84-10.49,4.69-15.25.89-2.29,2.04-4.53,3.27-6.62,1.25-2.13,2.72-4.06,4.39-5.58,3.43-3.12,8.25-5.11,13.17-6.7,9.7-3.12,21.71-5.67,34.9-5.06,4.62.22,9.48.45,14.14,1.04,3.24.41,6.68,1.1,9.67,1.71,1.1.23,2.29.33,3.2.67,1.03.38,2.05,1.15,3.13,1.71,1.07.56,2.16,1.08,3.2,1.64,14.29,7.58,28.62,15.02,42.71,22.62.54.29,1.2.51,1.64.82.3.21.46.54.74.74.51.36,1.2.59,1.79.89,4.19,2.19,8.32,4.5,12.42,6.62.42,2.04.08,4.83.45,6.92-5.64,3.86-11.21,7.85-16.89,11.68-5.69,3.84-11.33,7.78-17.04,11.61-5.7,3.81-11.33,7.76-17.04,11.53-5.75,3.79-11.32,7.79-17.04,11.61-3.55,2.37-7.13,4.98-10.64,7.22-2.2,1.4-4.27,2.88-6.4,4.32-16.71,11.29-33.42,22.78-50,34.08-.32.22-.64.67-1.12.6.5-.56,1.17-.92,1.78-1.34,8.63-5.92,17.34-12.01,25.97-17.78.59-.39,1.2-.84,1.71-1.34-.78-.08-1.62-.1-2.53-.15-.77-.04-1.93-.29-2.6-.15-.33.07-.76.47-1.19.74-1.18.76-2.61,1.72-3.65,2.38-4.21,2.7-8.1,5.28-12.13,7.89-.82.53-1.59,1.18-2.53,1.49.64-.66,1.48-1.15,2.23-1.64,4.77-3.1,9.72-6.21,14.36-9.3.78-.52,1.61-1.01,2.31-1.64-1.25-.27-2.07.63-2.9,1.19-.84.56-1.73,1.11-2.53,1.64-4.22,2.77-8.43,5.54-12.58,8.26-.83.55-1.67,1.15-2.6,1.56.17-.44.69-.66,1.04-.89,5.57-3.63,11.3-7.47,16.82-11.01.37-.24.8-.44,1.04-.82-1.56-.1-3.13-.19-4.69-.3-5.66,3.43-11.46,7.09-17.04,10.49-.35.21-.74.54-1.19.52.59-.65,1.42-.96,2.16-1.41,4.77-2.93,9.72-5.98,14.44-8.86.34-.2.71-.44.97-.74-1.22-.17-2.42-.16-3.57-.22-1.09-.06-1.42-.06-1.93.52-.22.24-.23.44-.37.6-.32.34-2.33-.14-3.05-.22-2.17-.26-3.76-.37-5.8-.6-.98-.11-2.12-.45-2.98-.3-.34.06-.74.43-1.19.67-5.54,2.94-10.76,5.6-16.15,8.41-.82.43-1.62,1.01-2.53,1.26-.14-.26.28-.32.37-.37.2-.12.4-.27.6-.37,2.91-1.53,5.73-2.97,8.63-4.46,2.86-1.47,5.79-3.11,8.56-4.54.4-.21.9-.36,1.19-.74-1.1-.23-2.02.43-2.9.89-2.6,1.37-5.21,2.74-7.81,4.09-3.47,1.81-6.82,3.76-10.42,5.43.13-.51.74-.54,1.12-.74,5.67-3.05,11.61-6.17,17.26-9.15.37-.2.85-.31,1.12-.67-.98-.14-2.03-.2-2.98-.37-.19-.5-.13-1.26-.3-1.79-6.72,3.37-13.15,7.04-19.94,10.34.15-.5.74-.55,1.12-.74,4.63-2.42,9.26-4.87,13.84-7.29,1.68-.89,3.39-1.75,4.99-2.75-.11-.96-.24-1.9-.3-2.9-.91-.62-1.82-1.2-2.68-1.86-.88-.68-1.66-1.49-2.6-2.01-8.37,3.9-16.72,8.12-25,11.98-1.21.56-2.39,1.18-3.65,1.64-.04-.32.41-.42.6-.52.29-.15.62-.32.89-.45,9.02-4.35,18.14-8.56,27.01-12.87-3.97-3.94-7.26-8.57-9.38-14.36-8.4,3.24-16.95,6.48-25.3,9.75-.9.35-1.84.82-2.68,1.12-.23.08-.65.33-.89.08,9.51-3.86,19.31-7.43,28.8-11.31-.44-1.38-.48-2.88-.6-4.32M-224.32,196.67c-1.35-.93-2.12-2.98-2.75-5.06-.58-1.89-.64-4.08-.74-6.17-.1-2.18-.22-4.41-.22-6.62s-.25-4.68,0-6.92c.12-1.05.64-1.85.74-2.98.41-4.4.79-8.75,3.87-10.19.34-1.04,1.03-1.69,1.71-2.46.56-.62,1.35-1.73,2.16-2.01.53-.18,1.31-.24,2.01-.3.62-.05,1.38.08,2.01-.07.37-.09,1.12-.86,1.56-1.27,5.66-5.15,11.18-9.9,17.78-13.99,2.46-1.52,5.03-3.04,7.74-3.87,5.85-1.8,12.77-2.61,20.01-3.12,9.1-.65,18.87-.55,28.35-.45,9.06.1,18.32.87,26.71,1.56,3.41.28,6.48,1.01,9.45,1.94,5.64,1.76,10.74,4.23,15.18,7.51,3.86,2.86,7.5,5.61,11.31,8.48.59.45,1.3,1.1,1.71,1.19,1,.23,1.91.01,2.68.15,2.46.44,4.93,1.86,5.43,4.24.12.59-.05,2.07.15,2.31.11.14.71.24,1.19.37,6.24,1.68,12.44,3.68,17.56,6.25,1.38.7,2.8,1.34,4.02,2.31.29.23.53.52.82.74.3.23.63.45.97.67,2.53,1.62,4.55,3.96,6.25,6.47.46.68.98,1.4,1.19,2.01.31.88.41,1.96.6,2.9.59,2.92,1.12,5.91,1.56,8.93.3,2.07.6,4.21.6,6.4,0,1.6-.29,3.29-.45,4.84-.05.55-.21,1.19-.15,1.64.11.83.79.79.74,1.86-.03.74-.54,1.59-.89,2.23-.35.64-1.04,1.15-1.26,1.86-.2.62.05,1.22-.37,1.93-.89.4-2.22.36-3.35.52-.98,3.12-2.54,5.13-4.84,6.55-2.51,1.55-5.51,1.83-9.45,1.93-6.38.17-12.39-1.31-14.96-4.91-.41-.57-.74-1.64-1.12-1.79-.58-.23-2.06.08-3.05.08-1.14,0-2.2.05-3.05.07-10.58.25-20.56.22-31.03.22-4.16,0-8.37-.08-12.5-.07-1.5,2.95-3.02,6.49-6.33,7.59-4.65,1.55-12.02,1.09-16.44-.15-4.93-1.38-7.48-5.26-8.63-9.82-4.16-.13-8.31-.56-12.43-.97-12.38-1.22-24.71-2.48-36.91-3.87-.64,1.31-1.22,2.64-1.93,3.87-.63,1.09-1.56,2.56-2.46,3.35-1.88,1.65-6.23,1.49-9.23,1.12-2.99-.37-5.13-1.11-6.62-2.68-1.63-1.71-2.42-3.99-3.05-6.25-.69-2.46-1.2-5.21-1.34-8.04.05-.36-.37.26-.52-.07"/>
                <path class="cls-3" d="M6.41,34.31c29.71-8.46,60.02-17.89,90.48-26.04.9-.24,1.93-.54,3.05-.82,1.07-.27,2.43-.76,3.2-.67,1.12.13,1.98,1.74,2.46,2.68.64,1.25,1.01,2.37,1.41,3.65,18.43-2.2,38.67.18,55.73,2.08.24-.11-.15-.46-.3-.67-1.08-1.47-2.77-3.6-4.46-4.47-1.12-.58-2.7-1-4.17-1.41-7.15-2.04-15.74-2.77-24.26-3.35-3.59-.24-7.17-.21-10.64-.37-2.7-.12-6.15-.12-9.15-.07-2.85.04-5.99-.02-8.33.52-4.8,1.11-9.48,2.57-13.91,3.79-18.39,5.05-36.62,10.65-54.76,16.07-6.84,2.05-13.53,4.06-20.31,6.25-1.07.35-2.23.72-3.35,1.12-.93.33-2.25.62-2.68,1.71"/>
                <path class="cls-3" d="M6.11,34.83c-.18.46-.3.99-.3,1.64,33.69-7.71,67.2-15.59,100.9-23.29-.76-1.91-1.64-5.3-3.42-6.03-.08-.03-.2-.09-.3-.08-2.1.37-4.16,1-6.25,1.56-26.42,7.12-52.59,15.04-78.65,22.62-2.02.59-4.04,1.21-6.03,1.79-2.01.58-4.03.99-5.95,1.79"/>
                <path class="cls-4" d="M-175.22,9.16c2.96,7.11,6,13.99,9,20.98,2.99,6.96,6.13,13.98,8.26,21.73-.54.69-1.68,1.19-2.6,1.93-.81.65-1.88,1.46-2.01,2.46-.14,1.1.51,2.02.97,2.9-12.22,2.63-24.43,5.28-36.53,8.04.15.38.52.49.82.67.28.17.59.47.89.52.57.09,1.51-.25,2.38-.37,11.08-1.52,21.87-3.25,32.96-4.76.82-.11,1.84-.37,2.38-.3.66.1,1.65,1.4,2.23,1.93,5.09,4.67,11.38,8.02,18.53,10.57-30.95,7.44-62.12,14.67-93.08,22.1-.55-.79-.95-1.76-1.41-2.68-.13-.25-.27-.67-.6-.74-.09,1.02.22,1.96.37,3.05.24,1.72-.4,3.48-.6,5.28.4.12.59-.36.82-.6.7-.71,1.53-1.53,2.23-2.31,1.28-.09,2.58-.34,3.87-.59,8.17-1.64,16.7-3.3,25.08-4.91.71-.14,1.55-.36,2.01-.3.88.11,1.68,1.09,1.93,1.94-.3.36-.8.49-1.19.74-1.16.74-3.14,2.14-2.68,4.24.26,1.18,1.45,2.2,2.31,2.9,1.04.85,2.18,1.51,3.12,2.01,2.36,1.25,5.09,2.19,8.26,1.86,1.55-.16,3.01-.45,4.02-1.19.99-.72,1.73-1.75,2.16-2.98.95-2.71.1-5.86-2.08-7.44-.84-.61-1.78-.89-2.68-1.19-.49-.16-1.01-.28-1.56-.37-.51-.08-1.14.01-1.79-.15-.52-.13-.94-.6-1.41-.89-.49-.3-.98-.49-1.49-.82,11.75-2.29,24.63-4.84,36.83-7.14.86-.16,1.92-.51,2.46-.45.44.05,1.01.5,1.34.82.39.38.64.85.75,1.41-.03.35-.64.58-1.04.82-1.44.84-3.91,2.4-3.72,4.84.13,1.71,2.1,3.31,3.2,4.17,2.65,2.06,6.15,3.94,10.27,4.47,1.08.14,2.31.18,3.42.07.5-.05.97-.27,1.49-.37.56-.11,1.11-.08,1.56-.22,3.22-1.04,6.06-5.43,4.32-10.19-1.05-2.84-3.49-4.2-6.62-4.98-.52-.13-1.06-.23-1.64-.3-.54-.06-1.14.01-1.71-.15-.6-.17-1.1-.72-1.64-1.04-.53-.32-1-.62-1.71-.89,4.63-1,9.67-1.88,14.58-2.83,1.58-.3,3.18-.76,4.76-.97,1.63-.21,3.45-.16,5.21-.22,6.74-.24,14.07-.68,21.06-.37,1.76.08,3.32.16,4.99-.08,2.23-.31,4.41-.97,6.4-1.64.65-.22,1.4-.6,2.01-.67.68-.08,1.48.07,2.23.07,5.06,0,10.5.05,15.55-.07,5.86-.14,11.68-.29,16.96-.89,5.15-.59,9.89-2.05,13.77-4.09,3.8-2.01,7.42-4.62,8.26-9.6.61-.39,1.1-.51,1.56-.82,2.38-1.61,3.37-4.86,2.38-7.81-1.07-3.21-3.89-4.77-8.56-4.54-.52.03-1,.09-1.56.22-1.45-1.23-2.86-2.5-4.39-3.65,6.76-4.03,13.58-8,20.39-11.98.83.42,1.35,1.13,1.71,2.01-1.49,1.12-3.98,2.13-4.24,4.39-.21,1.88,1.75,3.11,2.83,3.87,2.27,1.59,5.02,2.85,8.56,3.12.86.07,1.81.07,2.68-.08.38-.07.73-.27,1.12-.37.42-.11.84-.09,1.19-.22,2.61-1.02,4.56-4.6,3.05-8.26-.95-2.29-2.73-3.31-5.36-3.87-.41-.09-.88-.19-1.34-.22-.46-.03-.96.11-1.49,0-.39-.08-.8-.42-1.19-.67-1.12-.7-2.21-1.36-3.5-2.01,5.02-3.11,10.25-6.02,15.33-9.08.17.45.07,1.17.22,1.64,1.03-.93,1.85-2.47,2.6-3.42.03-.28-.27-.11-.37-.15-.2-.08-.52-.4-.74-.59-.64-.55-1.26-1.19-1.93-1.79-.28-.25-.63-.67-1.04-.6.34,1.17.83,2.19,1.26,3.27-7.3,3.67-14.65,7.36-22.4,11.01-3.61,1.7-7.36,3.68-11.24,5.51-2.96,1.39-6.48,3.22-9.75,4.84-.49.24-1.13.66-1.41.67-.35.01-.96-.34-1.49-.52-1.36-.46-3.06-.97-4.84-.97-1.44,0-2.97.2-4.46.3-10.16.66-20.69,1.57-30.95,2.31-10.7.77-22.13,1.56-33.19,2.45-.21.02-.79.17-1.12.08-.29-.08-.59-.57-.59-.52,0-.18.82-.62,1.12-.82.89-.59,1.46-.92,2.31-1.49.33-.22.88-.48.82-.89-2.8-.05-4.22,1.28-6.32,1.93-5.69-2.11-12.4-1.93-18.01-3.05-1.46-.29-2.9-.66-4.09-1.19-1.15-.52-2.14-1.34-3.05-2.16-1.85-1.66-3.44-3.61-4.91-5.58-3.66-4.89-7.01-10.49-10.34-16-1.93-3.19-4.11-6.64-8.33-7.37-.83-.14-2.25-.16-3.12.3M-164.43,15.64c1.9,3.07,3.59,6.05,5.36,8.86,1.67,2.65,3.72,5.68,5.8,8.41,1.96,2.56,4.41,5.64,7.14,7.07,3.13,1.64,7.62,1.99,11.9,2.46,3.19.35,6.53.73,9.23,1.56.91.28,1.87.61,2.6,1.04.41.24,1.18.79,1.34,1.12.27.55.96.32,1.19.89-.98.92-2.55.98-4.02,1.27-9.04,1.73-18.62,2.79-28.57,3.57-1.16.09-3.45.37-4.76.22-.6-.07-.81-1.37-1.04-2.16-.72-2.41-1.31-4.26-2.01-6.47,1.41-.53,3.06-.81,4.17-1.64-3.34-7.19-6.77-15.23-10.42-22.47-.43-.84-1.2-2.79-1.79-2.98-1.05-.33-2.56.2-3.42.07-1.11-2.31-2.1-4.75-3.12-7.14,5.41-1.04,8.26,2.85,10.42,6.32M-168.07,16.83c4.13,8.12,7.97,16.54,11.76,25-1.24.57-2.57,1.05-4.02,1.41-3.69-8.96-7.61-17.69-11.31-26.64h3.35c.11.04.18.12.22.22M2.1,20.1c-.57.02-1.06.13-1.64.15-.33-.76-.58-1.6-.97-2.31,0-.09.02-.18.15-.15.74.85,1.74,1.43,2.46,2.31M-3.26,23.67c-3.51,2.03-6.97,4.08-10.42,6.1-.88.52-1.82.94-2.68,1.49-.86.55-1.73,1.05-2.6,1.56-6.99,4.06-13.91,8.17-20.83,12.28-1.45-.88-2.88-1.78-4.39-2.6,13.84-6.85,28.09-13.63,41.97-20.61,1.3-.65,2.69-1.52,4.32-1.41-1.84,1-3.54,2.15-5.36,3.2M.61,22.93c-.05-.37-.1-.74-.07-1.19.53-.22,1.13-.75,1.56-.82-.53.63-.96,1.38-1.49,2.01M-15.39,31.26c1.41.72,2.8,1.57,4.02,2.38.41.28.85.6,1.34.74.08-.19-.25-.38.07-.37.89,0,1.71.08,2.38.3-3.21.51-5.19,3.25-4.91,6.62.23,2.79,2.12,4.83,4.54,5.43-4.29.52-8.65-1.32-11.31-3.35-.77-.59-1.85-1.54-2.08-2.31-.45-1.49.66-2.56,1.64-3.42.59-.52,1.91-1.57,2.68-1.64.41-.04.98.16,1.49.22.49.06,1,.19,1.49.08-.34-2.04-2.1-2.66-3.65-3.5.8-.36,1.34-.99,2.31-1.19M-17.84,32.75c.6.15,1.4.68,2.01,1.12.71.51,1.31,1.15,1.41,1.79-.99-.03-1.85-.19-2.75-.3-.21-1.08-1.05-1.53-1.56-2.31.27-.08.48-.4.89-.3M-5.12,35.06c1.13.51,1.92,1.6,2.38,2.53.23.47.62,1.26.67,2.6.11,2.76-1.71,5.13-3.79,5.73-3.9,1.12-6.32-2.81-6.32-5.58,0-1.42.57-2.73.97-3.35.79-1.25,2.38-2.63,4.61-2.31.84.12,1.09.19,1.49.37M-85.55,43.69c10.02-.78,20.4-1.59,30.28-2.23,1.46-.09,2.98-.31,4.39-.3,1.29.01,2.65.33,3.79.67,3.54,1.06,6.29,2.87,8.71,4.91-.62.31-.99.75-1.64,1.27-.44.35-1.48.86-1.49,1.49,0,.48.82,1.36,1.04,1.64.44.56.73,1.13,1.34,1.34,1.41-.85,2.64-1.87,3.57-3.2,2.2,1.95,4.12,4.34,5.36,7.22,1.58,3.68.97,7.1-.97,9.75-2.58,3.53-6.94,5.66-11.76,7.22-1.52.49-3.46,1.33-5.06,1.27-2.04-.08-4.24-1.59-5.73-2.75-4.76-3.72-8.16-8.64-14.58-10.49-2.2-.63-4.72-.75-7.37-.97-5.02-.42-10.73-.94-16-.52-2.59.21-5.07.65-7.51.89-7.63.77-15.6,1.04-23.59,1.41-1.39.07-2.78-.06-4.17,0-1.42.06-2.81.14-4.17.07-5.45-.24-10.63-.31-15.7-.82-4.97-.5-9.62-1.65-14.36-2.38-.49-.89-1.24-1.51-1.12-2.75.09-.89,1.16-1.77,1.93-2.38.39-.3.78-.57,1.26-.89.42-.29,1.01-.76,1.34-.82.32-.06.84.07,1.26.07,3.11.02,6.03-.29,8.93-.6,8.21-.87,16.25-1.73,24.03-3.2,1.33-.25,4.93-.89,3.72-2.08-.06-.06-.57-.16-.3-.22,11.26-.95,22.88-1.7,34.53-2.6M-119.63,43.91c-.65.43-1.29.92-2.01,1.27-.42-.3-.93-.51-1.34-.82,1.81-.52,3.11-1.56,5.21-1.79-.54.54-1.21.91-1.86,1.34M-38.08,46.89c.76.73,1.68,1.29,2.31,2.16-.91,1.25-2.02,2.29-3.42,3.05-.8-.74-1.42-1.65-2.01-2.6.85-1.06,2.05-1.77,3.12-2.6M-31.09,49.2c-1.17.12-1.98.6-2.68,1.19-.49-.3-.89-.7-1.19-1.19,1.12-.1,2.8-.33,3.87,0M-32.73,50.01c3.51-1.9,7.07,1.06,7.66,4.32.61,3.35-1.22,6.13-3.87,7.14v-.74c.45-.38.94-.52,1.34-.89,2.89-2.72,1.96-9.38-2.38-9.82-.53-.05-1.32-.01-1.93.22-.56.22-1.13,1.05-1.64.59-.05-.35.47-.63.82-.82M-26.03,55.52c-.02,2.32-1.15,4.05-2.9,4.91,0-.64-.06-1.23-.22-1.71,1.03-1.07,1.73-2.34,1.49-3.87-.33-2.08-2.66-3.7-4.99-2.9-.06-.33-.4-.39-.45-.74,3.18-2.66,7.1.34,7.07,4.32M-29.23,58.35c-.58-2.56-1.9-4.4-3.2-6.25,4-1.28,6.16,4.28,3.2,6.25M-163.61,59.91c.89-.19,1.89-.56,2.46-.45,3.05.61,6.44,1.22,9.45,1.71.45.07.94.04,1.34.3-15.42,2.15-30.71,4.41-46.06,6.62-.23-.33-1.03-.44-.97-.82,11-2.38,22.65-4.93,33.78-7.37M-85.33,73.9c-.42-1.72-2.44-2.67-4.24-3.35-4.63-1.76-10.76-2.15-16.97-1.86-1.25.06-2.56.05-3.65.22-1.06.17-2.19.54-3.35.82-7.33,1.78-14.69,3.5-21.95,5.21-.64.15-1.32.39-1.78.37-.87-.03-2.08-.73-3.05-1.12-5.34-2.14-9.31-4.22-13.47-7.44-1.3-1.01-2.8-2.2-3.87-3.42-.4-.45-.42-.35-.15-.52.21-.13,1.36-.19,2.08-.3.79-.12,1.58-.21,2.16-.3,1.6-.24,2.98-.57,4.32-.6,1.23-.02,2.5.25,3.79.37,9.19.84,19.11.73,28.72.37,8.17-.3,15.93-.88,23.51-1.86,2.5-.32,5.84-.34,8.41-.22,4.18.19,8.23.45,11.9.74,3.75.3,7.04,1.35,9.53,3.05,3.78,2.58,6.65,6.12,10.34,8.71.94.66,1.9,1.38,2.98,1.79.37.14.86.11,1.19.45-11.25,1.33-24.19,1.36-36.68,1.19.19-.57.41-1.53.22-2.31M-160.48,81.12c5.89-1.39,11.84-2.83,17.63-4.17,1.99-.46,4-.97,6.03-1.27,1.32-.5,2.71-.79,4.09-1.12,7.22-1.69,14.16-3.28,21.35-4.98.7-.17,1.39-.39,2.16-.45,2.52-.19,5.71-.25,7.96-.15,3.13.15,5.98.35,9.15,1.12,2.97.72,7.74,2.14,6.18,6.03-2.54,1.08-5.18,1.84-8.18,2.31-3.11.49-6.48.07-9.97.07-6.83,0-13.72.28-20.39.6-1.44.07-2.96.45-4.46.74-4.34.84-8.98,1.72-13.25,2.53-29.45,5.61-58.66,11.42-88.02,16.97-.16-.56-.51-.93-.67-1.49,23.49-5.58,46.97-11.21,70.39-16.74M-145.45,83.35s.12-.01.15,0c.77.31,1.72.79,2.46,1.27.73.48,1.3,1.16,2.01,1.49.33-.23-.48-.46-.08-.52,1.31.03,2.5.18,3.42.6-4.29.09-7.05,4.01-6.77,8.11.23,3.42,2.44,6.07,5.51,6.77-.98.12-1.72.16-2.75.07-4.08-.32-8.58-2.59-11.24-4.84-.95-.81-2.17-1.92-2.53-2.9-.65-1.8.81-3.32,1.79-4.17.64-.55,2.23-1.67,3.05-1.79.63-.09,1.5.1,2.23.15.72.05,1.48.28,2.23.08-.17-2.04-1.61-2.8-2.98-3.65,1.28-.21,2.45-.47,3.5-.67M-149.69,84.17s.12-.01.15,0c1.37.51,3.03,1.58,3.2,3.27-1.44-.07-2.84-.18-4.24-.3-.21-1.23-1.04-1.84-1.86-2.46.97-.15,1.9-.36,2.75-.52M-131.32,94.58c-.28,2.64-2.04,5.03-4.61,5.88-1.72.57-3.35.27-4.54-.37-2.57-1.39-4.35-5.2-3.05-8.93.83-2.39,3.02-5.01,6.47-4.61,3.52.4,6.21,3.53,5.73,8.04M-193.07,92.5c1.17.47,2.23,1.09,3.12,1.79.27.21.54.54.89.52.08-.19-.25-.38.07-.37.85.11,1.79.15,2.46.45-3.29.37-5.53,3.03-5.36,6.62.14,2.97,1.92,4.9,4.39,5.65-3.5.24-5.97-.68-8.63-2.16-1.73-.96-4.18-2.49-4.76-4.39-.38-1.26.6-2.22,1.34-2.9.6-.56,1.46-1.41,2.38-1.56,1.26-.21,2.82.4,3.94,0-.11-1.11-.65-1.78-1.34-2.31-.4-.31-.89-.46-1.26-.82.98-.11,1.87-.32,2.75-.52M-196.5,93.24c1.31.12,2.78,1.48,2.9,2.75-1.04-.12-2.26-.07-3.35-.15-.22-1.09-.92-1.71-1.71-2.23.76-.08,1.45-.44,2.16-.37M-184.37,95.63c.64.27,1.42.93,1.86,1.49.57.71,1.24,2.1,1.26,3.79.04,3.18-2.16,6.07-5.28,6.03-3.17-.04-5.11-3-5.06-5.88.05-3.21,2.3-5.95,5.36-5.8.66.03,1.44.2,1.86.37M-230.5,99.42c-.56.53-1.19,1.31-1.71,1.86-.15.16-.54.61-.6.37.03-1.14.58-2.22.6-3.35.01-1.02-.49-1.99-.37-2.98.67,1.39,1.43,2.69,2.08,4.09"/>
                <path class="cls-3" d="M107.16,13.41c.11,2.37.26,4.7.37,7.07.7-.05,1.7-.33,2.31,0,.17-.4.03-1.11.08-1.64,1.68-1.01,3.89-1.2,6.1-1.41,2.24-.21,4.69-.33,7.07-.37,4.85-.07,9.95-.18,14.73,0,9.49.36,18.26,1.96,26.19,3.65,5.32,13.6,8.53,29.77,11.31,46.13.28,1.64.55,3.55.82,5.36.1.66.29,1.42.22,1.79-.14.82-1.64,1.52-2.75,1.93-3.38,1.28-7.65,1.94-11.53,2.46-5.62.75-11.44,1.25-17.41,1.04-8.72-.3-17.18-1.24-25-2.9-1.23-.26-2.52-.61-3.72-.97-1.33-.4-2.89-.82-3.35-1.64-.49-.86-.6-2.4-.74-3.72-1.06-9.42-1.11-19.68-1.49-29.46-.4-.09-1.08.14-1.71.07.75,14.26,1.53,28.48,2.31,42.71,5.03.48,10.13.81,15.4,1.27.74.06,1.62.05,2.08.22.6.23,1.13,1.39,1.64,2.08,1.63,2.25,3.08,4.24,4.69,6.4,9.99.02,19.98.04,29.39-.52,1.64-2.8,3.13-5.75,4.76-8.56,2.71-.44,5.38-.92,8.11-1.34-.07-13.32-2.22-25.05-4.76-36.09-2.54-11.04-5.63-21.44-9.38-31.47-8.97-.94-18.38-2.15-28.05-2.6-9.13-.42-19.03-.73-27.68.52M143.1,86.1c5.75.61,12.3.07,17.49-.97.07,0,.09.06.15.07,0,.1-.04.16-.07.22-6.13,1.25-15.2,1.82-21.5.37-.22-.05-.82-.09-.82-.45,1.5.17,3.07.57,4.76.74M143.02,89.9c5.92.65,12.49.03,17.56-.97.07,0,.09.06.15.07,0,.1-.04.16-.07.22-6.1,1.29-15.13,1.76-21.43.37-.26-.06-.86-.06-.89-.45,1.46.16,3.04.56,4.69.74"/>
                <path class="cls-3" d="M106.79,13.48c-1.8.36-3.51.8-5.28,1.19-4.07,8.12-5.85,19.97-5.88,32.44,0,2.42-.17,4.95-.07,7.59.12,3.46,0,7.54,0,11.24,0,1.27-.24,3.02,0,3.79.15.47,1.3,1.02,1.86,1.41,4.44,3.11,8.65,6.21,13.1,9.3-.77-13.15-1.46-26.37-2.16-39.58-1.06-.16-2.26-.17-3.2-.45-.97-1.14-1.02-3.15-1.04-5.13-.02-2.02-.06-4.18-.15-6.03.09-.34-.5,0-.52-.22-.6-.23-1.06-.73-1.56-1.41-.31-.42-.78-1.04-.82-1.34-.12-.95,1.06-2.53,1.56-3.12,1.21-1.44,2.64-2.18,4.61-2.6-.12-2.29-.24-4.57-.37-6.85,0-.11.01-.21-.07-.22"/>
                <path class="cls-3" d="M101.06,14.82c-5.6,1.2-11.04,2.55-16.59,3.79-1.16,4.48-2.38,9.05-3.27,13.84-.89,4.79-1.67,9.89-1.26,15.48,5.07-.39,10.25-.67,15.33-1.04.2-12.43,1.74-23.51,5.8-32.07"/>
                <path class="cls-3" d="M-.36,17.8c-.13-.03-.14.06-.15.15.39.7.63,1.55.97,2.31.58-.02,1.06-.13,1.64-.15-.71-.87-1.72-1.46-2.46-2.31"/>
                <path class="cls-3" d="M83.13,18.91c-1.84,6.57-3.61,13.44-4.46,21.13-.28,2.56-.49,5.25-.08,7.96.4.06.58-.12.97-.07-.37-9.19,1.74-18.26,3.72-25.89.29-1.12.54-2.18.82-3.35-.3.1-.63.16-.97.22"/>
                <path class="cls-3" d="M66.83,22.71c-1.93,8-3.97,16.26-3.65,26.27,5.09-.24,10.04-.62,15.03-.97-.55-10.6,2.24-20.17,4.46-28.72,0-.11.01-.21-.07-.22-5.28,1.2-10.52,2.42-15.77,3.65"/>
                <path class="cls-3" d="M110.81,20.62c-.29.24.12.41.22.52.48.51,1.04.97,1.49,1.64.33.49.65,1.19.97,1.86.3.63.74,1.27.89,1.93.24,1,.09,2.36,0,3.57-.18,2.36-.49,4.32-.89,6.55-.35,1.94-.57,3.57-2.38,3.87.37,9.41.34,19.13,1.49,28.05.15,1.18.18,2.77.67,3.5.43.64,1.96,1.06,3.13,1.41,3.45,1.04,7.58,1.65,11.31,2.16,5.6.76,10.75,1.23,16.52,1.41,5.87.18,11.55-.26,16.89-.89,2.62-.31,5.3-.74,7.74-1.27,2.37-.51,4.8-1.09,6.32-2.6-2.47-17.84-5.56-35.07-11.24-49.7-6.58-1.28-13.62-2.55-20.98-3.12-2.52-.2-5.07-.17-7.74-.3-3.84-.18-9-.19-13.02,0-4.12.19-8.19.3-11.38,1.41"/>
                <path class="cls-3" d="M2.1,20.47c-1.63-.11-3.02.76-4.32,1.41-13.88,6.98-28.13,13.76-41.97,20.61,1.51.82,2.94,1.73,4.39,2.6,6.92-4.11,13.85-8.22,20.83-12.28.88-.51,1.75-1.02,2.6-1.56.86-.55,1.8-.97,2.68-1.49,3.44-2.02,6.91-4.07,10.42-6.1,1.82-1.05,3.51-2.2,5.36-3.2"/>
                <path class="cls-3" d="M101.36,26.13c.72,1.1,1.29,2.63,2.83,2.68.33,2.66.06,5.95.37,8.85.1.93.22,2.04.67,2.38.35.27,1.21.3,1.86.37,1.69.18,4.49.08,5.28-.82.39-.44.55-1.76.74-2.83.41-2.22.7-3.9.89-6.25.1-1.22.3-2.63.07-3.72-.12-.56-.42-1.2-.67-1.71-.79-1.65-2.18-4.24-4.09-4.46-.02,0-.05,0-.08,0-3.68.02-6.86,1.93-7.89,5.51"/>
                <path class="cls-3" d="M65.49,23c-1.08,3.94-1.95,8.04-2.68,12.35-.72,4.27-1.4,8.87-.97,13.77.34-.03.63-.11,1.04-.07-.42-10,1.84-18.35,3.5-26.27-.25.12-.61.13-.89.22"/>
                <path class="cls-3" d="M51.35,26.28c-1.55,7.32-3.62,14.87-3.12,23.74,4.39-.32,8.85-.58,13.24-.89-.34-9.89,1.71-18.03,3.65-25.89.01-.06-.03-.07-.07-.07-4.63.98-9.11,2.1-13.69,3.12"/>
                <path class="cls-3" d="M166.83,25.76c.4,1.66.96,3.15,1.41,4.76,1.91-.4,3.72-.9,5.65-1.27.09,2.07-.19,4.37-.3,6.62-.04.78-.17,1.62,0,2.16.32,1,2.89,1.78,4.39,1.19.9-.36,1.35-1.57,1.64-2.61.63-2.22.72-5.07.37-7.66-.2-1.48-.54-3.13-1.41-3.72-.65-.44-1.68-.54-2.38-.6-3.43-.25-6.22.63-9.38,1.12"/>
                <path class="cls-3" d="M50.31,26.5c-1.3,5.33-2.6,11.01-3.2,17.26-.09.94-.15,1.91-.15,3.27,0,.96-.15,2.86.3,3.05.18.08.16,0,.37-.07.37-.12.22-.22.22-.67,0-.36-.06-.73-.07-.97-.18-3.99.43-7.83,1.04-11.46.63-3.75,1.42-7.12,2.16-10.34v-.22c-.18.09-.44.11-.67.15"/>
                <path class="cls-3" d="M49.94,26.65c-3.63.76-7.16,1.62-10.71,2.46-1.51,6.83-3.26,13.41-3.35,21.65,3.45-.09,7.29-.45,10.86-.67-.37-8.96,1.58-16.23,3.2-23.44"/>
                <path class="cls-3" d="M38.93,29.25c-.01-.09-.14-.06-.22-.07-.49.1-.51.7-.6,1.04-1.4,5.46-2.7,11.44-3.13,17.86-.05.73-.18,1.53-.07,2.38,0,.07-.11.54.22.37.61.19.41-.42.45-.74.04-.4-.01-.89,0-1.19.28-6.93,1.92-13.47,3.27-19.49-.01-.09.02-.13.07-.15"/>
                <path class="cls-3" d="M38.04,29.48c.01-.06-.03-.07-.07-.07-3.32.7-6.51,1.53-9.82,2.23-1.44,6.2-3.01,12.26-3.05,19.87,3.23-.14,6.33-.42,9.52-.6.14-8.15,1.76-14.8,3.42-21.43"/>
                <path class="cls-3" d="M27.77,31.86c0-.07-.09-.06-.15-.07-.41.08-.45.68-.52.97-1.24,4.93-2.34,10.37-2.75,16.22-.03.46-.07.92-.07,1.41,0,.33-.18.95.22,1.19.5-.03.29-.74.3-1.12.07-6.68,1.67-12.71,2.9-18.45-.01-.09.02-.13.07-.15"/>
                <path class="cls-3" d="M27.02,32.01c-2.39.33-4.99,1.12-7.44,1.64-1.28,5.89-2.84,11.5-3.05,18.45,2.46-.19,5.02-.29,7.44-.52.07-7.47,1.59-13.49,3.05-19.57"/>
                <path class="cls-3" d="M19.28,33.79c-.01-.09-.14-.06-.22-.07-1.31,5.24-2.88,11.05-3.2,17.41-.02.4-.16.95.08.97.53-.08.28-.78.3-1.04.3-6.1,1.8-11.82,2.98-17.11-.01-.09.02-.13.07-.15"/>
                <path class="cls-3" d="M18.61,33.87c-2.22.51-4.47.99-6.62,1.56-1.29,5.43-2.66,10.78-2.98,17.19,2.11-.2,4.31-.31,6.47-.45.35-6.79,1.77-12.51,3.12-18.3"/>
                <path class="cls-3" d="M11.62,35.5c-.12-.02-.13.07-.22.07-.69,2.69-1.24,5.45-1.79,8.26-.55,2.8-1.18,5.68-1.12,8.78.42-.2.21-.76.22-1.04.36-5.6,1.78-10.85,2.83-15.85.09-.01.06-.14.07-.22"/>
                <path class="cls-3" d="M11.1,35.73c-1.65.08-3.38.73-5.06,1.04-.86,5.42-1.83,10.72-2.6,16.22,1.48-.21,3.2-.17,4.69-.37.34-6.28,1.65-11.6,2.98-16.89"/>
                <path class="cls-3" d="M95.11,47.19c-9.91.77-20.1,1.28-30.21,2.01-.6.04-1.26-.02-1.79.3-.25-.25-.55-.1-.82-.08-.28.03-.53.06-.82.08-4.51.2-10.08.62-14.51.97-.33.03-1.43.02-2.16.07-13.6,1.02-27.43,1.71-41.45,2.75-.31,1.19-.44,2.36-.45,3.65,0,1.23.3,2.45.3,3.72,0,6.44.19,13.35.67,19.64.1,1.32.08,2.78.52,3.5.45.74,2.03,1.28,3.2,1.71,3.64,1.36,7.56,2.28,11.38,3.35-.45-5.88-.44-13.46,3.8-15.33.49-.22,1.33-.5,2.08-.37,1.17.19,1.91,1.73,2.31,2.98,1.29,4.05,1.27,9.21,1.26,14.43.68.09,1.35.36,2.08.45.14.02.26-.09.37-.08.16.03.1.12.22.15,13.61,2.77,27.7,5.14,41.45,7.81-.32-3-.61-6.87-.45-10.49.18-3.94.68-8.4,3.12-9.75,2.07-1.14,4.94-.52,6.55.6,2.64,1.84,3.76,5.14,4.54,9.15.74,3.78,1.11,8.32.97,12.72,3.71.79,7.35,1.55,11.09,2.23,3.69.67,7.49,1.58,11.68,1.41.17-3.95.43-7.89.6-11.91.02-.55.16-1.33.08-1.71-.11-.49-1.24-1.32-1.79-1.79-4.2-3.61-8.31-6.99-12.57-10.49-.28-.23-.55-.63-.97-.6-.19,7.61-.08,15.18-.45,22.84-.02.41-.02.91-.22,1.27-.34-.42-.1-.96-.07-1.41.36-7.53.21-15.42.52-22.99-5.91-4.88-11.7-9.65-18.3-14.14-1.05-.71-2.14-1.46-3.27-2.16-1.15-.71-2.54-1.62-3.87-1.86-2.53-.45-5.34-.39-8.11-.45-8.37-.17-17.07.1-25.3.22-10.56.16-20.74.46-31.18.82-.62.02-1.28.24-1.86-.08.25-.3.67-.13.97-.15,2.21-.15,4.84-.19,7.22-.3,8.25-.38,16.58-.33,25.08-.6,5.38-.17,11.31-.22,16.96-.22,4.22,0,8.64-.04,12.72.15,1.36.06,2.72.09,3.87.37,1.2.29,2.5,1.1,3.65,1.79,3.28,1.97,6.62,4.45,9.45,6.62,3.86,2.97,7.47,5.79,11.24,8.85.19.16.41.52.74.45-.03-1.6.01-3.57.07-5.28.02-.59.13-1.36,0-1.79-.12-.37-.82-.69-1.34-1.04-5.23-3.56-10.14-6.9-15.63-10.12-.94-.55-2-1.12-3.05-1.64-1.08-.53-2.2-1.14-3.27-1.34-1.28-.24-2.83-.22-4.32-.22-10.39,0-20.72.53-30.51,1.19-5.78.39-11.48.67-17.04,1.04-5.75.39-11.35.89-16.82,1.12.12-.36.63-.27.89-.3,2.36-.27,4.96-.33,7.44-.52,14.11-1.1,28.25-1.95,43.01-2.53,4.2-.16,8.79-.3,13.39-.3,1.46,0,2.99.01,4.24.3,2.21.51,4.26,1.84,6.25,2.98,5.48,3.12,10.34,6.46,15.4,9.97.2.14.45.3.67.45.18.12.44.3.67.3.08-7.46.04-14.69,0-22.17,0-.13-.06-.19-.15-.22"/>
                <path class="cls-3" d="M172.49,53.06c-.03-.14-.1.05-.07.15.03.14.09-.05.07-.15"/>
                <path class="cls-3" d="M172.56,53.44c-.03-.14-.1.05-.07.15.03.14.09-.05.07-.15"/>
                <path class="cls-3" d="M172.64,53.81c-.03-.14-.1.05-.07.15.03.14.09-.05.07-.15"/>
                <path class="cls-3" d="M95.63,70.33c-.14,1.29-.15,3.71-.15,5.51,0,.6-.12,1.38,0,1.79.12.4,1.33,1.28,1.86,1.71,3.26,2.66,6.53,5.27,9.67,7.96,1.26,1.08,2.4,2.26,3.72,3.12.4-2.06-.03-4.94-.15-7.44-.03-.72.1-1.47-.07-1.93-.16-.43-1.24-1.02-1.79-1.41-4.16-3.03-8.85-6.38-12.95-9.15-.02-.08-.15-.05-.15-.15"/>
                <path class="cls-3" d="M23.82,75.09c-.25.19.19.27.22.3,3.44,3.26,4.03,15.34.37,18.68h4.32c.92-.64,1.61-1.52,1.93-2.75-.85-.12-1.63-.3-2.46-.45-.15-5.68,0-11.66-1.79-15.7-.95.06-1.68-.11-2.6-.07"/>
                <path class="cls-3" d="M22.78,75.16c-1.7-.25-2.56,2.1-2.98,3.72-.99,3.85-.79,8.02.45,11.53.53,1.5,1.46,3.58,2.9,3.65,1.55.07,2.36-1.95,2.83-3.65,1.01-3.62.75-8.21-.3-11.46-.46-1.4-1.39-3.57-2.9-3.79M25.16,84.61c.1,2.21-.48,5.97-2.31,6.03-2.1.07-2.61-3.85-2.75-5.88-.15-2.16.25-6.91,2.6-6.33,1.61.4,2.35,3.79,2.46,6.18"/>
                <path class="cls-3" d="M73.45,98.9c.25-.16.07-.74,0-1.12-1-5.66-.28-13.91,3.42-16.29,1.29-.83,3.68-.43,5.95-.6.31-.1-.11-.4-.15-.45-.85-.98-2.51-1.97-4.24-2.08-2.07-.13-3.71.7-4.46,2.08-1.88,3.46-1.78,11.27-1.34,16.67.02.3.05.83.15,1.19.09.34,0,.79.67.59"/>
                <path class="cls-4" d="M22.71,78.44c-2.36-.58-2.75,4.17-2.61,6.33.14,2.03.65,5.94,2.75,5.88,1.82-.06,2.4-3.82,2.31-6.03-.11-2.38-.85-5.78-2.46-6.18M20.92,87.96c-.34-1.03-.55-2.41-.59-3.57-.09-2.26.59-5.69,2.01-5.73.69-.02,1.19.69,1.26,1.19-1.79-1.54-2.69,1.5-2.83,3.35-.22,3.12.57,7.08,2.83,6.77-1.36,1.18-2.28-.8-2.68-2.01M24.79,84.76c.06,1.69-.29,4.92-1.71,4.91-1.29-.01-1.93-3.13-2.01-4.61-.12-2.15.36-5.61,1.86-5.28,1.33.29,1.79,3.15,1.86,4.98"/>
                <path class="cls-3" d="M22.93,79.78c-1.5-.32-1.98,3.14-1.86,5.28.08,1.48.71,4.6,2.01,4.61,1.42.01,1.77-3.22,1.71-4.91-.07-1.84-.53-4.7-1.86-4.98"/>
                <path class="cls-3" d="M83.2,81.19c-1.12-.05-2.06.08-3.12.07,5.55,2.92,7.35,18.05,2.83,24.18-.45.61-1.05,1.06-1.56,1.56h7.07c1.71-.91,2.85-2.4,3.35-4.54-1.44-.52-3.29-.63-4.76-1.12.04-7.88-.47-15.2-3.57-19.94-.04-.11-.12-.18-.22-.22"/>
                <path class="cls-3" d="M78.74,81.34c-2.76-.13-4.1,3.51-4.69,5.73-.53,2.02-.89,5.46-.67,8.18.2,2.53.88,5.28,1.79,7.29,1.01,2.25,2.64,4.75,4.99,4.39,2.18-.34,3.4-2.71,4.09-5.06,1.46-5,.88-11.66-.74-15.7-.39-.97-.93-1.97-1.64-2.9-.69-.91-1.64-1.86-3.13-1.93M79.93,86.4c1.81,1.48,2.97,5.88,2.68,9.82-.19,2.57-1.28,6.1-3.57,6.1-1.51,0-2.43-1.48-3.05-2.83-1.28-2.79-1.67-6.73-.67-10.19.48-1.68,1.48-3.76,3.42-3.42.47.08.93.3,1.19.52"/>
                <path class="cls-3" d="M164.6,92.8c5.07-.26,9.59-1.72,12.28-4.61.08-1.59.18-3.14.15-4.84-2.6.45-5.26.84-7.81,1.34-.57.55-.81,1.32-1.19,2.01-1.08,1.95-2.28,4.07-3.42,6.1"/>
                <path class="cls-3" d="M111.18,83.8h-.15c-.06,1.6.17,3.55.22,5.28,1.31,1.07,3.07,1.56,4.84,2.01,5.34,1.37,11.79,1.95,18.08,2.38.2-.15-.1-.36-.15-.45-1.69-2.55-3.86-5.23-5.65-7.74-5.7-.52-11.52-.93-17.19-1.49"/>
                <path class="cls-4" d="M138.34,85.36c0,.36.6.4.82.45,6.3,1.45,15.38.88,21.5-.37.04-.06.08-.12.07-.22-.06-.01-.07-.08-.15-.07-5.19,1.04-11.74,1.57-17.49.97-1.69-.18-3.26-.57-4.76-.74"/>
                <path class="cls-4" d="M78.74,85.88c-1.94-.34-2.94,1.74-3.42,3.42-1,3.47-.61,7.4.67,10.19.62,1.34,1.54,2.83,3.05,2.83,2.29,0,3.38-3.53,3.57-6.1.29-3.95-.87-8.34-2.68-9.82-.26-.22-.72-.44-1.19-.52M77.69,101.5c-2.31-1.84-3.33-8.57-1.93-12.58.7-2.02,2.28-3.8,4.09-2.16.46.41.95,1.24,1.04,1.71-.59-.74-1.04-1.42-2.23-1.27-.52.07-1.04.56-1.41,1.04-1.15,1.51-1.57,4.57-1.19,7.52.35,2.74,1.8,6.66,4.61,5.36-.78.98-2,1.15-2.98.37M79.41,87.59c2.01.83,2.77,4.09,2.83,6.84.05,2.12-.37,6.68-2.68,6.7-.82,0-1.64-.86-2.08-1.64-.78-1.39-1.45-4.29-1.26-6.77.19-2.55,1.22-5.4,2.98-5.13.06.01.16-.02.22,0"/>
                <path class="cls-3" d="M79.18,87.59c-1.75-.26-2.79,2.58-2.98,5.13-.18,2.48.48,5.38,1.26,6.77.44.78,1.26,1.64,2.08,1.64,2.31-.01,2.73-4.58,2.68-6.7-.06-2.76-.82-6.02-2.83-6.84-.06-.02-.16.01-.22,0"/>
                <path class="cls-3" d="M167.95,103.36c1.91-.02,3.79-.08,5.65-.15.97-.91,2.39-2.12,2.83-3.72.34-1.26.26-3.48.37-5.43.11-1.86.19-3.73.22-5.36.02-.13-.07-.15-.07-.07-1.05,1.03-2.3,1.86-3.72,2.53-2.13,3.7-4.68,6.97-5.28,12.2"/>
                <path class="cls-4" d="M138.34,89.15c.04.39.63.39.89.45,6.3,1.39,15.33.92,21.43-.37.04-.06.08-.12.07-.22-.06-.01-.07-.08-.15-.07-5.07.99-11.64,1.62-17.56.97-1.65-.18-3.22-.59-4.69-.74"/>
                <path class="cls-3" d="M110.36,104.7c5.5-.13,11.52-.39,17.34-.45-1.12-4.55-3.31-8.05-5.36-11.68-4.09-.67-8.31-1.22-11.16-3.12-.41,4.7-.49,10.25-.82,15.25"/>
                <path class="cls-4" d="M157.09,97.19c-4.99.1-9.97.2-14.96.3-.3,1.86-.35,3.97-.52,5.95,5.21-.1,10.87-.39,16.07-.74-.13-1.77-.28-3.54-.45-5.28,0-.13-.06-.19-.15-.22M157.31,102.47c-5.08.27-10.25.46-15.33.74,0-1.64.26-3.66.37-5.43,4.83-.1,9.68-.19,14.51-.3.28,1.48.4,3.52.45,4.98"/>
                <path class="cls-3" d="M156.86,97.49c-4.82.11-9.68.19-14.51.3-.11,1.77-.38,3.79-.37,5.43,5.08-.28,10.24-.47,15.33-.74-.05-1.47-.16-3.51-.45-4.98"/>
                <path class="cls-3" d="M163.86,21c-7.83-1.7-16.54-3.23-25.89-3.65-4.78-.21-9.85-.03-14.66,0-2.38.01-4.74.18-6.99.37-2.17.19-4.35.39-6.1,1.27v1.56c.44-.06.76-.38,1.19-.52,1.38-.46,3.16-.6,4.84-.74,6.65-.56,14.49-.6,21.65-.37,9.4.29,18.16,1.9,26.12,3.42.66.95.93,2.14,1.34,3.27.41,1.12.92,2.23,1.19,3.42.08-.43-.18-.8-.3-1.19-.72-2.28-1.52-4.66-2.38-6.84"/>
                <path class="cls-3" d="M2.1,20.92c-.43.07-1.03.6-1.56.82-.03.45.02.82.08,1.19.53-.63.96-1.38,1.49-2.01"/>
                <path class="cls-3" d="M110.66,40.64c.45,9.88.35,20.07,1.49,29.54.15,1.24.29,2.81.82,3.57.92,1.34,4.76,2.02,6.77,2.46,7.64,1.64,16.22,2.54,24.78,2.9,5.97.25,11.87-.32,17.26-1.04,4.04-.54,8.04-1.15,11.46-2.38,1.07-.39,2.19-.76,2.83-1.71-.95-6.28-1.93-12.73-3.2-18.97-.05-.25-.22-1.24-.22-.6.99,5.02,1.76,10.1,2.53,15.63.1.75.38,1.68.3,2.23-.25,1.55-4.54,2.53-6.25,2.9-2.69.59-5.19.93-7.81,1.26-5.25.67-11.29,1.18-17.11.97-8.78-.33-16.85-1.15-24.63-2.75-1.26-.26-2.36-.51-3.65-.89-1.22-.37-2.64-.83-3.05-1.49-.46-.72-.54-2.43-.67-3.57-1-8.42-1.11-17.15-1.49-26.12-.01-.35,0-.69,0-1.04,0-.26.13-.69-.15-.89"/>
                <path class="cls-3" d="M26.28,74.87c-.39-.66-.76-1.31-1.56-1.41-1.45-.19-2.93,1.03-3.57,1.86-.08.16-.08.16.07.08.91-1.1,3.26-.41,5.06-.52"/>
                <path class="cls-3" d="M23.6,89.97c-2.25.3-3.05-3.65-2.83-6.77.13-1.85,1.04-4.89,2.83-3.35-.07-.5-.58-1.21-1.26-1.19-1.42.04-2.1,3.47-2.01,5.73.04,1.16.26,2.55.6,3.57.4,1.21,1.32,3.19,2.68,2.01"/>
                <path class="cls-3" d="M80.67,101.13c-2.82,1.3-4.26-2.61-4.61-5.36-.38-2.95.04-6.01,1.19-7.52.37-.48.9-.97,1.41-1.04,1.19-.16,1.65.53,2.23,1.27-.09-.48-.58-1.3-1.04-1.71-1.81-1.64-3.39.14-4.09,2.16-1.39,4.01-.38,10.73,1.94,12.58.97.77,2.19.61,2.98-.37"/>
                <path class="cls-3" d="M172.71,91.46c-.01-.08-.07-.04-.07,0-3.26,1.37-7.21,1.7-11.38,1.93-8.25.47-17.54.29-26.27.37-4.29.04-8.34-.68-12.05-1.12-.3.1.13.42.22.6,1.83,3.34,3.81,7,4.99,11.01,13.07-.4,26.38-.55,39.51-.89.55-5.11,2.94-8.37,5.06-11.91M157.24,97.41c.17,1.74.31,3.51.45,5.28-5.2.35-10.86.65-16.07.74.18-1.98.23-4.09.52-5.95,4.99-.09,9.97-.2,14.96-.3.09.03.15.1.15.22"/>
                <path class="cls-4" d="M19.28,89.23c.21-.32-.09-.68,0-1.12.35,1.22.57,2.49,1.12,3.65.42.89,1.26,2.23,2.23,2.53.86.26,2.04.08,3.12.08h3.13c1.03-.68,1.71-1.72,2.16-2.98,12.39,2.33,24.8,4.74,37.2,7.07,1.78.34,3.59.82,5.43.74.94,2.98,1.81,6.13,4.31,7.59,2.14,1.25,7.05.15,10.57.52,1.78-1,3.04-2.52,3.5-4.84,4.33.78,9.04,1.81,13.69,2.46,1.43.2,2.83.22,4.32.22.19,0,.33-.14.52-.15,1.74-.11,3.53-.11,5.28-.15,3.46-.07,6.86-.26,10.42-.3,1.74-.02,3.51.01,5.28-.07,6.73-.32,14.15-.2,20.98-.52,3.37-.16,6.95.03,10.64-.15,2.37-.11,5.24-.2,7.81-.22.92,0,1.95.1,2.6-.07,1-.26,2.81-2.81,3.12-3.94.36-1.32.22-3.07.3-4.69.07-1.59.16-3.28.22-4.69.15-3.15.09-6.42.07-9.45-.04-6.54-.79-12.45-1.64-18.01-1.77-11.62-4.47-21.96-7.37-31.92,1.79-.37,3.49-.82,5.28-1.19,0,1.97-.16,4.27-.3,6.47-.05.75-.2,1.62,0,2.16.22.59,1,.98,1.93,1.19.82.19,2.02.42,2.83.15,1.07-.35,1.53-1.73,1.86-2.9.67-2.41.83-5.61.3-8.48-.27-1.44-.71-2.82-1.64-3.35-1.51-.85-4.28-.57-6.1-.37-2.16.24-3.86.59-5.73.97-.92-2.51-1.75-5.15-2.68-7.74-.3-.84-.67-1.67-.74-2.53-1.51-1.78-2.82-4.04-4.99-5.28-1.1-.63-2.94-1.14-4.46-1.56-7.1-1.99-15.73-2.77-24.26-3.35-3.58-.24-7.16-.21-10.64-.37-4.07-.19-9.18-.12-13.32.07-1.45.07-2.87.03-4.09.3-2.34.5-4.63,1.23-6.92,1.86-27.54,7.63-54.68,15.66-81.48,24.11-.99.31-2.2.64-3.35,1.04-2.25.78-4.08,1.21-4.32,3.79-.04.49.16.98.15,1.49-.01.86-.37,1.83-.52,2.75-.46,2.69-.89,5.6-1.34,8.33-.3,1.86-.65,3.65-.89,5.43-.14,1.01-.27,1.93-.3,2.9-.02.98.21,1.86.3,2.9.17,1.99.08,4.21.08,6.32,0,5.28.18,10.2.67,15.33.1,1.03.09,2.15.45,2.75.44.75,2.29,1.4,3.35,1.79,3.96,1.44,7.56,2.29,11.83,3.42M9.09,32.6c1.12-.39,2.28-.77,3.35-1.12,6.78-2.19,13.47-4.2,20.31-6.25,18.14-5.43,36.38-11.02,54.76-16.07,4.44-1.22,9.11-2.68,13.92-3.79,2.34-.54,5.49-.48,8.33-.52,3-.05,6.46-.05,9.15.07,3.47.16,7.05.13,10.64.37,8.51.58,17.11,1.31,24.26,3.35,1.47.42,3.04.83,4.17,1.41,1.69.87,3.39,3,4.46,4.47.15.2.54.56.3.67-17.06-1.91-37.3-4.28-55.73-2.08-.41-1.28-.77-2.39-1.41-3.65-.48-.93-1.33-2.55-2.46-2.68-.77-.09-2.13.4-3.2.67-1.12.28-2.15.58-3.05.82-30.46,8.16-60.77,17.58-90.48,26.04.43-1.09,1.74-1.38,2.68-1.71M12.07,33.05c1.99-.57,4.01-1.2,6.03-1.79,26.05-7.58,52.23-15.5,78.65-22.62,2.09-.56,4.15-1.19,6.25-1.56.1-.02.22.04.3.07,1.78.73,2.66,4.12,3.42,6.03-33.7,7.7-67.21,15.58-100.9,23.29,0-.65.11-1.18.3-1.64,1.92-.8,3.94-1.21,5.95-1.79M134.84,12.88c9.68.45,19.08,1.67,28.05,2.6,3.75,10.04,6.83,20.43,9.38,31.47,2.54,11.04,4.69,22.77,4.76,36.09-2.73.42-5.4.9-8.11,1.34-1.63,2.81-3.12,5.76-4.76,8.56-9.41.56-19.4.54-29.39.52-1.61-2.16-3.06-4.15-4.69-6.4-.5-.69-1.04-1.86-1.64-2.08-.46-.18-1.35-.16-2.08-.22-5.27-.46-10.37-.79-15.4-1.27-.78-14.23-1.56-28.45-2.31-42.71.63.07,1.31-.16,1.71-.08.38,9.78.43,20.04,1.49,29.47.15,1.32.26,2.86.74,3.72.46.81,2.02,1.24,3.35,1.64,1.2.36,2.49.7,3.72.97,7.82,1.66,16.29,2.6,25,2.9,5.97.21,11.79-.29,17.41-1.04,3.89-.52,8.15-1.18,11.53-2.46,1.11-.42,2.61-1.12,2.75-1.93.06-.36-.12-1.13-.22-1.79-.27-1.81-.54-3.72-.82-5.36-2.78-16.36-5.99-32.54-11.31-46.13-7.93-1.69-16.7-3.29-26.19-3.65-4.79-.18-9.88-.07-14.73,0-2.38.04-4.83.16-7.07.37-2.21.21-4.42.4-6.1,1.41-.05.52.1,1.24-.07,1.64-.61-.33-1.61-.05-2.31,0-.11-2.37-.26-4.7-.37-7.07,8.65-1.25,18.55-.95,27.68-.52M106.86,13.7c.14,2.27.26,4.56.37,6.85-1.97.42-3.4,1.16-4.61,2.6-.5.6-1.68,2.17-1.56,3.12.04.3.51.92.82,1.34.51.68.96,1.18,1.56,1.41.02.23.61-.12.52.22.09,1.85.13,4.01.15,6.03.02,1.98.07,3.99,1.04,5.14.94.27,2.14.29,3.2.45.7,13.21,1.39,26.44,2.16,39.59-4.44-3.09-8.66-6.19-13.1-9.3-.56-.39-1.71-.94-1.86-1.41-.24-.77,0-2.53,0-3.79,0-3.7.12-7.77,0-11.23-.09-2.64.07-5.17.07-7.59.02-12.47,1.81-24.32,5.88-32.44,1.77-.39,3.48-.84,5.28-1.19.09.01.08.12.07.22M95.25,46.89c-5.08.38-10.26.66-15.33,1.04-.4-5.59.38-10.68,1.26-15.48.89-4.79,2.11-9.36,3.27-13.84,5.55-1.25,10.99-2.6,16.59-3.79-4.06,8.56-5.61,19.64-5.8,32.07M166.24,27.84c.12.39.38.76.3,1.19-.27-1.19-.78-2.3-1.19-3.42-.41-1.13-.68-2.32-1.34-3.27-7.96-1.52-16.71-3.13-26.12-3.42-7.16-.22-15.01-.19-21.65.37-1.68.14-3.46.29-4.84.74-.43.14-.75.46-1.19.52v-1.56c1.75-.88,3.93-1.08,6.1-1.27,2.25-.19,4.61-.36,6.99-.37,4.8-.02,9.88-.21,14.66,0,9.35.41,18.07,1.94,25.89,3.65.86,2.19,1.66,4.57,2.38,6.85M84.09,18.69c-.28,1.17-.53,2.23-.82,3.35-1.98,7.64-4.09,16.71-3.72,25.89-.39-.04-.56.13-.97.07-.41-2.71-.21-5.4.07-7.96.85-7.69,2.62-14.57,4.46-21.13.34-.06.67-.13.97-.22M82.61,19.06c.09.01.08.12.07.22-2.22,8.55-5.01,18.12-4.46,28.72-4.99.35-9.94.72-15.03.97-.33-10.01,1.72-18.27,3.65-26.27,5.25-1.22,10.5-2.45,15.78-3.65M122.19,19.21c4.02-.19,9.19-.18,13.02,0,2.67.12,5.22.1,7.74.3,7.36.58,14.41,1.85,20.98,3.12,5.68,14.64,8.76,31.86,11.24,49.7-1.52,1.51-3.96,2.1-6.32,2.6-2.44.52-5.12.95-7.74,1.27-5.34.64-11.02,1.08-16.89.89-5.76-.18-10.92-.65-16.52-1.41-3.73-.51-7.86-1.12-11.31-2.16-1.17-.35-2.69-.77-3.12-1.41-.49-.73-.52-2.32-.67-3.5-1.15-8.92-1.12-18.65-1.49-28.05,1.81-.3,2.03-1.92,2.38-3.87.4-2.23.71-4.19.89-6.55.1-1.21.24-2.57,0-3.57-.16-.66-.59-1.3-.89-1.93-.32-.67-.64-1.37-.97-1.86-.45-.67-1.01-1.12-1.49-1.64-.1-.11-.51-.28-.22-.52,3.2-1.11,7.27-1.22,11.38-1.41M109.24,20.62s.05,0,.07,0c1.91.22,3.31,2.81,4.09,4.46.25.52.55,1.15.67,1.71.22,1.09.03,2.5-.07,3.72-.2,2.35-.48,4.03-.89,6.25-.2,1.07-.36,2.39-.75,2.83-.8.9-3.59.99-5.28.82-.65-.07-1.51-.1-1.86-.37-.45-.35-.57-1.45-.67-2.38-.31-2.9-.05-6.2-.37-8.85-1.54-.05-2.1-1.58-2.83-2.68,1.02-3.57,4.21-5.49,7.89-5.51M66.38,22.78c-1.66,7.92-3.92,16.26-3.5,26.27-.41-.04-.7.04-1.04.07-.43-4.89.25-9.5.97-13.77.73-4.32,1.6-8.41,2.68-12.35.28-.09.65-.1.89-.22M65.04,23.15s.09.01.08.07c-1.93,7.87-3.99,16-3.65,25.89-4.39.32-8.85.57-13.25.89-.49-8.87,1.58-16.42,3.13-23.74,4.58-1.02,9.06-2.15,13.69-3.12M176.21,24.64c.7.05,1.73.15,2.38.6.87.59,1.21,2.24,1.41,3.72.35,2.59.26,5.44-.37,7.66-.29,1.03-.73,2.25-1.64,2.6-1.5.59-4.07-.19-4.39-1.19-.17-.54-.04-1.38,0-2.16.1-2.25.39-4.55.3-6.62-1.94.37-3.75.86-5.65,1.27-.45-1.61-1.01-3.1-1.41-4.76,3.15-.48,5.95-1.37,9.38-1.12M50.98,26.35v.22c-.74,3.22-1.53,6.6-2.16,10.34-.61,3.63-1.22,7.47-1.04,11.46.01.24.08.61.07.97,0,.45.15.55-.22.67-.22.07-.19.15-.37.07-.44-.19-.3-2.09-.3-3.05,0-1.36.06-2.33.15-3.27.6-6.26,1.9-11.93,3.2-17.26.23-.04.48-.06.67-.15M46.74,50.09c-3.57.22-7.41.58-10.86.67.09-8.24,1.84-14.83,3.35-21.65,3.55-.84,7.08-1.7,10.72-2.46-1.62,7.21-3.57,14.48-3.2,23.44M38.85,29.4c-1.36,6.03-3,12.56-3.27,19.49-.01.3.04.79,0,1.19-.04.33.17.93-.45.74-.33.16-.21-.31-.22-.37-.11-.85.03-1.65.07-2.38.42-6.42,1.73-12.4,3.12-17.86.09-.34.11-.94.6-1.04.09.01.21-.01.22.07-.06.02-.09.06-.07.15M34.61,50.91c-3.19.18-6.29.45-9.52.6.04-7.6,1.61-13.67,3.05-19.87,3.31-.71,6.51-1.53,9.82-2.23.05,0,.09.01.07.08-1.66,6.62-3.28,13.28-3.42,21.43M27.69,32.01c-1.23,5.74-2.83,11.77-2.9,18.45,0,.38.2,1.09-.3,1.12-.41-.25-.22-.87-.22-1.19,0-.49.04-.95.07-1.41.41-5.85,1.51-11.29,2.75-16.22.07-.29.11-.89.52-.97.06.02.15,0,.15.08-.06.02-.09.06-.07.15M23.97,51.58c-2.42.23-4.98.33-7.44.52.21-6.95,1.77-12.56,3.05-18.45,2.46-.52,5.05-1.3,7.44-1.64-1.46,6.08-2.98,12.1-3.05,19.57M19.21,33.94c-1.18,5.29-2.67,11.02-2.98,17.11-.01.26.23.96-.3,1.04-.23-.02-.1-.57-.07-.97.32-6.36,1.89-12.17,3.2-17.41.09.01.21-.01.22.07-.06.02-.09.06-.07.15M15.49,52.17c-2.17.14-4.37.25-6.47.45.31-6.41,1.68-11.76,2.98-17.19,2.15-.57,4.41-1.05,6.62-1.56-1.35,5.79-2.77,11.51-3.12,18.3M11.55,35.73c-1.05,5-2.47,10.25-2.83,15.85-.02.28.19.85-.22,1.04-.06-3.1.57-5.98,1.12-8.78.55-2.81,1.09-5.57,1.79-8.26.1,0,.1-.09.22-.07-.01.09.01.21-.07.22M8.12,52.62c-1.49.2-3.2.17-4.69.37.77-5.5,1.75-10.8,2.6-16.22,1.68-.31,3.41-.96,5.06-1.04-1.33,5.29-2.64,10.61-2.98,16.89M110.81,41.53c0,.35-.01.69,0,1.04.38,8.96.49,17.69,1.49,26.12.14,1.14.21,2.85.67,3.57.41.66,1.83,1.12,3.05,1.49,1.29.39,2.39.63,3.65.89,7.78,1.6,15.85,2.42,24.63,2.75,5.82.22,11.87-.29,17.11-.97,2.62-.34,5.12-.68,7.81-1.27,1.71-.38,6-1.35,6.25-2.9.09-.55-.19-1.48-.3-2.23-.77-5.52-1.54-10.6-2.53-15.63,0-.64.17.34.22.6,1.27,6.24,2.25,12.7,3.2,18.97-.64.95-1.75,1.32-2.83,1.71-3.42,1.24-7.42,1.84-11.46,2.38-5.39.72-11.29,1.29-17.26,1.04-8.55-.36-17.13-1.26-24.78-2.9-2.01-.43-5.85-1.12-6.77-2.46-.53-.76-.67-2.34-.82-3.57-1.14-9.47-1.04-19.66-1.49-29.54.28.2.14.64.15.89M95.25,47.41c.04,7.48.08,14.71,0,22.17-.23,0-.49-.18-.67-.3-.22-.15-.47-.31-.67-.45-5.06-3.51-9.93-6.85-15.4-9.97-1.99-1.14-4.04-2.47-6.25-2.98-1.25-.29-2.78-.3-4.24-.3-4.6,0-9.2.13-13.39.3-14.75.57-28.9,1.43-43.01,2.53-2.48.19-5.09.25-7.44.52-.26.03-.77-.06-.89.3,5.46-.23,11.07-.73,16.82-1.12,5.56-.37,11.26-.65,17.04-1.04,9.79-.66,20.12-1.19,30.51-1.19,1.49,0,3.03-.02,4.31.22,1.07.2,2.2.81,3.27,1.34,1.05.52,2.11,1.08,3.05,1.64,5.49,3.22,10.4,6.56,15.63,10.12.52.36,1.22.67,1.34,1.04.13.43.02,1.19,0,1.79-.06,1.71-.11,3.68-.08,5.28-.34.08-.55-.29-.74-.45-3.76-3.07-7.37-5.89-11.24-8.85-2.83-2.18-6.17-4.66-9.45-6.62-1.15-.69-2.45-1.49-3.65-1.78-1.15-.28-2.51-.31-3.87-.37-4.09-.19-8.51-.15-12.72-.15-5.65,0-11.58.05-16.96.22-8.5.27-16.83.22-25.08.6-2.38.11-5.01.14-7.22.3-.3.02-.72-.15-.97.15.59.32,1.24.1,1.86.07,10.43-.36,20.62-.66,31.18-.82,8.22-.13,16.92-.39,25.3-.22,2.77.05,5.58,0,8.11.45,1.33.24,2.71,1.15,3.87,1.86,1.14.7,2.23,1.44,3.27,2.16,6.61,4.49,12.4,9.26,18.3,14.14-.31,7.58-.16,15.46-.52,22.99-.02.45-.26.99.07,1.41.21-.36.2-.86.22-1.27.36-7.67.26-15.23.45-22.84.42-.03.69.37.97.6,4.26,3.5,8.37,6.89,12.57,10.49.54.47,1.68,1.29,1.79,1.79.08.39-.05,1.16-.07,1.71-.17,4.01-.42,7.96-.6,11.91-4.19.16-7.99-.74-11.68-1.41-3.74-.68-7.38-1.45-11.09-2.23.14-4.41-.23-8.94-.97-12.72-.78-4.01-1.9-7.31-4.54-9.15-1.61-1.12-4.48-1.74-6.55-.6-2.44,1.35-2.95,5.81-3.12,9.75-.16,3.62.12,7.49.45,10.49-13.74-2.68-27.83-5.04-41.44-7.81-.12-.02-.07-.12-.22-.15-.11-.02-.23.09-.37.07-.73-.09-1.4-.36-2.08-.45,0-5.22.03-10.39-1.26-14.43-.4-1.25-1.14-2.79-2.31-2.98-.75-.12-1.59.15-2.08.37-4.23,1.87-4.24,9.45-3.79,15.33-3.82-1.06-7.74-1.99-11.38-3.35-1.17-.44-2.75-.97-3.2-1.71-.44-.72-.42-2.17-.52-3.5-.47-6.29-.67-13.21-.67-19.64,0-1.27-.3-2.49-.3-3.72,0-1.29.14-2.45.45-3.65,14.01-1.04,27.84-1.74,41.44-2.75.73-.05,1.82-.05,2.16-.08,4.42-.35,10-.77,14.51-.97.29-.01.54-.05.82-.07.27-.02.57-.18.82.07.53-.32,1.18-.25,1.79-.3,10.11-.73,20.3-1.24,30.21-2.01.09.03.15.09.15.22M172.41,53.21c-.02-.1.05-.29.07-.15.02.1-.05.29-.07.15M172.49,53.59c-.02-.1.05-.29.07-.15.02.1-.05.29-.07.15M172.56,53.96c-.02-.1.05-.29.07-.15.02.1-.05.29-.07.15M95.78,70.48c4.1,2.77,8.79,6.12,12.95,9.15.55.4,1.62.98,1.79,1.41.18.47.04,1.22.08,1.93.12,2.5.55,5.38.15,7.44-1.32-.86-2.46-2.04-3.72-3.12-3.14-2.69-6.42-5.3-9.67-7.96-.53-.43-1.74-1.31-1.86-1.71-.13-.41,0-1.18,0-1.79,0-1.79.01-4.21.15-5.51,0,.1.13.07.15.15M21.22,75.39c-.15.08-.16.08-.07-.08.64-.83,2.12-2.05,3.57-1.86.8.11,1.17.76,1.56,1.41-1.8.11-4.15-.58-5.06.52M26.43,75.16c1.79,4.04,1.64,10.02,1.79,15.7.83.14,1.61.33,2.46.45-.33,1.24-1.01,2.11-1.93,2.75h-4.32c3.66-3.33,3.07-15.42-.37-18.68-.03-.03-.47-.11-.22-.3.92-.03,1.65.13,2.6.08M25.68,78.96c1.05,3.25,1.3,7.84.3,11.46-.47,1.7-1.28,3.72-2.83,3.65-1.44-.07-2.37-2.14-2.9-3.65-1.24-3.51-1.43-7.69-.45-11.53.42-1.62,1.28-3.97,2.98-3.72,1.51.22,2.45,2.39,2.9,3.79M72.78,98.3c-.1-.36-.12-.89-.15-1.19-.44-5.39-.54-13.21,1.34-16.67.75-1.38,2.39-2.21,4.47-2.08,1.73.11,3.39,1.1,4.24,2.08.04.05.46.35.15.45-2.27.17-4.66-.23-5.95.6-3.71,2.38-4.43,10.63-3.42,16.29.07.38.26.96,0,1.12-.68.19-.58-.26-.67-.6M83.42,81.41c3.1,4.74,3.61,12.06,3.57,19.94,1.47.49,3.32.6,4.76,1.12-.49,2.13-1.63,3.63-3.35,4.54h-7.07c.51-.51,1.11-.95,1.56-1.56,4.53-6.13,2.73-21.26-2.83-24.18,1.07,0,2.01-.13,3.12-.07.11.04.18.12.22.22M81.86,83.27c.71.93,1.25,1.94,1.64,2.9,1.63,4.04,2.21,10.7.74,15.7-.69,2.35-1.91,4.72-4.09,5.06-2.34.36-3.97-2.14-4.99-4.39-.9-2.02-1.58-4.77-1.79-7.29-.22-2.72.14-6.16.67-8.18.58-2.22,1.93-5.86,4.69-5.73,1.49.07,2.44,1.03,3.12,1.93M168.02,86.7c.38-.69.62-1.46,1.19-2.01,2.55-.5,5.21-.89,7.81-1.34.03,1.7-.07,3.25-.15,4.84-2.68,2.9-7.21,4.35-12.28,4.61,1.14-2.03,2.34-4.15,3.42-6.1M128.37,85.28c1.79,2.51,3.97,5.19,5.65,7.74.05.08.35.3.15.45-6.29-.44-12.74-1.01-18.08-2.38-1.77-.45-3.53-.94-4.84-2.01-.06-1.73-.28-3.68-.22-5.28h.15c5.67.55,11.49.96,17.19,1.49M173.23,91.16c1.42-.67,2.67-1.5,3.72-2.53,0-.08.1-.06.07.07-.03,1.62-.12,3.5-.22,5.36-.11,1.96-.03,4.18-.37,5.43-.43,1.6-1.86,2.81-2.83,3.72-1.87.07-3.74.13-5.65.15.6-5.23,3.15-8.51,5.28-12.2M111.18,89.45c2.86,1.91,7.07,2.46,11.16,3.12,2.05,3.63,4.23,7.13,5.36,11.68-5.82.06-11.83.32-17.34.45.33-5.01.41-10.56.82-15.25M167.65,103.36c-13.13.34-26.44.49-39.51.89-1.17-4.02-3.16-7.68-4.99-11.01-.09-.17-.53-.5-.22-.6,3.72.44,7.76,1.16,12.05,1.12,8.73-.08,18.02.1,26.27-.37,4.17-.24,8.13-.57,11.38-1.93,0-.04.06-.08.07,0-2.12,3.54-4.51,6.8-5.06,11.91"/>
              </g>
            </g>
          </g>
          <g>
            <path class="cls-2" d="M23.37,4.29s.49-5.65-4.64-3.25L7.17,6.43s-5.14,2.4-.49,5.65l10.45,7.32s4.64,3.25,5.14-2.4l1.11-12.71Z"/>
            <path class="cls-10" d="M17.58,2.2s-2.83-4.91-5.67,0l-6.38,11.05s-2.83,4.91,2.83,4.91h12.76s5.67,0,2.83-4.91l-6.38-11.05Z"/>
            <path class="cls-6" d="M23.59,5.26S25.48-.08,19.91.95L7.37,3.28s-5.58,1.03-1.89,5.34l8.28,9.7s3.68,4.31,5.57-1.03l4.26-12.02Z"/>
          </g>
          <text class="cls-5" transform="translate(11.46 13.86)"><tspan x="0" y="0">1</tspan></text>
        </g>
      </g>
    </g>
  </g>
</svg>