<?xml version="1.0" encoding="UTF-8"?>
<svg xmlns="http://www.w3.org/2000/svg" xmlns:xlink="http://www.w3.org/1999/xlink" viewBox="0 0 192.23 107.91">
  <defs>
    <style>
      .cls-1, .cls-2 {
        fill: none;
      }

      .cls-3, .cls-4 {
        fill-rule: evenodd;
      }

      .cls-3, .cls-5 {
        fill: #fff;
      }

      .cls-2 {
        stroke: #de4484;
        stroke-width: .3px;
      }

      .cls-4 {
        fill: #231f20;
      }

      .cls-6 {
        fill: #de4484;
      }

      .cls-7 {
        isolation: isolate;
      }

      .cls-8 {
        mix-blend-mode: multiply;
      }

      .cls-9 {
        clip-path: url(#clippath-1);
      }

      .cls-10 {
        fill: #f5d7df;
      }

      .cls-5 {
        font-family: AvantGardeITCbyBT-Demi, 'AvantGarde Bk BT';
        font-size: 12px;
        font-weight: 300;
      }

      .cls-11 {
        clip-path: url(#clippath);
      }
    </style>
    <clipPath id="clippath">
      <rect class="cls-1" y="15.27" width="192.23" height="92.64"/>
    </clipPath>
    <clipPath id="clippath-1">
      <rect class="cls-1" x=".31" y="15.58" width="191.61" height="92.02"/>
    </clipPath>
  </defs>
  <g class="cls-7">
    <g id="Layer_2" data-name="Layer 2">
      <g id="Layer_1-2" data-name="Layer 1">
        <g>
          <g class="cls-8">
            <g class="cls-11">
              <g class="cls-9">
                <path class="cls-3" d="M-225.55-104.98H289.42c0,81.62,0,164.38,0,245.83,0,.36.06.77,0,1.13-.02.13.13.35-.21.28-165.45,0-332.36,0-498.09,0-5.3,0-10.66.15-15.97,0-.24,0-.71.12-.78-.14V-104.77c0-.1-.01-.2.07-.21M-34.96-23.81c1-.36,2.76-.99,3.18-1.7.34-.57.33-1.63.42-2.61.47-4.87.64-9.54.64-14.55,0-2-.09-4.12.07-6.01.08-.99.3-1.83.28-2.76-.02-.93-.15-1.8-.28-2.76-.23-1.69-.56-3.39-.85-5.16-.42-2.6-.84-5.36-1.27-7.91-.15-.87-.48-1.8-.49-2.61,0-.48.18-.95.14-1.41-.22-2.45-1.97-2.86-4.1-3.6-1.1-.38-2.24-.69-3.18-.99-25.44-8.02-51.21-15.65-77.35-22.89-2.17-.6-4.35-1.29-6.57-1.77-1.16-.25-2.51-.22-3.89-.28-3.93-.18-8.78-.25-12.64-.07-3.31.15-6.7.12-10.1.35-8.1.55-16.29,1.29-23.03,3.18-1.45.4-3.2.88-4.24,1.48-2.05,1.18-3.3,3.33-4.73,5.02-.07.82-.42,1.6-.71,2.4-.88,2.46-1.67,4.97-2.54,7.35-1.77-.36-3.39-.69-5.44-.92-1.73-.19-4.36-.46-5.79.35-.88.5-1.3,1.81-1.55,3.18-.5,2.72-.35,5.77.28,8.05.31,1.11.75,2.42,1.77,2.75.77.26,1.91.04,2.68-.14.89-.2,1.63-.57,1.84-1.13.19-.51.04-1.33,0-2.05-.13-2.09-.29-4.27-.28-6.15,1.7.35,3.32.78,5.01,1.13-2.74,9.46-5.32,19.28-6.99,30.3-.8,5.27-1.52,10.89-1.55,17.1-.01,2.87-.07,5.98.07,8.97.06,1.34.14,2.95.21,4.45.07,1.54-.06,3.2.28,4.45.29,1.07,2.01,3.49,2.97,3.74.62.16,1.6.06,2.47.07,2.45.03,5.17.1,7.42.21,3.51.17,6.9-.01,10.1.14,6.49.31,13.53.19,19.92.49,1.68.08,3.37.05,5.02.07,3.38.03,6.61.22,9.89.28,1.66.03,3.36.03,5.01.14.18.01.32.14.49.14,1.42,0,2.74-.02,4.1-.21,4.42-.62,8.88-1.59,13-2.33.44,2.2,1.63,3.65,3.32,4.59,3.34-.35,8,.69,10.03-.49,2.38-1.39,3.2-4.37,4.1-7.2,1.75.07,3.47-.39,5.16-.71,11.78-2.21,23.56-4.5,35.32-6.71.43,1.2,1.07,2.18,2.05,2.83h2.97c1.03,0,2.15.18,2.97-.07.93-.28,1.72-1.56,2.12-2.4.52-1.1.73-2.3,1.06-3.46.08.41-.2.76,0,1.06,4.05-1.07,7.47-1.88,11.23-3.25M135.5-96.86c-4.01.69-6.08,3.97-7.91,6.99-3.16,5.23-6.34,10.55-9.82,15.19-1.4,1.87-2.91,3.72-4.66,5.3-.86.78-1.8,1.56-2.9,2.05-1.13.51-2.5.85-3.89,1.13-5.32,1.06-11.69.9-17.1,2.9-1.99-.62-3.35-1.88-6-1.84-.05.39.47.64.78.85.8.54,1.34.85,2.19,1.41.28.19,1.06.6,1.06.78,0-.04-.29.42-.57.49-.31.09-.86-.05-1.06-.07-10.5-.84-21.35-1.6-31.51-2.33-9.74-.7-19.74-1.56-29.39-2.19-1.42-.09-2.87-.28-4.24-.28-1.68,0-3.3.48-4.59.92-.5.17-1.08.51-1.41.49-.27-.01-.87-.4-1.34-.64-3.1-1.53-6.45-3.27-9.25-4.59-3.68-1.73-7.24-3.61-10.67-5.23-7.35-3.47-14.33-6.97-21.26-10.46.41-1.03.88-2,1.2-3.11-.39-.07-.72.33-.99.57-.64.56-1.23,1.17-1.84,1.7-.21.18-.52.49-.71.57-.1.04-.38-.13-.35.14.72.91,1.5,2.37,2.47,3.25.15-.44.05-1.13.21-1.55,4.82,2.9,9.79,5.66,14.55,8.62-1.22.61-2.26,1.24-3.32,1.91-.37.23-.76.56-1.13.64-.5.1-.98-.03-1.41,0-.43.03-.89.13-1.27.21-2.5.53-4.19,1.5-5.09,3.67-1.44,3.48.41,6.87,2.9,7.84.33.13.73.11,1.13.21.37.09.7.29,1.06.35.82.14,1.73.13,2.54.07,3.35-.26,5.97-1.45,8.12-2.97,1.02-.72,2.89-1.89,2.68-3.67-.24-2.15-2.61-3.1-4.03-4.17.35-.83.84-1.51,1.62-1.91,6.46,3.78,12.94,7.55,19.36,11.37-1.45,1.09-2.79,2.29-4.17,3.46-.53-.12-.99-.19-1.48-.21-4.43-.22-7.1,1.26-8.12,4.31-.94,2.8,0,5.89,2.26,7.42.44.3.91.4,1.48.78.79,4.72,4.24,7.21,7.84,9.11,3.68,1.94,8.18,3.32,13.07,3.88,5.02.58,10.54.72,16.11.85,4.8.11,9.96.07,14.76.07.72,0,1.48-.14,2.12-.07.58.07,1.29.43,1.91.64,1.89.63,3.96,1.26,6.08,1.55,1.58.22,3.07.14,4.73.07,6.63-.29,13.59.12,19.99.35,1.67.06,3.39,0,4.95.21,1.5.2,3.02.63,4.52.92,4.67.9,9.45,1.73,13.85,2.68-.68.26-1.12.54-1.62.85-.51.31-.98.83-1.55.99-.54.15-1.11.08-1.62.14-.55.06-1.06.16-1.55.28-2.98.74-5.29,2.03-6.29,4.73-1.66,4.52,1.04,8.69,4.1,9.68.43.14.96.1,1.48.21.49.1.94.31,1.41.35,1.05.1,2.23.06,3.25-.07,3.91-.5,7.24-2.28,9.75-4.24,1.05-.81,2.91-2.33,3.04-3.96.18-2.32-2.17-3.8-3.53-4.59-.38-.22-.96-.44-.99-.78.1-.53.34-.98.71-1.34.31-.31.85-.73,1.27-.78.51-.06,1.52.27,2.33.42,11.59,2.19,23.81,4.61,34.97,6.78-.48.31-.95.49-1.41.78-.45.28-.84.72-1.34.85-.62.16-1.21.06-1.69.14-.52.08-1.02.2-1.48.35-.86.29-1.75.55-2.54,1.13-2.07,1.5-2.88,4.49-1.98,7.06.4,1.16,1.11,2.14,2.05,2.83.96.7,2.34.98,3.82,1.13,3.01.32,5.6-.58,7.84-1.77.9-.48,1.98-1.1,2.97-1.91.81-.66,1.94-1.63,2.19-2.76.44-1.99-1.44-3.33-2.54-4.03-.37-.24-.85-.36-1.13-.71.24-.8,1-1.73,1.84-1.84.44-.06,1.23.15,1.91.28,7.95,1.53,16.05,3.1,23.81,4.66,1.23.24,2.46.48,3.67.57.66.74,1.46,1.52,2.12,2.19.22.22.4.68.78.57-.19-1.71-.79-3.38-.57-5.02.14-1.04.43-1.93.35-2.9-.31.07-.44.47-.57.71-.44.87-.82,1.79-1.34,2.54-29.4-7.05-58.99-13.91-88.37-20.98,6.79-2.41,12.76-5.6,17.59-10.03.55-.5,1.49-1.75,2.12-1.84.51-.07,1.49.18,2.26.28,10.53,1.44,20.77,3.08,31.29,4.52.83.11,1.72.43,2.26.35.29-.04.58-.33.85-.49.28-.17.64-.28.78-.64-11.49-2.62-23.08-5.13-34.68-7.63.43-.84,1.05-1.71.92-2.76-.12-.95-1.14-1.71-1.91-2.33-.88-.7-1.96-1.18-2.47-1.84,2.02-7.36,5.01-14.02,7.84-20.63,2.85-6.64,5.74-13.17,8.55-19.92-.83-.44-2.18-.42-2.97-.28M220.55-4.53c.82.08,1.57.35,2.33.28.84-.07,2.06-.55,2.12-.99-.7.34-1.38.75-2.4.78-.77.02-1.56-.31-2.33-.35-.63-.03-1.41.19-2.12.28-.33.04-.85.13-1.13.07-.55-.12-.37-.28-.57-.56,1.01-.23,1.55-.84,2.26-1.27.46-.28.97-.5,1.48-.71,1.35-.55,2.74-1.17,4.59-1.13-.22.05-.26-.07-.42-.07.91-.62,1.77-1.34,2.54-2.12,2.36-2.36,5.12-4.25,7.35-6.71.26.71,1.4,1.24,1.55,1.98.05.24-.06.72-.07,1.06-.03,1.24.02,2.26,0,3.46-2.38,1.88-5.17,3.56-7.98,4.87-.42.19-.88.29-1.2.64,1.79-.58,3.42-1.39,4.94-2.26,1.53-.88,2.8-2.07,4.24-2.83.03,4.27.4,8.18.99,11.8.08.46.29.9.28,1.27-.02.66-.47,1.24-.57,1.84.63-.03.9-.42,1.41-.57-.01.37-.45.51-.28.85,1.03-.28,1.56-1.07,2.4-1.55-3.64,8.27-7.25,17.35-10.74,26.07-.52,1.3-1.11,2.68-1.27,4.03-.2,1.72-.28,3.39-.49,5.01-1.06,8.04-2.82,15.76-4.17,23.45-.28,1.58-.39,3.27-.92,4.59-.62,1.55-1.73,3.01-2.26,4.73-1.3.76-3.11,1.43-4.59,1.98-.55.2-1.18.49-1.7.57-1.09.15-2.28-.2-3.32-.35-1.1-.16-2.13-.36-3.18-.42.93.44,2.06.54,3.18.71,1.13.17,2.41.46,3.6.28.47-.07,1.03-.38,1.55-.57,1.62-.58,3.39-1.21,4.59-1.98,2.76,2,7.06,3.94,11.16,3.46-.34,1.57,0,3.81-.71,5.02-4-.94-8.59-1.63-13-1.84-.68-.03-1.37.05-1.98-.07-.77-.15-1.62-.57-2.4-.85-1.7-.61-3.15-1.25-4.59-1.91-.79-.36-1.61-.59-2.19-1.13.05-.32.13-.51.28-.78.11-.19.53-.4.28-.49-.35.28-.68.59-.71,1.2-.36-.04-.58.76-.35.85.13-.18.13-.49.28-.64,2.01,1.26,4.69,2.38,7.21,3.25.89.31,1.84.68,2.75.78,2.07.21,4.01.08,5.79.35,2,.31,3.93.57,5.79.92.93.17,1.9.25,2.76.64-.21.55-.24,1.26-.42,1.84-2.61-.38-5.08-.91-7.56-1.41-.04-.37.06-.89,0-1.06-1.79,0-3.37-.05-4.95-.14-1.84-.1-3.1-.44-4.52-.92-2.58-.87-4.93-2.16-6.99-3.39,1.03,1.15,2.69,1.8,4.31,2.54.77.36,1.58.67,2.47.99.84.3,1.79.69,2.68.85,2.11.38,4.31.14,6.78.28.06.43-.1.8,0,1.06,2.62.47,5.01,1.16,7.91,1.34.18-.59.36-1.2.42-1.91.89-1.16.66-3.44.78-5.37.15.03.28-.19.35-.42-.1-2.31.63-3.62,1.2-5.58,2.79-9.59,4.74-19.58,6.57-30.09.08-.44.11-.97.21-1.2.12-.26.6-.39.64-.78.03-.37-.32-.41-.35-.78.32-.11.31-.47.42-.71.13-.27.27-.51.42-.78,1.97-3.5,4.25-6.66,6.36-9.96,1.4,5.78,3.41,10.95,5.44,16.11.86.64,1.45,1.48,2.12,2.33.39.5.88,1.03,1.13,1.48.49.88.79,1.96,1.2,2.97,2.46,6.1,4.71,12.14,7.14,18.3.68,1.72,1.44,3.05,1.06,5.23-.99,1.36-2.36,2.5-3.6,3.6-.42.37-.8.86-1.27,1.13-.88.51-2.02.65-3.11.92-1.04.25-2.15.5-3.25.78,1.2.14,2.33-.31,3.39-.57,1.09-.26,2.31-.41,3.18-.92.43-.25.87-.76,1.27-1.13.88-.81,1.71-1.52,2.47-2.33.41-.43.75-.91,1.2-1.27,1.78.38,3.86.66,5.86.57,2.26-.1,4.21-.86,5.72-1.55.33,1.72,1.17,2.93,1.27,4.87-3.93.74-7.87,1.48-11.3,2.68-1.17.41-2.32,1.02-3.46,1.2-.82.13-1.82.1-2.83.14-2.56.11-4.86-.02-6.99-.28-.24-.53-.05-1.02.14-1.48-.38.17-.53.92-.35,1.41-.33.09-.26.88,0,.99.04-.24-.09-.66.07-.78,2.96.47,6.36.58,9.4.28,1.05-.1,2.04-.47,2.9-.78.54-.19,1.08-.44,1.62-.64,3.33-1.21,7.22-1.85,10.81-2.47-.03.76.21,1.25.28,1.91-2.42.61-5.06,1.02-7.56,1.55-.16-.31-.14-.8-.42-.99-1.45.56-3.23,1.22-4.73,1.69-.59.19-1.16.46-1.62.57-.97.22-2.27.24-3.39.28-1.68.07-3.08-.11-4.52-.21-.96-.07-1.83-.24-2.68-.28,1.39.52,3.09.63,4.8.71,1.03.05,2.14.05,3.18,0,3.54-.18,6.35-1.55,8.9-2.54.14.31.21.68.35.99,2.35-.39,4.98-.87,6.99-1.41.29-.08.7-.02.85-.35.12-.67-.31-1.31-.28-1.98.01-.25.16-.45.14-.71-.04-.74-.4-1.55-.64-2.26-.24-.74-.53-1.46-.78-2.12-.01-.2.24-.14.14-.42-.47-1.33-.49-2.66-.99-3.89-.46-1.13-1.41-1.96-1.91-2.97-.46-.93-.68-2.11-1.06-3.18-2.24-6.35-4.84-12.19-7.13-18.44-.48-1.32-.95-2.93-1.77-3.74-.12-.35-.21-.74-.35-1.06-.04-.24-.44-.12-.49-.35-2.61-6.26-4.45-14.49-4.45-23.17,0-1.69.16-3.19.92-4.24.35.16.51.52.99.57-.2-8.93.6-17.25,1.98-24.72.3-1.66.57-3.34.99-4.95.13.14.33.04.49,0,1.55,5.73,1.61,12.95,1.55,20.28-1,1.75-.91,5.2-.35,7.35.25.96.29,2.01.49,2.54.32.83,1.49,1.36,2.05.42-.29-.9-.66-2.17-.42-3.39.28,1.3.19,4.15,1.91,3.11.18-.98-.15-2.37,0-3.32.07.49.29.84.42,1.27-.5.59-.06,1.44.42,1.48.88.08,1-1.05.92-2.12.44.57,1.4.13,1.62-.35.05-1.17-.22-1.81-.35-2.76-.38-2.71-.7-5.39-2.61-6.22.89-5.85,1.84-12,1.55-18.79.15-.18.56-.1.57-.42-.06-1.7-.2-3.33-.49-4.8-.09-.17-.56.04-.64-.14-1.77-5.33-4.39-10.65-6.85-15.54-.83-1.65-1.6-3.47-2.9-4.59-.65-.56-1.48-1.03-2.26-1.48-2.46-1.42-5-2.56-7.77-3.67-.05-1.15-.6-1.8-.99-2.61-.18-.26-.34.26-.42.07-.2-1.73.28-2.99.78-4.24.28-.71.53-1.44.85-2.05.1-.2.33-.35.42-.57.2-.45.34-1.17.49-1.77.16-.64.36-1.41.35-1.98,0-.52-.22-1.09-.28-1.7-.07-.72.04-1.43.07-2.26-.03-.2-.3.29-.35.07-.16-.55-.52-.9-.64-1.48-1.01-.69-2.26-1.74-3.46-2.47-.46-.28-.88-.63-1.27-.78-.2-.08-.76-.18-.85-.07.1.08.29.09.35.21-1.49-.35-3.23-.45-5.02-.49-.1.33.32.15.35.35-.93.49-2.41.21-3.46.64-.6.24-1.06,1.07-2.05.85-.07.26.26.48.14.57-.65.08-1.39-.1-1.7-.14.4.58.55,1.41.92,2.05.22.39.67.6.71.99-.23.66-.42,1.43-.64,2.26-.26,1-.82,2.31-.28,3.11-.16.7-1.69,1.71-1.77,2.4-.08.79.57,1.34,1.62,1.34-.04.66-.17,1.24-.07,1.84.09.55.5.95.42,1.62-.04.35-.31.62-.35.99-.05.42.01.69.21,1.13.49-.02.86.26,1.27.35.5.12,1.01.03,1.48.14,1.87.46,1.96,2.47,2.68,4.1-.47.64-.99,1.23-1.41,1.91.18.45,0,1.49.07,1.84.38.15.7-.7,1.06-.57,0,.76-.38,1.49-.64,2.19-.14.38-.23.73-.35,1.13-.11.35-.38.65-.49.99-.24.73-.3,1.61-.49,2.4-1.32,5.55-2.4,11.58-2.83,17.94-.8,1.09-1.87,1.9-2.47,3.18.85-.84,1.66-2.08,2.4-2.76-.07,1.72-.27,3.31-.28,5.09-.67-.72-1.23-1.55-1.91-2.26-.05.31.2.31.21.57-2.18,2.42-5.09,4.32-7.49,6.71-.64.64-1.74,1.98-2.61,2.19-.43.1-.85,0-1.2.07-.36.07-.64.23-.99.35-.67.24-1.33.42-1.98.71-1.2.53-2.07,1.47-3.46,1.91-.22.65-1.19,1.13-1.2,1.91,0,.29.12.49.28.78-.21.1-.12.49-.14.78.29.46.68.83,1.2,1.06,0,.72.4,1.02.78,1.34,1.11.14,1.62-.32,2.05-.85.15-.43-.27-.67-.14-.85.29-.24.36-.43.71-.14-.11.75-1.09,1.47-.49,2.26,1.09.18,2.39-.36,2.12-1.55,1.7-1.36,5.09-1.41,4.8-4.52-.09,1.17-.62,1.95-1.41,2.54-.47.35-1.19.59-1.84.85-.45.18-.86.46-1.27.71-.63.38-.2.09-.85.07-.3,0-.33.09-.49.14-.95-1.08-1.91-2.14-2.76-3.32.18.5-.16.56-.42.78-.39-.16-.52-.57-.92-.71.18.81,1.24.74,1.2,1.77-.73.62-2.19-.22-2.19-1.13,0-.55.45-.95.92-1.27.94.8,2.64-.09,4.24.07M-56.01,88.79c.12-1.45.25-2.91.35-4.38.21-3.05.11-6.14.14-9.18.03-3.08.02-6.01-.35-8.9-1.1-8.43-2.95-16.1-4.8-23.52-1.27-5.07-2.7-9.96-4.45-14.48-.84-2.17-1.94-4.3-3.11-6.29-1.18-2.02-2.58-3.85-4.17-5.3-3.26-2.97-7.83-4.86-12.5-6.36-9.21-2.96-20.61-5.39-33.13-4.8-4.39.2-9,.43-13.42.99-3.07.39-6.34,1.04-9.18,1.62-1.05.22-2.18.31-3.04.64-.98.36-1.95,1.09-2.97,1.62-1.01.53-2.05,1.03-3.04,1.55-13.56,7.19-27.17,14.26-40.55,21.47-.51.28-1.14.48-1.55.78-.28.2-.44.52-.71.71-.49.34-1.14.56-1.7.85-3.98,2.07-7.9,4.27-11.8,6.29-.39,1.94-.07,4.59-.42,6.57,5.36,3.67,10.64,7.45,16.04,11.09,5.4,3.65,10.76,7.39,16.18,11.02,5.41,3.62,10.75,7.37,16.18,10.95,5.45,3.6,10.75,7.4,16.18,11.02,3.37,2.25,6.77,4.73,10.1,6.85,2.09,1.33,4.05,2.73,6.07,4.1,15.87,10.71,31.73,21.62,47.47,32.35.3.21.61.64,1.06.57-.48-.54-1.11-.87-1.7-1.27-8.19-5.62-16.47-11.4-24.65-16.88-.56-.37-1.14-.79-1.62-1.27.74-.07,1.54-.09,2.4-.14.73-.04,1.83-.27,2.47-.14.31.06.72.44,1.13.71,1.12.72,2.48,1.63,3.46,2.26,4,2.56,7.69,5.01,11.52,7.49.78.51,1.51,1.12,2.4,1.41-.61-.62-1.4-1.09-2.12-1.55-4.53-2.94-9.23-5.89-13.63-8.83-.74-.49-1.53-.95-2.19-1.55,1.19-.25,1.96.6,2.76,1.13s1.64,1.05,2.4,1.55c4.01,2.63,8,5.26,11.94,7.84.79.52,1.59,1.1,2.47,1.48-.16-.42-.65-.63-.99-.85-5.29-3.45-10.72-7.09-15.97-10.46-.35-.22-.76-.42-.99-.78,1.48-.09,2.97-.18,4.45-.28,5.37,3.26,10.88,6.73,16.18,9.96.33.2.71.51,1.13.49-.56-.61-1.34-.91-2.05-1.34-4.53-2.78-9.23-5.68-13.71-8.41-.32-.19-.68-.42-.92-.71,1.15-.16,2.29-.15,3.39-.21,1.03-.05,1.34-.06,1.84.49.2.23.22.42.35.57.3.32,2.21-.13,2.9-.21,2.06-.24,3.57-.35,5.51-.57.93-.1,2.01-.43,2.83-.28.32.06.7.41,1.13.64,5.26,2.79,10.22,5.32,15.33,7.98.77.4,1.53.95,2.4,1.2.13-.25-.27-.3-.35-.35-.19-.12-.38-.26-.56-.35-2.76-1.45-5.44-2.82-8.19-4.24-2.72-1.4-5.5-2.95-8.12-4.31-.38-.2-.86-.34-1.13-.71,1.05-.22,1.92.41,2.76.85,2.47,1.3,4.95,2.6,7.42,3.89,3.3,1.72,6.47,3.57,9.89,5.16-.12-.48-.7-.52-1.06-.71-5.38-2.89-11.02-5.86-16.39-8.69-.35-.19-.81-.3-1.06-.64.93-.13,1.93-.19,2.83-.35.18-.48.12-1.2.28-1.7,6.38,3.2,12.49,6.68,18.93,9.82-.14-.47-.7-.52-1.06-.71-4.4-2.3-8.79-4.63-13.14-6.92-1.6-.85-3.21-1.66-4.73-2.61.1-.91.22-1.8.28-2.75.87-.59,1.73-1.14,2.54-1.77.84-.65,1.57-1.41,2.47-1.91,7.95,3.7,15.87,7.71,23.74,11.37,1.15.54,2.27,1.12,3.46,1.55.04-.31-.39-.4-.57-.49-.27-.14-.59-.3-.85-.42-8.56-4.13-17.22-8.12-25.64-12.22,3.77-3.74,6.89-8.13,8.9-13.63,7.98,3.08,16.09,6.15,24.02,9.25.86.33,1.74.78,2.54,1.06.22.08.62.31.85.07-9.02-3.67-18.33-7.05-27.34-10.74.42-1.31.46-2.73.56-4.1M185.09,81.44c1.29-.88,2.01-2.83,2.61-4.8.55-1.79.61-3.88.71-5.86.1-2.06.21-4.18.21-6.29s.24-4.44,0-6.57c-.11-1-.61-1.75-.71-2.83-.39-4.18-.75-8.31-3.67-9.68-.33-.99-.97-1.61-1.62-2.33-.54-.59-1.28-1.65-2.05-1.91-.5-.17-1.25-.23-1.91-.28-.59-.05-1.31.08-1.91-.07-.35-.08-1.06-.82-1.48-1.2-5.38-4.89-10.61-9.4-16.88-13.28-2.33-1.44-4.77-2.88-7.35-3.67-5.56-1.71-12.12-2.47-19-2.97-8.64-.62-17.91-.52-26.92-.42-8.6.09-17.39.82-25.36,1.48-3.23.27-6.15.95-8.97,1.84-5.35,1.67-10.2,4.02-14.41,7.13-3.67,2.71-7.12,5.33-10.74,8.05-.56.42-1.24,1.04-1.62,1.13-.95.22-1.82.01-2.54.14-2.34.42-4.68,1.77-5.16,4.03-.12.56.04,1.96-.14,2.19-.11.13-.67.23-1.13.35-5.92,1.6-11.81,3.49-16.67,5.93-1.31.66-2.66,1.28-3.82,2.19-.28.22-.5.49-.78.71-.28.22-.6.43-.92.64-2.4,1.54-4.32,3.76-5.93,6.15-.44.64-.93,1.33-1.13,1.91-.3.84-.39,1.86-.57,2.76-.56,2.78-1.06,5.61-1.48,8.48-.29,1.96-.57,3.99-.56,6.08,0,1.52.28,3.12.42,4.59.05.52.2,1.13.14,1.56-.11.79-.75.75-.71,1.77.03.7.51,1.51.85,2.12.33.61.98,1.1,1.2,1.77.19.59-.05,1.16.35,1.84.84.38,2.11.34,3.18.49.93,2.96,2.41,4.87,4.59,6.22,2.38,1.47,5.23,1.74,8.97,1.84,6.05.16,11.76-1.25,14.2-4.66.39-.54.7-1.55,1.06-1.7.55-.22,1.95.07,2.9.07,1.08,0,2.08.05,2.9.07,10.04.24,19.51.21,29.46.21,3.95,0,7.95-.08,11.87-.07,1.42,2.8,2.87,6.16,6.01,7.21,4.41,1.47,11.41,1.04,15.61-.14,4.68-1.31,7.1-4.99,8.19-9.32,3.95-.12,7.89-.53,11.8-.92,11.75-1.16,23.46-2.35,35.04-3.67.61,1.24,1.16,2.5,1.84,3.67.6,1.04,1.48,2.43,2.33,3.18,1.79,1.57,5.91,1.42,8.76,1.06,2.84-.36,4.87-1.05,6.29-2.54,1.54-1.63,2.3-3.79,2.9-5.93.66-2.34,1.14-4.95,1.27-7.63-.05-.34.35.25.49-.07"/>
                <path class="cls-4" d="M184.59,81.51c-.13,2.68-.62,5.29-1.27,7.63-.6,2.15-1.35,4.31-2.9,5.93-1.42,1.49-3.45,2.19-6.29,2.54-2.85.35-6.97.51-8.76-1.06-.85-.75-1.73-2.14-2.33-3.18-.68-1.17-1.23-2.43-1.84-3.67-11.58,1.32-23.29,2.51-35.04,3.67-3.91.39-7.85.8-11.8.92-1.1,4.33-3.52,8.01-8.2,9.32-4.2,1.18-11.2,1.61-15.61.14-3.14-1.05-4.58-4.41-6-7.21-3.92,0-7.92.07-11.87.07-9.94,0-19.42.03-29.46-.21-.81-.02-1.82-.07-2.9-.07-.94,0-2.34-.29-2.9-.07-.36.14-.67,1.15-1.06,1.7-2.44,3.42-8.15,4.83-14.2,4.66-3.74-.1-6.59-.36-8.97-1.84-2.18-1.35-3.67-3.25-4.59-6.22-1.07-.15-2.34-.11-3.18-.49-.4-.68-.16-1.25-.35-1.84-.22-.67-.87-1.16-1.2-1.77-.33-.61-.82-1.42-.85-2.12-.04-1.01.6-.97.71-1.77.06-.42-.09-1.04-.14-1.55-.15-1.47-.42-3.08-.42-4.59,0-2.08.28-4.12.57-6.07.42-2.87.93-5.7,1.48-8.48.18-.9.27-1.92.57-2.76.2-.58.7-1.27,1.13-1.91,1.62-2.39,3.53-4.6,5.93-6.15.32-.21.64-.42.92-.64.28-.21.5-.49.78-.71,1.16-.92,2.5-1.53,3.82-2.19,4.86-2.45,10.75-4.34,16.67-5.93.46-.12,1.02-.22,1.13-.35.18-.23.02-1.63.14-2.19.48-2.26,2.82-3.6,5.16-4.03.73-.13,1.59.08,2.54-.14.39-.09,1.06-.71,1.62-1.13,3.62-2.72,7.07-5.34,10.74-8.05,4.22-3.12,9.06-5.46,14.41-7.13,2.82-.88,5.74-1.57,8.97-1.84,7.97-.66,16.76-1.39,25.36-1.48,9-.09,18.28-.2,26.91.42,6.88.49,13.45,1.26,19,2.97,2.57.79,5.01,2.23,7.35,3.67,6.27,3.88,11.51,8.39,16.88,13.28.42.38,1.14,1.12,1.48,1.2.6.15,1.32.02,1.91.07.66.06,1.41.11,1.91.28.77.26,1.51,1.31,2.05,1.91.65.72,1.3,1.34,1.62,2.33,2.93,1.37,3.28,5.5,3.67,9.68.1,1.07.6,1.83.71,2.83.24,2.13,0,4.4,0,6.57s-.11,4.22-.21,6.29c-.09,1.98-.16,4.07-.71,5.86-.6,1.97-1.33,3.92-2.61,4.8-.14.32-.54-.27-.49.07M103.14,19.63c-5.66.26-11.24.47-16.6.85-3.64.26-7.23.37-10.53,1.06-3.21.67-6.21,1.49-8.97,2.68,4.36-.45,8.88-.42,13.49-.42,9.18,0,18.32.11,27.41.42,3.62.12,8.02.26,11.73.42.6.03,1.38.14,1.7.07.31-.07.69-.57,1.06-.92.75-.71,1.21-.96,2.19-1.34,2.65-1.04,5.66-1.93,8.76-2.33-9.5-.78-20.31-.96-30.23-.49M182.26,43.15c-.56-.63-1.18-1.54-1.84-1.77-.57-.2-1.27-.16-1.91-.21-.65-.05-1.3-.12-2.05-.14-5.3-4.86-10.93-9.88-17.52-14.06-3.12-1.98-6.57-3.93-10.95-4.87-2.09-.45-4.41-.83-6.78-1.13-2.37-.3-4.83-.8-7.28-.64-2.78.19-5.75,1.07-8.05,1.91-.83.3-1.7.58-2.33.92-.77.42-1.63,1.45-2.33,2.26-.77.89-1.5,1.82-2.05,2.61-3.21,4.63-5.71,9.79-8.12,14.98-.5,1.07-1.03,2.12-1.27,3.25-.93.2-1.79.47-2.68.71.26,1.72-.32,3.34-1.55,4.03-.74.41-1.63.64-2.47.92-.86.29-1.77.56-2.61.85-1.85.62-4.14,1.16-5.79,1.91-.58.26-1.07.52-1.55.78-4.89,2.58-7.99,6.74-9.68,12.57,4.28-.01,7.49,1.64,10.88,2.76,1.34-3.2,3.59-6.44,6.43-8.41.95-.66,2.24-1.42,3.32-1.62,1.39-.26,2.89-.03,4.1.28,1.21.31,2.22.85,3.11,1.41.32-1.93,1.76-2.88,3.25-3.67,1.18-.62,2.54-1.11,3.82-1.48-.26-1.27-.57-2.57-.85-3.89-.27-1.29-.43-2.66-.92-3.81-1.15.24-3.51.56-3.67-.64-.04-.27.31-1.07.49-1.55,2.61-6.66,5.54-12.85,9.11-18.37.56-.87,1.04-1.85,1.7-2.54,1.56-1.65,4.63-2.89,7.56-3.53,1.49-.32,3.16-.52,4.88-.63,1.82-.12,3.7-.28,5.37-.07,1.73.22,3.55.76,5.23,1.27,5.06,1.54,9.47,3.78,13.42,6.29,4.41,2.8,8.85,6.61,12.29,10.67.44.51,1.44,1.59,1.34,1.98-.14.57-2.08.55-2.83.64-1.22.13-2.15.18-3.11.35.18.72.62,1.44,1.06,2.33.26.53.82,2.04,1.41,2.19.29.07,1.09-.14,1.62-.21,3.78-.51,8.08-.93,11.52-1.34.19-1.57-.88-2.33-1.7-3.25M173.43,41.46c-1.74-2.13-3.63-4.06-5.65-5.86-5.74-5.12-12.61-9.5-20.98-11.94-1.75-.51-3.7-1.09-5.44-1.2-1.38-.09-3.08.02-4.03.07-5.48.32-11.14,1.56-13.56,5.02-3.24,4.63-5.66,9.81-8.12,15.19.21.6.35,1.25.57,1.84.68-1.52,1.27-3.08,1.98-4.59,1.73-3.68,3.64-7.34,5.79-10.6.43-.66.92-1.4,1.41-1.91.8-.82,2.03-1.44,3.25-1.98,2.52-1.12,5.28-1.8,8.62-1.98,1.66-.09,3.51-.22,5.16,0,1.64.21,3.31.73,4.87,1.2,1.58.48,3.08,1.04,4.52,1.62,8.29,3.38,15.03,8.56,20.34,14.76.2.23.63.47.57.85-1.14.18-2.4.19-3.67.35-.37.05-.96.04-.85.57.09.42.65.21,1.2.14.5-.06,1.14-.09,1.55-.14,1.1-.13,2.15-.2,2.97-.42.06-.38-.29-.74-.49-.99M164.88,34.47c-4.27-3.64-10.06-6.96-16.25-9.04-3.14-1.05-7.03-2.15-11.37-1.62.09.4.3.78.49,1.13,3.15,5.68,5.72,12.11,6.78,19.78,7.18-.82,14.48-1.53,21.69-2.33-.39-2.7-.94-5.23-1.34-7.91M127.65,26.27c-1.34.74-2.18,1.46-2.97,2.61-1.48,2.19-2.64,4.22-3.88,6.64-.45.89-1.3,1.97-1.41,2.83-.1.82.12,1.72.21,2.47.09.76.16,1.54.5,2.19.65-2,1.9-4.09,4.59-4.1,3.29,0,7.75,1.09,10.03,2.76,1.05.77,1.92,2.19,1.62,3.89,2.64-.28,5.32-.52,7.91-.85-.91-7.2-3.49-13.2-6.15-18.58-.39-.8-.78-1.64-1.34-2.26-3.44.18-6.71,1.07-9.11,2.4M99.4,24.29c-9.18-.14-18.93-.55-28.04-.14-.9.04-1.86.15-2.76.21-.93.06-1.87.04-2.68.28-.7.2-1.41.66-2.12.99-2.15,1.01-4.18,2.12-5.93,3.39-7.55,5.47-14.24,10.45-21.26,16.25-.11,0-.23.19,0,.14,24.02-.97,49.01.01,72.83.57,2.93-6.55,6.06-13.3,10.03-18.79.45-.62,1-1.16,1.41-1.7.09-.12.49-.54.21-.57-7.2-.22-14.41-.52-21.69-.64M166.51,42.31h.71c-.2-1.52-.72-3.67-1.06-5.3-.22-1.06-.18-2.02-.92-2.26.39,2.55.89,4.99,1.27,7.56M167.57,42.24c1.57-.17,3.16-.32,4.73-.49-1.82-2.3-3.89-4.35-6.15-6.22.48,2.23.93,4.48,1.41,6.71M116.28,45.06c.34,1.29.41,2.84.64,4.24,2.69-.35,5.48-.6,8.12-.99-.72-.13-1.44-.41-2.26-.71-.77-.28-1.49-.84-2.12-.92-1.19-.16-1.27.73-2.05.78.51-.6,1-1.21,2.12-1.06.57.08,1.27.64,1.98.92,3.24,1.28,9.01,2.4,11.94.28.71-.51,1.49-1.46,1.48-2.76,0-1.28-.74-2.3-1.48-2.9-1.08-.86-2.78-1.48-4.66-1.98-1.91-.51-4.19-.97-5.93-.78-2.39.26-3.08,2.4-3.89,4.38-.29.16-.64.35-1.06.49-.37.13-.87.4-1.2.14.54-.35,1.52-.27,1.91-.78-.43-1.33-.47-3.06-.78-4.52-.94,2.02-1.85,4.09-2.75,6.15M37.37,41.46c-.68.76-1.05,1.98-.85,3.39,1.27-.85,2.42-1.88,3.6-2.83,1.19-.96,2.43-1.85,3.6-2.83-2.74-.06-5.06.81-6.36,2.26M144.61,44.92c-.03.13-.04.76.07.99,7.84-.85,15.54-1.84,23.31-2.76-.06-.23-.05-.52-.14-.71-7.7.87-15.47,1.68-23.24,2.47M113.17,48.95c.55,1.02,2.15.44,3.39.42-.07-1.34-.21-2.61-.49-3.74-.4.88-.72,1.91-1.06,2.76-.1.24-.2.74-.56.71.44-1.4.98-2.69,1.55-3.96-.17-.65-.25-1.39-.56-1.91-.75,1.91-1.6,3.72-2.26,5.72M144.82,46.19c.77,1.73,1.74,3.25,2.4,5.09,7.58-1.2,15.27-2.3,23.1-3.25-.85-1.46-1.66-2.96-2.33-4.59h-.14c-7.67.92-15.35,1.84-23.03,2.76M136.27,45.84c-.07.26-.22.44-.28.71-.06.13-.52.46-.21.49,2.86-.39,5.89-.61,8.62-1.13-.22-.18.12-.92-.28-.92-2.58.31-5.26.54-7.84.85M56.45,45.27c-4.98,0-9.54-.01-14.34.14-1.07.03-2.12.1-3.18.14-1.09.04-2.22-.02-3.18.14-.98.17-2.03.6-3.11.92-3.21.94-6.33,1.91-9.26,3.04-2.68,1.03-5.93,2.36-8.26,4.03-.82.58-1.79,1.44-1.62,2.33.27,1.46,3.25,1.2,5.44,1.2s4.56.07,6.64.07c4.19,0,8.94-.01,13.28.14,4.15.14,8.63.12,12.93.42,4.17.29,8.66.86,12.64.21.88-.15,1.72-.45,2.61-.71.87-.25,1.81-.4,2.68-.64,12.26-3.28,24.92-6.71,37.02-9.96.05-.42.24-.03.49-.07.39-.2.95-.23,1.34-.42-17.19-.55-34.51-.99-52.13-.99M184.24,45.98c-.02,1.24.32,1.99.71,2.9.88,2.05,1.8,4.06,2.68,6.01-.34-3.83-.69-7.65-3.39-9.11v.21ZM145.03,47.39c-.31-.58-.39-1.05-.85-1.13-.12-.02-.17.05-.28.07-2.54.36-5.64.64-8.55.99-1.59,1.49-3.93,1.97-6.92,1.62-.89-.1-1.78-.4-2.61-.42-.73-.02-1.45.2-2.19.28-2.29.27-4.57.43-6.64.78.55,2.54,1.08,5.09,1.62,7.63,8.8-2.58,18.46-4.29,28.26-5.86-.21-1.1-1.23-2.79-1.84-3.96M185.37,80.88c.46-.41.72-.98.99-1.55.33-.71.71-1.57.99-2.4.57-1.72.65-3.89.78-6.01.18-3.06.26-6.69.21-9.96-.02-1.14.06-2.38-.07-3.32-.06-.43-.31-.93-.49-1.41-1.18-3.12-2.62-5.77-3.67-8.97-.14-.41-.04-.48-.42-.57-.29-.06-1.09.16-1.62.21-3.9.41-7.66.84-11.3,1.34-.41,10.54-1.68,20.67-4.88,28.33-.1.25-.3.55-.35.78-.1.41-.02.87-.07,1.2-.3,2.1-1.3,3.68-2.61,4.73-.17.14-.79.57-.57.57,1.09-.11,2.16-.24,3.18-.42.6-4.4,1.47-8.98,2.76-13.21,1.19-3.91,2.89-8.12,5.44-10.53,1.1-1.04,2.66-2.1,4.59-2.19,1.5-.07,2.66.62,3.46,1.34,1.34,1.2,2.21,3.12,2.97,5.3.74,2.14,1.4,4.63,1.55,6.78.27,3.8-.82,6.9-1.2,10.1.12.34.33-.12.35-.14M100.67,48.66c-9.93,2.64-19.44,5.2-29.39,7.84-1.97.52-3.85,1.18-5.79,1.62-3.79.86-8.45.33-12.36.07-1.83-.12-3.7-.21-5.58-.28-9.56-.38-18.89-.37-28.68-.42-2.66-.02-6.41.35-5.58-2.33-1.77,1.1-3.5,2.25-3.6,5.02,1.22,1.18,3.4,1.32,5.44,1.55,6.4.73,13.22,1.09,19.85,1.34,4.6.17,9.27-.05,13.85-.21,6.79-.23,13.53-.66,19.78-1.34,2.08-.23,3.96-.68,5.86-1.2,3.71-1.01,7.24-2.09,10.95-3.18,5.22-1.53,10.94-3.3,16.18-5.02,1.71-.56,4.11-1.14,4.8-2.26.42-.68.61-1.8.35-2.83-1.92.58-3.98,1.07-6.07,1.62M147.36,51.49c.58,4.96.42,10.43.42,15.82,0,5.42-.21,10.82-.57,15.75,6.08-.89,12.33-1.61,17.66-3.25.28-.66.11-1.43.28-2.33.09-.46.43-.98.64-1.48,2.27-5.62,3.46-12.55,4.17-19.64.23-2.28.49-4.8.42-7.13,0-.33.16-.93-.21-.92-7.75.92-15.27,2.06-22.82,3.18M132.32,54.17c-4.44.92-8.82,1.82-12.86,3.04-.24.07-.59.14-.78.35.72,4.4.71,9.5.71,14.55s-.17,10.15-.78,14.55c9.54-1.05,18.98-2.21,28.26-3.53.42-4.86.64-10.23.64-15.61,0-5.4.14-10.86-.42-15.82,0-.04-.01-.08-.07-.07-4.7.69-9.9,1.55-14.69,2.54M77.99,59.61c-2.38.68-5.03,1.61-7.7,1.98-2.08.29-4.4.46-6.64.64-.8.06-1.74.01-2.26.21-.27.11-.75.73-1.06,1.13-2.38,3.12-4.33,6.14-5.65,10.03,5.09-.41,10.24-1.11,15.12-1.91,4.89-.8,9.66-1.59,13.35-3.67,1.62-5.89,4.86-10.16,9.75-12.79.01-.09.29-.13,0-.14-4.91,1.56-9.54,2.98-14.91,4.52M112.32,60.67c-.34.4-.88,1.28-.78,1.84.06.34.59.64.99,1.06,4.9,5.18,5.59,15.88,4.73,25.36h.99c.05-2.39.41-4.94.57-7.56.47-7.79.48-16.53-.42-23.81h-.14c-2.02.68-4.64,1.61-5.93,3.11M184.8,80.59c.35-1.9.67-3.77.92-5.72.59-4.63-.52-9.33-2.05-12.64-.99-2.16-2.66-4.73-5.72-4.45-2.47.23-4.45,2.18-5.72,4.03-1.33,1.91-2.35,4.27-3.11,6.43-1.27,3.61-2.09,7.42-2.83,11.37-.25,1.36-.29,2.79-.71,4.1-8.01,1.04-16.01,2.1-24.09,3.04-7.05.82-14.25,1.76-21.4,2.33-1.03.08-2.13.29-3.18,0,.75-6.32.42-13.76-1.2-19-.77-2.48-1.88-4.99-3.82-6.64-.11-.09-.16-.28-.28-.35-.07-.04-.21.03-.28,0-.1-.04-.07-.15-.14-.21-.12-.1-.16-.26-.28-.35-1.23-.86-2.64-1.3-4.45-1.48-1.76-.18-3.02.11-4.17.71-3.72,1.93-6.1,5.41-7.7,9.25.41.3.67.74,1.2.92.86-1.98,2.2-3.83,3.82-5.37,1.57-1.49,3.6-2.84,6.14-3.04,1.47-.11,3.11.11,4.03.57,1.94.97,3.27,2.91,4.24,5.16,2.33,5.42,2.4,14.28,1.27,20.98-.23,1.37-.59,2.63-.78,3.81,2,.07,4.01-.23,6-.42,12.12-1.16,24.05-2.37,35.82-3.6,3.49-.37,7.02-.51,9.47-1.84.92-4.92,1.88-10.12,3.18-15.12,1.31-5.06,2.53-9.58,6.36-12.01,1.2-.77,2.93-1.12,4.45-.49,1.47.6,2.6,1.91,3.46,3.32.87,1.42,1.48,3.08,1.84,4.95.78,4.05-.49,8.45-.49,12.5.25-.13.17-.5.21-.71M6.15,63.08c-.31.57-.35,1.61-.49,2.33-.15.74-.36,1.46-.49,2.26.75,2.85,2.52,4.68,5.86,4.95-.23-4.04.71-7.47,1.2-11.02-1-.38-2.58-.35-2.83-1.41-.17-.77.38-1.54.42-2.19-1.31,1.47-2.68,3.25-3.67,5.09M183.53,64.84c-1.02-2.11-2.89-4.16-5.09-4.38-1.39-.14-2.04.27-2.83.78,2,.58,3.84,1.53,4.87,2.97,1.09,1.51,1.98,3.54,2.68,5.65.35,1.03.7,2.14.92,3.25.24,1.2.27,2.42.57,3.6.72-4.1.5-8.48-1.13-11.87M172.09,64.77c-.88,1.44-1.5,3.41-2.05,5.3-1.64,5.63-2.86,12.36-3.96,18.16-1.13.87-2.85,1.15-4.52,1.48.51,1.35,1.22,2.55,1.98,3.82.71,1.18,1.45,2.6,2.61,3.25,1.48.82,4.18.89,6.36.78,3.19-.17,6.02-.88,7.56-2.4,1.4-1.38,2.5-3.91,3.18-6.57.67-2.64,1.13-5.77,1.13-8.69,0-4.64-.91-8.96-2.4-12.29-.53-1.19-1.04-2.39-1.7-3.25-1.09-1.44-3.16-2.53-5.09-2.9-1.13.93-2.31,2.01-3.11,3.32M12.51,61.87c-.29,1.67-.68,3.51-.92,5.37-.17,1.36-.44,2.93-.35,4.31.03.42.28.92-.07,1.27-3.24-.01-5.21-1.9-6.15-4.45-.49,3.08-1.1,6.02-1.41,9.47-.22,2.37.02,5.08.28,7.56.09.82.11,1.89.42,2.33.56.77,3.05.99,4.45,1.2,1.86.27,3.6.42,5.16.56,14.24,1.28,28.78,1.77,43.87,1.77,7.66,0,15.03-.28,22.04-.85,3.28-.26,6.65-.71,9.61-1.06.13-.02.5-.22.57.07-.73.36-1.6.32-2.4.42-5.82.74-11.95,1.12-18.37,1.41-7.18.33-14.72.4-22.18.14-7.29-.25-14.58-.33-21.76-.85-5.24-.37-10.75-.58-15.75-1.2-1.72-.21-3.45-.44-4.66-.99-.27-.12-.53-.23-.71-.42-.23-.25-.18-.52-.42-.71-.68.65-.31,1.68.07,2.47.34.7.82,1.76,1.41,1.98.54.2,1.66.1,2.61.14,4.6.2,9.07.28,13.49.28,9.11,0,18.59-.33,27.2.07,3.58.17,7.15.19,10.67.35,10.51.5,21.21.96,30.94,2.19.71-1.85.7-3.92.99-5.93.85-6.02,2.09-11.98,4.45-16.46-.54-.76-1.37-1.32-2.33-1.7-1.94-.75-3.94-1.38-6.15-1.91-.97-.23-2.47-.71-3.6-.49-.45.08-.91.48-1.41.71-3.55,1.59-7.91,2.34-12.29,3.04-5.12.81-10.24,1.56-15.47,1.84.61-2.28,1.66-4.32,2.83-6.15,1.02-1.61,2.3-3.14,3.32-4.59.1-.15.5-.57.21-.64-15.57,1.37-33.35,1.15-48.11-.78-.08.01-.08.11-.07.21M114.16,70.56c-1.16-3.38-2.97-6.61-6.85-6.85-1.87-.12-3.15.32-4.38.92,3.38.41,5.92,1.4,7.77,3.25,1.66,1.66,2.4,4.1,3.25,6.64.85,2.54,1.38,5.38,1.77,8.12.13-4.16-.31-8.43-1.55-12.08M87.03,100.37c.79,1.13,1.69,2.34,2.97,2.97.88.44,2.15.62,3.25.78,3.72.51,7.97.2,11.16-.42,2.34-.46,4.18-1.12,5.65-2.4,1.45-1.26,2.57-2.88,3.32-4.8.38-.97.58-2.07.85-3.18.78-3.18,1.49-7.1,1.13-10.88-.33-3.38-1.27-6.96-2.33-9.75-.38-1.02-.73-2.09-1.2-2.9-1.53-2.63-5.42-4.92-9.4-4.94-.17,0-.19.09-.28.14-2.91,1.69-4.6,4.06-6.08,7.06-.29.58-.65,1.1-.92,1.7-.54,1.22-1.01,2.52-1.41,3.88-1.18,4.04-2.04,8.46-2.54,13.21-.14,1.33-.23,3.27-.99,4.31-.9,1.23-3.37,1.37-5.3,1.41.55,1.49,1.29,2.62,2.12,3.81M147.36,83.35c.37.5.31,1.45.14,1.98-.04.13-.29.39-.07.42,3.77-.45,8.43-1.06,12.15-1.55,1.47-.2,2.22-.33,3.04-.99.9-.73,1.68-1.88,2.05-2.97h-.14c-5.29,1.47-11.31,2.21-17.17,3.11M146.73,83.42c-.13,0-.16.05-.28.07-8.56,1.07-18.86,2.53-27.83,3.46-.02.64-.15,1.3,0,1.91,9.63-.58,19.06-1.99,28.47-3.04.18-.7.71-2.38-.35-2.4M5.37,92.18c.11.57.09,1.28.28,1.77,19.81,2.25,41.7,2.4,63.72,2.4h11.02c2.45,0,5.85.18,7.91-.35.65-.17,1.46-.52,1.55-1.06-13.3-1.61-27.28-1.88-41.47-2.54-7.07-.33-14.17,0-21.33,0s-14.43-.15-21.62-.42c-.08.01-.08.11-.07.21M9.05,94.65c-.11.02-.05.15,0,.21,1.32,4.15,4.41,6.85,9.39,7.28,7.79.66,16.55-.33,18.51-5.86-9.54-.31-18.85-.83-27.9-1.62"/>
                <path class="cls-3" d="M133.38,20.13c-3.1.4-6.11,1.29-8.76,2.33-.98.38-1.44.63-2.19,1.34-.37.35-.75.85-1.06.92-.32.07-1.09-.04-1.7-.07-3.71-.16-8.11-.3-11.73-.42-9.09-.31-18.23-.42-27.41-.42-4.61,0-9.13-.03-13.49.42,2.76-1.19,5.76-2.01,8.97-2.68,3.29-.69,6.88-.81,10.53-1.06,5.36-.38,10.95-.58,16.6-.85,9.92-.46,20.74-.28,30.24.49"/>
                <path class="cls-3" d="M183.96,46.4c-3.43.41-7.74.84-11.51,1.34-.54.07-1.33.29-1.62.21-.6-.15-1.15-1.66-1.41-2.19-.44-.9-.88-1.61-1.06-2.33.96-.18,1.89-.22,3.11-.35.74-.08,2.68-.07,2.83-.64.1-.39-.91-1.46-1.34-1.98-3.45-4.06-7.88-7.87-12.29-10.67-3.95-2.51-8.36-4.74-13.42-6.29-1.67-.51-3.49-1.05-5.23-1.27-1.67-.21-3.55-.05-5.37.07-1.72.12-3.39.31-4.87.64-2.93.64-6,1.89-7.56,3.53-.66.69-1.13,1.68-1.7,2.54-3.57,5.52-6.5,11.71-9.11,18.37-.19.48-.53,1.29-.49,1.55.17,1.2,2.52.88,3.67.64.49,1.15.64,2.52.92,3.82.28,1.32.58,2.61.85,3.89-1.28.37-2.64.86-3.82,1.48-1.49.79-2.93,1.74-3.25,3.67-.89-.56-1.9-1.1-3.11-1.41-1.21-.31-2.71-.54-4.1-.28-1.08.2-2.37.96-3.32,1.62-2.84,1.97-5.09,5.2-6.43,8.41-3.39-1.11-6.6-2.77-10.88-2.75,1.69-5.83,4.79-9.99,9.68-12.57.49-.26.97-.51,1.55-.78,1.65-.75,3.94-1.29,5.79-1.91.85-.28,1.75-.56,2.61-.85.84-.28,1.73-.51,2.47-.92,1.24-.69,1.81-2.31,1.55-4.03.9-.23,1.75-.51,2.68-.71.24-1.13.78-2.18,1.27-3.25,2.41-5.18,4.92-10.35,8.12-14.98.55-.79,1.28-1.73,2.05-2.61.7-.81,1.56-1.84,2.33-2.26.63-.34,1.51-.62,2.33-.92,2.3-.84,5.27-1.72,8.05-1.91,2.45-.17,4.91.34,7.28.64,2.37.3,4.69.68,6.78,1.13,4.38.94,7.83,2.9,10.95,4.88,6.59,4.18,12.21,9.19,17.52,14.06.74.02,1.4.09,2.05.14.64.06,1.34.02,1.91.21.66.23,1.28,1.14,1.84,1.77.81.92,1.89,1.68,1.7,3.25"/>
                <path class="cls-3" d="M173.92,42.45c-.81.22-1.86.3-2.97.42-.42.05-1.05.08-1.55.14-.55.07-1.11.28-1.2-.14-.11-.53.47-.52.85-.57,1.27-.17,2.54-.17,3.67-.35.06-.38-.37-.62-.57-.85-5.32-6.21-12.05-11.38-20.35-14.76-1.44-.59-2.94-1.15-4.52-1.62-1.57-.47-3.23-.99-4.87-1.2-1.64-.21-3.5-.09-5.16,0-3.34.18-6.1.86-8.62,1.98-1.22.54-2.45,1.15-3.25,1.98-.5.51-.98,1.25-1.41,1.91-2.15,3.26-4.07,6.92-5.79,10.6-.71,1.52-1.3,3.07-1.98,4.59-.22-.59-.36-1.24-.57-1.84,2.46-5.37,4.88-10.56,8.12-15.19,2.42-3.46,8.08-4.7,13.56-5.02.94-.05,2.64-.16,4.03-.07,1.74.11,3.68.69,5.44,1.2,8.37,2.44,15.24,6.82,20.98,11.94,2.02,1.8,3.91,3.73,5.65,5.86.21.25.56.61.49.99"/>
                <path class="cls-3" d="M166.22,42.38c-7.21.8-14.5,1.51-21.69,2.33-1.06-7.67-3.63-14.1-6.78-19.78-.2-.36-.4-.73-.49-1.13,4.34-.53,8.23.57,11.37,1.62,6.19,2.08,11.98,5.4,16.25,9.04.4,2.68.96,5.21,1.34,7.91"/>
                <path class="cls-3" d="M136.77,23.87c.57.62.95,1.46,1.34,2.26,2.66,5.38,5.24,11.38,6.15,18.58-2.6.33-5.27.57-7.91.85.3-1.7-.58-3.12-1.62-3.89-2.28-1.67-6.75-2.76-10.03-2.76-2.69,0-3.94,2.09-4.59,4.1-.33-.65-.4-1.43-.49-2.19-.09-.75-.32-1.66-.21-2.47.11-.86.96-1.94,1.41-2.83,1.24-2.42,2.4-4.46,3.89-6.64.78-1.15,1.63-1.87,2.97-2.61,2.4-1.33,5.68-2.23,9.11-2.4"/>
                <path class="cls-3" d="M121.08,24.93c.28.02-.12.44-.21.57-.42.54-.96,1.07-1.41,1.7-3.97,5.49-7.1,12.24-10.03,18.79-23.82-.55-48.81-1.54-72.83-.57-.23.05-.11-.14,0-.14,7.02-5.8,13.71-10.78,21.26-16.25,1.76-1.27,3.79-2.39,5.93-3.39.71-.33,1.42-.78,2.12-.99.81-.24,1.75-.22,2.68-.28.9-.06,1.85-.17,2.76-.21,9.11-.41,18.86,0,28.04.14,7.28.11,14.49.41,21.69.64M96.5,26.06c-9.19-.29-19.26-.58-28.4-.14-2.75.13-3.86.77-5.72,1.98-5.81,3.78-10.9,7.66-16.11,11.73-1.8,1.41-3.8,2.85-5.3,4.45-.16.17-.65.62-.35.78,5.4,0,11.31-.14,17.17-.14,8.34,0,17.36-.24,25.79.07,2.86.11,5.77.14,8.62.14,1.36,0,2.8.1,4.24.14,1.41.04,2.79.2,4.1.28,3.01.19,5.72-.18,7.49-1.27,1.45-.89,2.25-2.53,3.18-4.17.82-1.44,1.59-2.84,2.26-4.17,1.5-2.99,2.86-5.71,4.17-8.69-6.84-.43-13.91-.76-21.12-.99"/>
                <path class="cls-4" d="M117.62,27.05c-1.31,2.98-2.67,5.7-4.17,8.69-.67,1.33-1.45,2.73-2.26,4.17-.93,1.64-1.73,3.27-3.18,4.17-1.76,1.09-4.47,1.46-7.49,1.27-1.31-.08-2.69-.24-4.1-.28-1.43-.04-2.88-.14-4.24-.14-2.85,0-5.76-.03-8.62-.14-8.43-.32-17.44-.07-25.79-.07-5.86,0-11.76.14-17.17.14-.3-.16.19-.6.35-.78,1.49-1.6,3.5-3.04,5.3-4.45,5.2-4.07,10.29-7.95,16.11-11.73,1.86-1.21,2.98-1.85,5.72-1.98,9.14-.43,19.21-.15,28.4.14,7.21.23,14.28.56,21.12.99M95.51,26.27c-3.58-.16-7.38-.08-11.09-.21-4.89-.17-10.2-.15-14.83.07-1.08.05-2.2,0-3.25.14-1.21.17-2.57,1.04-3.67,1.77-1.16.76-2.37,1.52-3.32,2.19-4.51,3.2-8.46,6.04-12.58,9.33-1.77,1.41-3.68,2.84-5.23,4.38-.18.18-.67.56-.42.71,18.03-.34,38.11-.46,56.16.21,1.36.05,2.75.23,4.1.28,2.89.12,5.57-.47,7.06-1.7,1.01-.83,1.8-2.46,2.61-3.89.75-1.32,1.52-2.69,2.19-4.03,1.31-2.6,2.77-5.25,3.82-7.84.03-.08.31-.33.07-.42-7.05-.44-14.26-.66-21.62-.99"/>
                <path class="cls-3" d="M117.13,27.26c.23.09-.04.35-.07.42-1.04,2.59-2.51,5.24-3.81,7.84-.67,1.34-1.44,2.7-2.19,4.03-.81,1.42-1.6,3.06-2.61,3.89-1.5,1.22-4.18,1.82-7.06,1.7-1.35-.06-2.74-.23-4.1-.28-18.05-.68-38.13-.55-56.16-.21-.25-.14.25-.53.42-.71,1.54-1.54,3.45-2.96,5.23-4.38,4.11-3.28,8.07-6.13,12.57-9.33.95-.68,2.16-1.43,3.32-2.19,1.1-.72,2.46-1.59,3.67-1.77,1.05-.15,2.17-.09,3.25-.14,4.63-.22,9.94-.24,14.83-.07,3.72.13,7.52.05,11.09.21,7.35.33,14.57.55,21.62.99"/>
                <path class="cls-3" d="M165.24,34.75c.73.24.7,1.2.92,2.26.34,1.62.86,3.77,1.06,5.3h-.71c-.38-2.56-.88-5.01-1.27-7.56"/>
                <path class="cls-3" d="M166.15,35.53c2.26,1.86,4.33,3.91,6.15,6.22-1.57.17-3.16.33-4.73.49-.48-2.23-.93-4.48-1.41-6.71"/>
                <path class="cls-3" d="M119.04,38.92c.3,1.46.34,3.19.78,4.52-.39.51-1.36.43-1.91.78.33.26.83-.01,1.2-.14.42-.15.77-.33,1.06-.49.8-1.97,1.49-4.12,3.89-4.38,1.74-.19,4.03.27,5.93.78,1.88.5,3.58,1.11,4.66,1.98.75.59,1.48,1.61,1.48,2.9,0,1.3-.77,2.24-1.48,2.76-2.93,2.11-8.7.99-11.94-.28-.71-.28-1.4-.84-1.98-.92-1.12-.15-1.61.46-2.12,1.06.78-.05.86-.94,2.05-.78.63.08,1.35.64,2.12.92.82.3,1.54.58,2.26.71-2.64.39-5.43.64-8.12.99-.22-1.4-.3-2.95-.64-4.24.91-2.06,1.81-4.12,2.76-6.15"/>
                <path class="cls-3" d="M43.73,39.2c-1.17.98-2.41,1.87-3.6,2.83-1.18.95-2.33,1.97-3.6,2.83-.21-1.41.17-2.63.85-3.39,1.3-1.45,3.62-2.32,6.36-2.26"/>
                <path class="cls-3" d="M167.85,42.45c.1.19.08.48.14.71-7.77.92-15.47,1.9-23.31,2.76-.11-.22-.1-.85-.07-.99,7.77-.8,15.54-1.6,23.24-2.47"/>
                <path class="cls-3" d="M115.43,43.22c.31.51.4,1.25.57,1.91-.57,1.27-1.12,2.56-1.55,3.96.37.03.47-.47.57-.71.34-.85.66-1.88,1.06-2.76.28,1.13.42,2.4.49,3.74-1.24.01-2.84.59-3.39-.42.66-2,1.51-3.81,2.26-5.72"/>
                <path class="cls-3" d="M167.85,43.44h.14c.67,1.63,1.48,3.13,2.33,4.59-7.83.95-15.52,2.05-23.1,3.25-.66-1.84-1.63-3.36-2.4-5.09,7.68-.92,15.36-1.83,23.03-2.76"/>
                <path class="cls-3" d="M144.11,44.99c.41,0,.07.73.28.92-2.73.52-5.76.74-8.62,1.13-.31-.04.16-.37.21-.49.06-.27.21-.45.28-.71,2.58-.31,5.26-.54,7.84-.85"/>
                <path class="cls-3" d="M108.58,46.26c-.39.2-.95.23-1.34.42-.25.04-.45-.35-.49.07-12.1,3.25-24.76,6.68-37.02,9.96-.87.23-1.81.39-2.68.64-.9.25-1.73.56-2.61.71-3.98.65-8.48.08-12.64-.21-4.3-.3-8.78-.28-12.93-.42-4.34-.15-9.09-.14-13.28-.14-2.08,0-4.54-.07-6.64-.07s-5.17.26-5.44-1.2c-.17-.89.81-1.75,1.62-2.33,2.34-1.67,5.59-3,8.27-4.03,2.92-1.12,6.04-2.09,9.25-3.04,1.08-.32,2.13-.75,3.11-.92.96-.16,2.09-.1,3.18-.14,1.06-.04,2.11-.11,3.18-.14,4.8-.15,9.36-.14,14.34-.14,17.63,0,34.94.44,52.13.99"/>
                <path class="cls-3" d="M184.24,45.77c2.7,1.47,3.05,5.28,3.39,9.11-.89-1.95-1.8-3.96-2.68-6.01-.39-.9-.73-1.66-.71-2.9v-.21Z"/>
                <path class="cls-3" d="M146.87,51.35c-9.8,1.57-19.46,3.29-28.26,5.86-.54-2.54-1.08-5.09-1.62-7.63,2.07-.34,4.35-.5,6.64-.78.74-.09,1.46-.3,2.19-.28.83.02,1.73.32,2.61.42,2.99.34,5.33-.14,6.92-1.62,2.91-.35,6.01-.63,8.55-.99.11-.02.17-.09.28-.07.46.08.54.55.85,1.13.61,1.16,1.62,2.86,1.84,3.96"/>
                <path class="cls-3" d="M185.01,81.02c.39-3.2,1.47-6.31,1.2-10.1-.15-2.15-.81-4.64-1.55-6.78-.76-2.18-1.63-4.1-2.97-5.3-.8-.72-1.96-1.41-3.46-1.34-1.93.09-3.49,1.15-4.59,2.19-2.55,2.4-4.25,6.61-5.44,10.52-1.28,4.23-2.15,8.81-2.76,13.21-1.01.19-2.09.31-3.18.42-.22,0,.39-.43.57-.57,1.32-1.05,2.32-2.63,2.61-4.73.05-.34-.03-.79.07-1.2.06-.23.25-.53.35-.78,3.19-7.66,4.47-17.79,4.87-28.33,3.64-.5,7.41-.93,11.3-1.34.54-.06,1.33-.27,1.62-.21.38.08.29.16.42.57,1.05,3.2,2.5,5.85,3.67,8.97.18.49.43.98.49,1.41.13.95.05,2.18.07,3.32.05,3.27-.03,6.9-.21,9.96-.13,2.11-.21,4.28-.78,6.01-.28.83-.66,1.69-.99,2.4-.27.57-.53,1.14-.99,1.55-.03.02-.23.48-.35.14"/>
                <path class="cls-3" d="M106.74,47.04c.26,1.02.07,2.15-.35,2.83-.69,1.12-3.09,1.7-4.8,2.26-5.23,1.71-10.96,3.48-16.18,5.02-3.7,1.09-7.24,2.17-10.95,3.18-1.91.52-3.78.97-5.86,1.2-6.25.68-12.99,1.11-19.78,1.34-4.57.16-9.24.38-13.85.21-6.63-.25-13.45-.61-19.85-1.34-2.04-.23-4.22-.37-5.44-1.55.11-2.77,1.83-3.92,3.6-5.01-.83,2.68,2.92,2.32,5.58,2.33,9.79.05,19.12.04,28.68.42,1.88.07,3.75.16,5.58.28,3.91.26,8.57.79,12.36-.07,1.94-.44,3.82-1.1,5.79-1.62,9.95-2.64,19.46-5.2,29.39-7.84,2.1-.56,4.15-1.04,6.08-1.62"/>
                <path class="cls-3" d="M170.18,48.31c.37-.02.2.59.21.92.07,2.33-.2,4.85-.42,7.14-.71,7.09-1.9,14.02-4.17,19.64-.2.5-.55,1.02-.64,1.48-.18.9,0,1.67-.28,2.33-5.33,1.64-11.58,2.36-17.66,3.25.36-4.93.57-10.33.57-15.75,0-5.39.16-10.87-.42-15.82,7.55-1.12,15.07-2.26,22.82-3.18M163.19,51.49c-.42.22-.68.59-.99.92.07.49-.18.88,0,1.27h1.27c.25,1.87,3.67,1.58,3.6-.42.61-.12,1.14-.32,1.48-.71.02-.54-.02-1.02-.21-1.34-.4-.23-.96-.31-1.62-.28-.34-1.73-3.72-1.37-3.53.57"/>
                <path class="cls-4" d="M166.72,50.92c.67-.03,1.22.05,1.62.28.2.32.23.81.21,1.34-.35.39-.88.58-1.48.71.07,2.01-3.36,2.29-3.6.42h-1.27c-.18-.39.07-.78,0-1.27.31-.33.57-.7.99-.92-.18-1.93,3.2-2.29,3.53-.57M166.37,50.85c.07-.77-1.68-1.08-2.4-.49-.33.27-.4.65-.49,1.13.9.3,2.83.06,2.9-.64M166.65,51.14c-.64.65-2.12.92-3.32.57-.15.14-.79.45-.49.57,1.83-.17,3.71-.3,5.01-.99-.38-.07-.83-.06-1.2-.14M162.48,52.55v.85c2.27.04,4.42-.05,5.79-.92-.02-.35.07-.83-.21-.92-1.58.61-3.52.86-5.58.99M163.75,53.75c.27,1.31,3.08,1.23,2.97-.35-.94.17-2.03.18-2.97.35"/>
                <path class="cls-3" d="M163.47,51.49c.09-.47.17-.86.49-1.13.72-.59,2.47-.28,2.4.49-.06.7-2,.93-2.9.64"/>
                <path class="cls-3" d="M167.85,51.28c-1.31.69-3.19.82-5.02.99-.29-.11.35-.43.49-.57,1.2.35,2.68.08,3.32-.57.37.08.82.07,1.2.14"/>
                <path class="cls-3" d="M147.01,51.63c.06-.01.07.03.07.07.56,4.96.42,10.43.42,15.82,0,5.38-.22,10.75-.64,15.61-9.28,1.32-18.71,2.48-28.26,3.53.61-4.4.78-9.47.78-14.55s.01-10.15-.71-14.55c.19-.21.54-.28.78-.35,4.04-1.22,8.41-2.11,12.86-3.04,4.8-1,10-1.85,14.69-2.54M140.65,55.02c-.69.37-1.36,1.14-.99,2.33h1.27c.03,1.4,2.82,1.86,3.53.57.18-.33.13-.62.28-.99.66-.17,1.31-.34,1.62-.85.03-.55-.12-.91-.21-1.34-.51-.17-1.06-.3-1.77-.28-.38-1.8-3.87-1.44-3.74.57"/>
                <path class="cls-3" d="M168.06,51.56c.29.09.19.57.21.92-1.37.86-3.52.95-5.79.92v-.85c2.06-.13,4-.38,5.58-.99"/>
                <path class="cls-4" d="M144.4,54.46c.7-.02,1.26.11,1.77.28.09.43.24.79.21,1.34-.32.51-.97.68-1.62.85-.16.37-.1.66-.28.99-.71,1.29-3.5.83-3.53-.57h-1.27c-.37-1.2.3-1.96.99-2.33-.13-2.01,3.36-2.36,3.74-.57M144.04,54.39c.09-.88-1.85-1.13-2.61-.49-.3.25-.4.67-.49,1.13.94.34,3.04.1,3.11-.64M144.25,54.74c-.53.25-.89.63-1.7.71-.53.05-1.19-.26-1.77-.14-.16.03-.86.52-.57.57,1.51-.12,3.05-.25,4.24-.57.39-.1.91-.26,1.13-.49-.45-.02-.83-.11-1.34-.07M145.88,55.09c-1.68.7-3.88.88-6.01,1.13v.85c2.43.03,4.75-.06,6.22-.99,0-.41-.01-.79-.21-.99M141.29,57.35c.1,1.6,3.5,1.31,3.04-.35-.88.25-1.98.28-3.04.35"/>
                <path class="cls-3" d="M166.72,53.4c.11,1.59-2.69,1.66-2.97.35.93-.17,2.03-.19,2.97-.35"/>
                <path class="cls-3" d="M140.93,55.02c.1-.46.19-.88.49-1.13.76-.63,2.7-.39,2.61.49-.07.74-2.17.98-3.11.64"/>
                <path class="cls-3" d="M145.6,54.81c-.22.23-.74.39-1.13.49-1.19.31-2.73.45-4.24.57-.3-.04.41-.53.57-.57.58-.12,1.24.19,1.77.14.81-.08,1.17-.45,1.7-.71.51-.04.89.05,1.34.07"/>
                <path class="cls-3" d="M146.09,56.08c-1.47.93-3.78,1.02-6.22.99v-.85c2.12-.25,4.33-.43,6-1.13.2.2.22.58.21.99"/>
                <path class="cls-3" d="M144.33,57c.46,1.66-2.94,1.96-3.04.35,1.06-.07,2.16-.1,3.04-.35"/>
                <path class="cls-3" d="M118.26,57.57h.14c.91,7.28.89,16.02.42,23.81-.16,2.62-.52,5.17-.57,7.56h-.99c.86-9.48.16-20.18-4.73-25.36-.4-.42-.93-.72-.99-1.06-.1-.56.44-1.44.78-1.84,1.29-1.5,3.92-2.43,5.93-3.11"/>
                <path class="cls-3" d="M184.59,81.3c.01-4.05,1.27-8.45.49-12.5-.36-1.86-.97-3.52-1.84-4.95-.86-1.41-1.99-2.72-3.46-3.32-1.52-.62-3.25-.27-4.45.49-3.82,2.43-5.05,6.95-6.36,12.01-1.3,5-2.26,10.2-3.18,15.12-2.45,1.33-5.97,1.47-9.47,1.84-11.76,1.23-23.69,2.44-35.82,3.6-2,.19-4,.5-6,.42.19-1.19.55-2.44.78-3.81,1.12-6.7,1.05-15.56-1.27-20.98-.96-2.25-2.3-4.19-4.24-5.16-.92-.46-2.56-.68-4.03-.56-2.55.2-4.58,1.55-6.15,3.04-1.62,1.54-2.95,3.39-3.81,5.37-.53-.18-.79-.62-1.2-.92,1.6-3.84,3.98-7.32,7.7-9.25,1.15-.6,2.41-.89,4.17-.71,1.81.18,3.22.62,4.45,1.48.13.09.16.26.28.35.07.06.04.17.14.21.07.03.22-.04.28,0,.12.07.18.26.28.35,1.94,1.64,3.05,4.16,3.81,6.64,1.62,5.24,1.95,12.68,1.2,19,1.05.29,2.15.08,3.18,0,7.16-.57,14.35-1.51,21.4-2.33,8.08-.94,16.08-2,24.09-3.04.42-1.31.45-2.74.71-4.1.73-3.95,1.55-7.76,2.82-11.37.76-2.16,1.78-4.51,3.11-6.43,1.28-1.84,3.26-3.8,5.72-4.03,3.06-.28,4.73,2.29,5.72,4.45,1.53,3.32,2.64,8.01,2.05,12.65-.25,1.95-.57,3.82-.92,5.72-.04.2.03.57-.21.71"/>
                <path class="cls-3" d="M9.82,57.99c-.05.65-.6,1.42-.42,2.19.24,1.06,1.83,1.03,2.83,1.41-.49,3.55-1.43,6.98-1.2,11.02-3.34-.26-5.11-2.09-5.86-4.95.14-.8.34-1.52.49-2.26.15-.72.19-1.76.49-2.33,1-1.84,2.37-3.62,3.67-5.09"/>
                <path class="cls-3" d="M184.66,76.71c-.3-1.18-.33-2.4-.57-3.6-.22-1.11-.57-2.22-.92-3.25-.71-2.11-1.59-4.14-2.68-5.65-1.04-1.43-2.87-2.39-4.87-2.97.79-.51,1.44-.92,2.83-.78,2.2.22,4.07,2.27,5.09,4.38,1.63,3.39,1.85,7.77,1.13,11.87"/>
                <path class="cls-3" d="M175.2,61.45c1.93.36,3.99,1.45,5.09,2.9.65.86,1.16,2.06,1.7,3.25,1.49,3.33,2.4,7.65,2.4,12.29,0,2.91-.46,6.05-1.13,8.69-.68,2.66-1.78,5.19-3.18,6.57-1.53,1.52-4.37,2.23-7.56,2.4-2.18.12-4.88.05-6.36-.78-1.16-.65-1.9-2.07-2.61-3.25-.76-1.26-1.47-2.46-1.98-3.81,1.67-.33,3.39-.62,4.52-1.48,1.1-5.79,2.32-12.52,3.96-18.16.55-1.89,1.17-3.86,2.05-5.3.8-1.31,1.98-2.39,3.11-3.32M172.23,71.48c-.73,2.07-1.27,4.97-1.27,8.2,0,2.79.37,5.55,1.34,8.12.85,2.26,2.22,4.67,4.52,4.95,2.68.32,4.27-2.4,5.23-4.95,1.73-4.61,1.84-11.17.21-16.03-.79-2.35-2.46-5.86-5.51-5.44-2.37.32-3.79,3.07-4.52,5.16"/>
                <path class="cls-3" d="M12.58,61.66c14.75,1.92,32.54,2.15,48.11.78.29.06-.11.49-.21.64-1.02,1.46-2.3,2.99-3.32,4.59-1.16,1.83-2.21,3.87-2.82,6.15,5.23-.27,10.35-1.02,15.47-1.84,4.38-.7,8.74-1.45,12.29-3.04.5-.23.96-.62,1.41-.71,1.14-.21,2.63.26,3.6.49,2.21.53,4.2,1.15,6.15,1.91.96.37,1.79.94,2.33,1.7-2.36,4.48-3.6,10.44-4.45,16.46-.29,2.02-.28,4.09-.99,5.93-9.73-1.23-20.43-1.69-30.94-2.19-3.52-.17-7.09-.19-10.67-.35-8.61-.4-18.08-.07-27.2-.07-4.42,0-8.89-.08-13.49-.28-.96-.04-2.08.05-2.61-.14-.59-.22-1.07-1.28-1.41-1.98-.38-.8-.75-1.82-.07-2.47.24.19.2.46.42.71.18.19.44.3.71.42,1.21.55,2.94.78,4.66.99,5,.62,10.52.83,15.75,1.2,7.18.51,14.47.6,21.76.85,7.47.26,15.01.18,22.18-.14,6.42-.29,12.55-.68,18.37-1.41.8-.1,1.67-.06,2.4-.42-.06-.29-.43-.09-.57-.07-2.96.35-6.33.8-9.61,1.06-7.01.56-14.38.85-22.04.85-15.09,0-29.63-.48-43.87-1.77-1.56-.14-3.3-.29-5.16-.57-1.4-.21-3.89-.43-4.45-1.2-.32-.43-.34-1.51-.42-2.33-.26-2.48-.5-5.18-.28-7.56.31-3.45.92-6.39,1.41-9.47.94,2.55,2.91,4.44,6.15,4.45.35-.35.1-.85.07-1.27-.09-1.38.18-2.95.35-4.31.23-1.86.63-3.69.92-5.37,0-.1-.01-.2.07-.21M13.36,63.99c-.17,1.13-.05,2.71.07,4.24.11,1.45.15,2.94.63,3.74.46.76,2.13,1.52,3.32,1.98,1.39.54,2.76.87,4.1,1.2,2.97.74,5.88,1.4,9.4,1.27,4.8-.18,9.73-.98,13.99-1.91,1.5-.33,3.07-.68,4.1-1.27,1.28-.74,2.15-2.13,2.97-3.46.85-1.38,1.8-2.8,2.19-4.24-6.81.63-13.88.27-20.63-.14-6.79-.41-13.48-1.03-19.92-1.62-.1.04-.17.11-.21.21M7.14,80.81c-1.02-.36-2.09-.94-2.97-.92-.19,0-.18.06-.28.21-.3.35-.1,1.11,0,1.77.28,1.85.5,3.76.78,5.3.8.32,1.87.7,2.97.64.79-.04,1.93-.34,2.33-.92.38-.55.28-1.55.28-2.47,0-.94.05-1.92-.21-2.61-.86-.21-1.84-.61-2.9-.99M82.23,87.31c-.24-.57-.45-1.17-.71-1.77-.49-1.17-.95-2.56-1.7-3.18-.67-.56-1.9-.78-2.9-.71-4.69.35-9.18.58-13.85.99-1.66.15-3.45.14-3.74,1.2-.17.6.13,1.6.28,2.4.17.9.38,1.73.71,2.19,1.11,1.56,4.6,1.13,7.35,1.13,4.28,0,8.93.13,13.07,0,.73-.02,1.63.05,2.05-.57.07-.57-.32-1.12-.57-1.69M48.82,85.61c-.47-1.02-2.08-1.99-3.46-2.19-.55-.08-1.17-.04-1.77-.07-7.82-.36-16.23-.61-23.95-.85-2.53-.08-5.3-.46-5.79,1.48-.18.7-.03,1.73,0,2.61.03.91.06,1.8.14,2.61,11.08,1.14,23.64,1.8,35.74,1.27-.43-1.31-.37-3.68-.92-4.88"/>
                <path class="cls-3" d="M115.72,82.64c-.38-2.75-.91-5.58-1.77-8.12s-1.59-4.98-3.25-6.64c-1.85-1.85-4.39-2.84-7.77-3.25,1.23-.6,2.51-1.03,4.38-.92,3.89.24,5.7,3.47,6.85,6.85,1.25,3.65,1.68,7.92,1.55,12.08"/>
                <path class="cls-4" d="M13.57,63.78c6.44.6,13.13,1.21,19.92,1.62,6.75.41,13.82.78,20.63.14-.39,1.44-1.34,2.86-2.19,4.24-.82,1.33-1.69,2.73-2.97,3.46-1.03.59-2.6.94-4.1,1.27-4.25.93-9.19,1.73-13.99,1.91-3.52.13-6.43-.54-9.4-1.27-1.33-.33-2.71-.67-4.1-1.2-1.19-.46-2.86-1.22-3.32-1.98-.48-.81-.52-2.29-.64-3.74-.12-1.53-.24-3.11-.07-4.24.04-.1.11-.17.21-.21M13.64,64.28c-.17.95-.05,2.52.07,3.96.11,1.33.15,2.76.56,3.53.34.65,1.72,1.34,2.76,1.77,2.32.95,4.56,1.48,7.06,1.98,1.3.26,2.61.56,3.89.64,3.77.23,7.58-.33,11.02-.85,1.71-.26,3.47-.58,5.02-.92,1.73-.38,3.53-.6,4.73-1.27,1.16-.65,2.11-2.03,2.9-3.25.84-1.3,1.53-2.8,2.12-4.03-6.75.72-13.59.18-20.27-.21-6.75-.39-13.51-.93-19.78-1.55-.08.01-.08.11-.07.21"/>
                <path class="cls-3" d="M13.71,64.06c6.27.62,13.03,1.16,19.78,1.55,6.68.39,13.52.93,20.27.21-.59,1.23-1.28,2.72-2.12,4.03-.79,1.21-1.73,2.6-2.9,3.25-1.2.67-3,.89-4.73,1.27-1.54.34-3.31.66-5.01.92-3.44.52-7.26,1.08-11.02.85-1.28-.08-2.59-.38-3.89-.64-2.51-.5-4.74-1.03-7.06-1.98-1.03-.42-2.41-1.12-2.76-1.77-.41-.78-.45-2.2-.57-3.53-.12-1.44-.24-3.01-.07-3.96,0-.1-.01-.2.07-.21"/>
                <path class="cls-3" d="M84.92,96.56c1.93-.04,4.4-.18,5.3-1.41.76-1.04.85-2.98.99-4.31.5-4.75,1.36-9.18,2.54-13.21.4-1.36.87-2.67,1.41-3.89.27-.6.63-1.12.92-1.7,1.48-3,3.17-5.37,6.08-7.06.09-.05.12-.14.28-.14,3.98.02,7.87,2.31,9.4,4.95.47.81.82,1.88,1.2,2.9,1.06,2.79,2.01,6.37,2.33,9.75.36,3.77-.35,7.7-1.13,10.88-.27,1.11-.47,2.21-.85,3.18-.75,1.92-1.87,3.54-3.32,4.8-1.47,1.28-3.32,1.95-5.65,2.4-3.19.62-7.44.94-11.16.42-1.1-.15-2.36-.34-3.25-.78-1.28-.63-2.18-1.84-2.97-2.97-.83-1.19-1.57-2.33-2.12-3.82M99.96,71.34c-6.49,4.48-7.4,18.84-1.91,25.43,1.24,1.49,3.26,3.06,5.79,3.04,1.59-.01,3.08-.71,4.03-1.41,3.62-2.67,5.61-8.55,5.3-14.41-.16-3.02-.83-5.93-1.84-8.05-1.04-2.18-2.64-4.23-4.73-5.23-.84-.4-2.24-.65-3.25-.57-1.48.13-2.5.59-3.39,1.2"/>
                <path class="cls-4" d="M176.75,66.32c3.05-.42,4.72,3.09,5.51,5.44,1.63,4.86,1.52,11.42-.21,16.03-.96,2.54-2.55,5.26-5.23,4.95-2.3-.27-3.67-2.68-4.52-4.95-.97-2.58-1.34-5.33-1.34-8.12,0-3.22.55-6.12,1.27-8.2.73-2.09,2.15-4.83,4.52-5.16M172.72,70.92c-2.29,5.69-1.85,15.62,1.41,19.78.69.88,1.74,1.78,3.04,1.84,1.16.05,2.3-.86,2.97-1.7,3.24-4.04,3.79-13.13,1.84-18.86-.68-2.01-1.68-4.62-3.89-5.3-.5-.15-1.18-.13-1.48-.07-1.89.35-3.19,2.58-3.89,4.31"/>
                <path class="cls-3" d="M176.61,66.61c.3-.05.99-.08,1.48.07,2.2.68,3.2,3.29,3.89,5.3,1.95,5.73,1.4,14.82-1.84,18.86-.67.83-1.81,1.74-2.97,1.7-1.3-.05-2.35-.96-3.04-1.84-3.26-4.16-3.71-14.09-1.41-19.78.7-1.73,2-3.96,3.88-4.31M177.6,67.1c-.58-.06-1.09.1-1.62.28.2,2.27.3,4.64.57,6.85.61-.15,1.18-.06,1.48.28.51-2.17.87-4.5,1.34-6.71-.53-.16-1.06-.64-1.77-.71M172.58,72.61c.03.3.4.63.64.99.67,1.01,1.22,2.23,1.98,2.9.05-.69.79-1.24.85-1.84.05-.58-.5-1.63-.85-2.61-.4-1.14-.65-2.27-.99-2.76-.47.24-1.69,2.66-1.62,3.32M178.8,75.58c.29.39.26,1.11.63,1.41,1.09-.89,1.89-2.07,2.97-2.97-.34-1.54-.87-2.89-1.48-4.17-.09,0-.1-.09-.21-.07-.68,1.89-1.26,3.87-1.91,5.79M171.73,77.49c-.29.77-.08,2.04-.14,3.04,1.13-.07,2.24-.16,3.18-.42-.01-.58,0-1.13.07-1.62-.96-.36-2.09-.92-3.11-.99M179.58,78.62v1.27c1,.02,2.48.15,3.39.49-.04-.59.09-1.36-.07-1.84-.92-.07-2.27.04-3.32.07M174.84,81.87c-.42.33-.84.74-1.48,1.27-.45.37-1.25.74-1.34,1.13-.08.33.16.96.28,1.41.12.45.19.96.49,1.2.59-.46.97-1.15,1.41-1.77.44-.61.93-1.22,1.27-1.91-.31-.35-.17-1.15-.64-1.34M178.73,83.77c.58,1.18,1.26,2.38,1.84,3.46.21.4.33.87.71,1.13.42-.71.66-1.6.92-2.47-1.03-1.16-1.8-2.58-2.9-3.67-.2.5-.41,1-.57,1.55M177.95,84.55c-.31.47-1.12.27-1.48.21-.14,2.26-.35,4.82-.35,6.99.58.26,1.7.32,2.26,0-.1-2.4-.18-4.81-.28-7.2h-.14Z"/>
                <path class="cls-4" d="M179.36,67.81c-.47,2.22-.83,4.54-1.34,6.71-.31-.34-.88-.43-1.48-.28-.27-2.21-.37-4.58-.57-6.85.54-.18,1.05-.34,1.62-.28.71.07,1.24.55,1.77.71M176.26,67.6c.18,2.1.38,4.18.49,6.36.35-.15.84-.04,1.13.07.32-2.06.79-3.97,1.13-6-.52-.53-1.88-.9-2.76-.42"/>
                <path class="cls-3" d="M179.01,68.02c-.34,2.03-.81,3.94-1.13,6.01-.29-.11-.78-.22-1.13-.07-.11-2.17-.31-4.26-.49-6.36.88-.47,2.24-.11,2.76.42"/>
                <path class="cls-4" d="M174.21,69.29c.34.48.59,1.62.99,2.76.35.98.9,2.03.85,2.61-.05.6-.8,1.14-.85,1.84-.76-.66-1.31-1.88-1.98-2.9-.24-.36-.61-.69-.64-.99-.06-.66,1.16-3.08,1.63-3.32M172.86,72.61c.4.53.69,1.13,1.06,1.7.38.57.76,1.19,1.2,1.62.03-.52.61-.83.64-1.34.01-.21-.21-.78-.35-1.2-.37-1.12-1.06-2.96-1.34-3.67-.46.91-.93,1.8-1.2,2.9"/>
                <path class="cls-3" d="M174.07,69.72c.28.72.97,2.55,1.34,3.67.14.42.36.99.35,1.2-.03.51-.6.82-.64,1.34-.44-.44-.83-1.05-1.2-1.62-.37-.57-.66-1.16-1.06-1.7.27-1.09.75-1.99,1.2-2.9"/>
                <path class="cls-4" d="M180.71,69.79c.11-.02.12.07.21.07.61,1.27,1.14,2.62,1.48,4.17-1.08.9-1.88,2.08-2.97,2.97-.38-.31-.34-1.02-.64-1.41.64-1.92,1.23-3.9,1.91-5.79M179.93,72.97c-.23.72-.78,1.97-.78,2.54,0,.37.32.67.28,1.06.54-.27.85-.84,1.34-1.34.31-.32,1.19-.96,1.27-1.41.06-.37-.29-1.18-.49-1.77-.24-.69-.58-1.4-.78-1.7-.19.85-.54,1.64-.85,2.61"/>
                <path class="cls-4" d="M103.35,70.14c1.01-.09,2.41.16,3.25.57,2.09,1,3.69,3.04,4.73,5.23,1.01,2.12,1.68,5.04,1.84,8.05.31,5.86-1.68,11.74-5.3,14.41-.95.7-2.44,1.4-4.03,1.41-2.54.02-4.55-1.55-5.79-3.04-5.49-6.59-4.58-20.95,1.91-25.43.89-.61,1.91-1.07,3.39-1.2M100.46,71.34c-5.51,3.37-7.27,14.29-4.24,21.62.96,2.31,2.33,4.38,4.1,5.51.7.44,1.56.83,2.33.99,1.7.34,3.15-.12,4.31-.78,3.62-2.06,5.72-7.38,5.93-12.79.23-5.85-1.59-11-4.8-13.78-1.23-1.06-2.91-1.92-4.95-1.7-1.01.11-1.96.48-2.68.92"/>
                <path class="cls-3" d="M180.78,70.35c.2.3.54,1,.78,1.7.2.58.56,1.4.49,1.77-.08.46-.96,1.1-1.27,1.41-.49.5-.81,1.07-1.34,1.34.03-.39-.28-.69-.28-1.06,0-.58.55-1.83.78-2.54.31-.97.66-1.76.85-2.61"/>
                <path class="cls-4" d="M107.1,71.98c-.83,2.28-1.29,4.92-2.05,7.28-.52-.37-1.46-.44-2.19-.21-.32-2.51-.49-5.16-.85-7.63,1.6-.72,3.96-.24,5.09.57M102.36,71.55c.21,2.41.55,4.68.71,7.14.49-.04,1.25-.06,1.84.14.57-2.28,1.2-4.5,1.77-6.78-.95-.65-2.9-.95-4.31-.49"/>
                <path class="cls-3" d="M106.67,72.05c-.57,2.28-1.2,4.5-1.77,6.78-.58-.2-1.35-.19-1.84-.14-.16-2.46-.5-4.73-.71-7.14,1.41-.46,3.36-.15,4.31.49"/>
                <path class="cls-4" d="M99.19,73.39c.06-.01.07.03.07.07,1.01,1.94,1.89,4,2.83,6.01-.16.44-.6.68-.85,1.06-.19.3-.29.67-.49.99-1.43-1.3-2.62-2.84-3.89-4.31.56-1.49,1.36-2.74,2.33-3.82M97.14,77.2c1.23,1.25,2.27,2.68,3.53,3.89.22-.73.78-1.1,1.13-1.7-.99-1.74-1.67-3.79-2.68-5.51-.81.96-1.45,2.08-1.98,3.32"/>
                <path class="cls-3" d="M99.11,73.88c1.01,1.72,1.7,3.77,2.68,5.51-.35.59-.91.97-1.13,1.69-1.27-1.21-2.31-2.64-3.53-3.88.52-1.24,1.17-2.36,1.98-3.32"/>
                <path class="cls-4" d="M109.15,74.1h.21c.95,1.34,1.76,2.81,2.26,4.59-1.44,1.19-2.89,2.38-4.45,3.46-.04-.5-.76-1.12-.78-1.62-.01-.3.42-1.13.64-1.62.63-1.46,1.65-3.5,2.12-4.8M106.67,80.45c.16.45.48.74.57,1.27.79-.38,1.37-1.03,2.05-1.55.66-.52,1.47-.93,1.98-1.62-.48-1.5-1.07-2.88-1.98-3.96-.89,1.93-1.71,3.94-2.61,5.86"/>
                <path class="cls-3" d="M109.29,74.59c.9,1.07,1.5,2.46,1.98,3.96-.51.69-1.32,1.11-1.98,1.62-.68.53-1.26,1.17-2.05,1.55-.09-.53-.4-.82-.57-1.27.9-1.92,1.72-3.93,2.61-5.86"/>
                <path class="cls-4" d="M174.84,78.48c-.07.49-.08,1.04-.07,1.62-.93.27-2.05.35-3.18.42.06-1-.14-2.26.14-3.04,1.01.07,2.14.63,3.11.99M171.88,80.24c.96,0,1.71-.23,2.61-.28v-1.41c-.9-.23-1.69-.57-2.54-.85-.07.8-.09,1.66-.07,2.54"/>
                <path class="cls-3" d="M171.95,77.7c.86.27,1.64.62,2.54.85v1.41c-.91.06-1.65.28-2.61.28-.02-.89,0-1.74.07-2.54"/>
                <path class="cls-4" d="M182.9,78.55c.16.48.03,1.24.07,1.84-.91-.34-2.39-.47-3.39-.49v-1.27c1.05-.03,2.4-.14,3.32-.07M179.86,78.83v.71c.86.23,1.89.28,2.83.42v-1.2c-.96,0-1.81.12-2.83.07"/>
                <path class="cls-3" d="M182.68,78.76v1.2c-.94-.14-1.97-.2-2.83-.42v-.71c1.01.05,1.86-.07,2.83-.07"/>
                <path class="cls-4" d="M10.04,81.79c.26.69.21,1.67.21,2.61s.1,1.92-.28,2.47c-.4.57-1.55.88-2.33.92-1.1.06-2.16-.32-2.97-.64-.28-1.54-.5-3.44-.78-5.3-.1-.66-.3-1.41,0-1.77.1-.15.09-.21.28-.21.88-.02,1.95.56,2.97.92,1.06.38,2.03.77,2.9.99M4.24,80.1c-.09.03-.14.09-.14.21.02,2.2.55,4.49.85,6.64,1.13.68,4.22.95,4.88-.42.26-.55.14-1.43.14-2.26,0-.78.03-1.61-.14-2.26-1.93-.57-3.64-1.35-5.58-1.91"/>
                <path class="cls-3" d="M9.82,82.01c.17.65.14,1.48.14,2.26,0,.83.12,1.71-.14,2.26-.66,1.38-3.74,1.1-4.87.42-.3-2.15-.83-4.45-.85-6.64,0-.12.05-.18.14-.21,1.94.56,3.65,1.34,5.58,1.91"/>
                <path class="cls-3" d="M164.53,80.24h.14c-.37,1.09-1.15,2.24-2.05,2.97-.82.66-1.56.79-3.04.99-3.72.49-8.38,1.11-12.15,1.55-.22-.03.03-.3.07-.42.17-.53.23-1.48-.14-1.98,5.86-.9,11.88-1.64,17.17-3.11"/>
                <path class="cls-4" d="M82.8,89c-.42.62-1.32.54-2.05.57-4.14.13-8.79,0-13.07,0-2.75,0-6.24.43-7.35-1.13-.33-.46-.53-1.29-.71-2.19-.16-.8-.45-1.8-.28-2.4.3-1.06,2.08-1.06,3.74-1.2,4.66-.41,9.15-.64,13.85-.99.99-.07,2.23.15,2.9.71.74.62,1.2,2.01,1.7,3.18.25.6.46,1.2.71,1.77.25.58.63,1.13.57,1.69M81.88,87.23c-.24-.57-.49-1.17-.78-1.84-.89-2.05-1.29-3.69-4.31-3.53-4.2.22-8.82.62-13.28.99-1.47.12-3.46.16-3.81.85-.34.64.07,1.6.21,2.33.17.85.3,1.79.64,2.26.76,1.08,2.72.99,4.8.99h11.58c1.96,0,4.05.19,5.58-.28-.01-.68-.4-1.21-.64-1.77"/>
                <path class="cls-3" d="M82.51,89c-1.54.48-3.62.28-5.58.28h-11.59c-2.08,0-4.04.09-4.8-.99-.33-.47-.47-1.41-.64-2.26-.14-.73-.55-1.69-.21-2.33.36-.69,2.34-.73,3.81-.85,4.46-.37,9.09-.77,13.28-.99,3.02-.16,3.42,1.48,4.31,3.53.29.67.53,1.27.78,1.84.24.56.62,1.08.64,1.77"/>
                <path class="cls-4" d="M175.48,83.21c-.34.69-.83,1.3-1.27,1.91-.44.61-.82,1.3-1.41,1.77-.3-.24-.38-.75-.49-1.2-.12-.45-.36-1.08-.28-1.41.09-.39.89-.76,1.34-1.13.65-.53,1.06-.94,1.48-1.27.46.2.33.99.63,1.34M173.99,84.9c.63-.88,1.66-1.71.71-2.61-.7.8-1.75,1.27-2.4,2.12.17.67.35,1.34.49,2.05.42-.29.74-.91,1.2-1.55"/>
                <path class="cls-4" d="M179.29,82.22c1.09,1.09,1.87,2.51,2.9,3.67-.26.88-.49,1.77-.92,2.47-.38-.26-.49-.73-.71-1.13-.58-1.08-1.26-2.29-1.84-3.46.15-.56.36-1.05.57-1.55M179.01,83.77c.58.99,1.13,2.1,1.62,3.04.19.35.34.74.64.99.18-.62.46-1.14.57-1.84-.82-1.09-1.59-2.23-2.47-3.25-.02.45-.3.65-.35,1.06"/>
                <path class="cls-3" d="M172.79,86.46c-.14-.71-.32-1.38-.49-2.05.65-.85,1.7-1.32,2.4-2.12.95.9-.07,1.74-.71,2.61-.46.64-.78,1.26-1.2,1.55"/>
                <path class="cls-4" d="M49.74,90.48c-12.1.53-24.66-.13-35.74-1.27-.08-.81-.11-1.7-.14-2.61-.03-.88-.18-1.91,0-2.61.49-1.94,3.26-1.56,5.79-1.48,7.71.24,16.13.49,23.95.85.59.03,1.22,0,1.77.07,1.38.19,2.99,1.17,3.46,2.19.55,1.2.49,3.56.92,4.87M48.54,85.75c-.43-.95-1.84-1.83-3.11-2.05-1.12-.19-2.45-.1-3.67-.14-7.28-.22-14.84-.49-22.11-.78-2.11-.08-4.91-.45-5.44.99-.51,1.39.29,3.39,0,5.16,10.88,1.3,23.03,1.61,35.18,1.41-.33-1.34-.33-3.46-.85-4.59"/>
                <path class="cls-4" d="M100.1,83.7c.04.45-.02,1.25,0,1.91-1.42.23-3.22.45-4.66.42-.17-1.07-.04-2.44.07-3.46,1.59.32,3.05.77,4.59,1.13M95.72,82.93c-.05.94-.1,1.88-.07,2.9,1.39-.14,2.84-.23,4.17-.42v-1.48c-1.32-.33-2.87-.8-4.1-.99"/>
                <path class="cls-3" d="M49.38,90.34c-12.15.19-24.3-.11-35.18-1.41.29-1.77-.51-3.77,0-5.16.53-1.44,3.33-1.07,5.44-.99,7.27.29,14.83.55,22.11.78,1.22.04,2.55-.05,3.67.14,1.27.22,2.67,1.09,3.11,2.05.51,1.13.52,3.25.85,4.59"/>
                <path class="cls-3" d="M179.36,82.71c.89,1.02,1.66,2.16,2.47,3.25-.1.7-.39,1.21-.57,1.84-.29-.25-.45-.64-.64-.99-.5-.94-1.05-2.04-1.62-3.04.06-.42.33-.61.35-1.06"/>
                <path class="cls-3" d="M99.82,83.91v1.48c-1.33.2-2.78.28-4.17.42-.03-1.02.02-1.95.07-2.9,1.22.19,2.78.66,4.1.99"/>
                <path class="cls-3" d="M147.08,85.82c-9.4,1.05-18.83,2.45-28.47,3.04-.15-.6-.02-1.27,0-1.91,8.97-.93,19.28-2.39,27.83-3.46.12-.02.15-.07.28-.07,1.07.02.54,1.7.35,2.4"/>
                <path class="cls-4" d="M112.54,83.91v1.84c-1.65-.21-3.44-.28-5.02-.57.04-.39-.08-.93.07-1.2,1.54-.09,3.38-.24,4.94-.07M112.25,84.13c-1.29-.06-2.98.08-4.45.07v.78c1.4.25,3.01.28,4.45.49v-1.34Z"/>
                <path class="cls-3" d="M112.25,85.47c-1.44-.21-3.05-.24-4.45-.49v-.78c1.47,0,3.16-.13,4.45-.07v1.34Z"/>
                <path class="cls-4" d="M178.09,84.55c.1,2.39.19,4.81.28,7.21-.56.32-1.68.26-2.26,0,0-2.17.21-4.73.35-6.99.36.06,1.18.26,1.48-.21h.14ZM176.33,91.54c.56.2,1.16.21,1.77.07-.15-2.13-.15-4.42-.28-6.57-.28.05-.8.15-1.06,0-.18,2.13-.22,4.39-.42,6.5"/>
                <path class="cls-3" d="M176.75,85.04c.26.15.78.05,1.06,0,.14,2.15.13,4.44.28,6.57-.6.14-1.21.13-1.77-.07.2-2.11.24-4.37.42-6.5"/>
                <path class="cls-4" d="M101.16,89.14c-1.29,1.45-2.65,2.81-4.03,4.17-.53-.93-.92-2-1.13-3.25,1.6-.73,2.95-1.71,4.45-2.54.18.45.34,1.17.71,1.62M100.17,87.94c-.54.36-1.1.75-1.98,1.27-.6.35-1.73.73-1.84,1.2-.07.28.24.84.35,1.2.15.45.3.81.42,1.2,1.35-1.12,2.52-2.42,3.67-3.74-.31-.28-.29-.89-.64-1.13"/>
                <path class="cls-3" d="M100.81,89.07c-1.15,1.32-2.32,2.62-3.67,3.74-.13-.39-.27-.75-.42-1.2-.12-.36-.42-.92-.35-1.2.11-.47,1.24-.85,1.84-1.2.88-.52,1.44-.91,1.98-1.27.35.24.32.85.64,1.13"/>
                <path class="cls-4" d="M107.1,88.01c1.51,1.27,2.79,2.77,4.24,4.1-.32,1.02-.83,1.85-1.27,2.76-.78-.73-1.34-1.67-1.98-2.54-.64-.87-1.25-1.77-1.91-2.61.3-.57.59-1.15.92-1.7M106.53,89.71c1.18,1.53,2.22,3.2,3.46,4.66.38-.68.75-1.37.99-2.19-1.23-1.29-2.55-2.49-3.82-3.74-.17.47-.49.78-.64,1.27"/>
                <path class="cls-3" d="M107.17,88.44c1.27,1.26,2.58,2.45,3.82,3.74-.24.82-.61,1.51-.99,2.19-1.24-1.46-2.28-3.13-3.46-4.66.14-.5.47-.8.64-1.27"/>
                <path class="cls-4" d="M104.98,90.63h.14c.17,2.68.27,5.43.42,8.12-1.07.17-2.6.28-3.39-.21.27-2.51.37-5.19.64-7.7.73.17,1.71.24,2.19-.21M104.77,91.05c-.5.2-1.15.26-1.7.07-.22,2.42-.42,4.85-.56,7.35.77.17,2,.24,2.75,0-.23-2.41-.15-5.13-.49-7.42"/>
                <path class="cls-3" d="M105.26,98.47c-.76.24-1.98.17-2.76,0,.14-2.5.35-4.93.57-7.35.54.19,1.2.13,1.7-.07.35,2.29.26,5.01.49,7.42"/>
                <path class="cls-3" d="M5.44,91.97c7.18.27,14.41.42,21.62.42s14.26-.33,21.33,0c14.19.66,28.16.93,41.47,2.54-.09.54-.91.89-1.55,1.06-2.06.53-5.46.35-7.91.35h-11.02c-22.02,0-43.91-.15-63.72-2.4-.19-.49-.17-1.2-.28-1.77,0-.1-.01-.2.07-.21"/>
                <path class="cls-3" d="M36.95,96.28c-1.96,5.53-10.71,6.52-18.51,5.86-4.99-.42-8.07-3.12-9.39-7.28-.05-.06-.11-.19,0-.21,9.05.79,18.37,1.32,27.9,1.62"/>
                <path class="cls-3" d="M92.9,55.09c.29.01.01.05,0,.14-4.88,2.63-8.13,6.9-9.75,12.79-3.69,2.09-8.46,2.88-13.35,3.67-4.87.8-10.03,1.5-15.12,1.91,1.32-3.9,3.27-6.91,5.65-10.03.31-.4.79-1.03,1.06-1.13.52-.2,1.46-.15,2.26-.21,2.24-.17,4.56-.35,6.64-.64,2.67-.37,5.33-1.3,7.7-1.98,5.36-1.54,10-2.96,14.91-4.52"/>
                <path class="cls-3" d="M103.14,70.42c2.04-.23,3.72.64,4.95,1.7,3.22,2.77,5.04,7.92,4.8,13.77-.22,5.41-2.32,10.73-5.93,12.79-1.15.66-2.61,1.12-4.31.78-.77-.15-1.64-.54-2.33-.99-1.77-1.13-3.14-3.2-4.1-5.51-3.03-7.33-1.27-18.25,4.24-21.62.72-.44,1.67-.8,2.68-.92M102.01,71.41c.35,2.47.53,5.12.85,7.63.73-.22,1.67-.16,2.19.21.76-2.35,1.22-5,2.05-7.28-1.13-.8-3.49-1.28-5.09-.57M96.85,77.2c1.26,1.47,2.45,3.01,3.88,4.31.2-.32.3-.69.5-.99.25-.38.68-.62.85-1.06-.94-2-1.82-4.07-2.83-6,0-.04,0-.08-.07-.07-.97,1.08-1.77,2.32-2.33,3.81M107.03,78.9c-.21.49-.65,1.32-.64,1.62.02.51.74,1.12.78,1.62,1.56-1.08,3.01-2.27,4.45-3.46-.5-1.78-1.31-3.25-2.26-4.59h-.21c-.46,1.3-1.49,3.35-2.12,4.8M95.51,82.57c-.11,1.02-.24,2.39-.07,3.46,1.44.02,3.24-.19,4.66-.42-.02-.66.04-1.45,0-1.91-1.55-.36-3-.81-4.59-1.13M107.59,83.99c-.15.27-.04.81-.07,1.2,1.57.29,3.36.36,5.02.57v-1.84c-1.57-.17-3.4-.02-4.95.07M100.46,87.52c-1.49.84-2.85,1.82-4.45,2.54.21,1.25.6,2.32,1.13,3.25,1.37-1.36,2.74-2.72,4.03-4.17-.37-.45-.52-1.18-.71-1.62M106.18,89.71c.66.84,1.27,1.74,1.91,2.61.64.87,1.2,1.82,1.98,2.54.44-.9.95-1.74,1.27-2.76-1.45-1.32-2.73-2.83-4.24-4.1-.33.54-.62,1.12-.92,1.7M102.79,90.84c-.27,2.51-.37,5.19-.64,7.7.79.49,2.32.38,3.39.21-.16-2.69-.26-5.44-.42-8.12h-.14c-.48.45-1.46.38-2.19.21"/>
              </g>
            </g>
          </g>
          <g>
            <path class="cls-2" d="M175.37,4.28s.49-5.65-4.64-3.25l-11.56,5.39s-5.14,2.4-.49,5.65l10.45,7.32s4.64,3.25,5.14-2.4l1.11-12.71Z"/>
            <path class="cls-10" d="M169.58,2.18s-2.83-4.91-5.67,0l-6.38,11.05s-2.83,4.91,2.83,4.91h12.76s5.67,0,2.83-4.91l-6.38-11.05Z"/>
            <path class="cls-6" d="M175.59,5.25s1.89-5.34-3.68-4.31l-12.54,2.32s-5.58,1.03-1.89,5.34l8.29,9.7s3.68,4.31,5.57-1.03l4.26-12.02Z"/>
          </g>
          <text class="cls-5" transform="translate(163.45 13.14)"><tspan x="0" y="0">2</tspan></text>
        </g>
      </g>
    </g>
  </g>
</svg>