<?xml version="1.0" encoding="UTF-8"?>
<svg id="Layer_1" data-name="Layer 1" xmlns="http://www.w3.org/2000/svg" xmlns:xlink="http://www.w3.org/1999/xlink" viewBox="0 0 1080 309.63">
  <defs>
    <clipPath id="clippath">
      <rect x="28.21" y="22.97" width="1028.91" height="265.48" style="fill: none;"/>
    </clipPath>
  </defs>
  <g style="opacity: .6;">
    <g style="clip-path: url(#clippath);">
      <path d="M48.62,25.12c-10.09,0-18.26,8.18-18.26,18.26v208.8c0,10.09,8.18,18.39,18.26,18.55l988.1,15.57c10.08.16,18.26-7.89,18.26-17.97V43.38c0-10.08-8.18-18.26-18.26-18.26H48.62Z" style="fill: #5aba4e;"/>
    </g>
  </g>
  <polygon points="23.06 21.83 60.55 282.05 1044.51 271.06 1032.33 41.66 23.06 21.83" style="fill: #fff;"/>
  <polygon points="23.06 21.83 60.55 282.05 1044.51 271.06 1032.33 41.66 23.06 21.83" style="fill: none; stroke: #41ad49; stroke-linecap: round; stroke-linejoin: round;"/>
  <path d="M312.23,247.8c-.26-.28-.59-.43-1.01-.43s-.75.14-1.01.43c-.26.28-.39.61-.39.97s.13.68.39.97c.26.28.59.43,1.01.43s.75-.14,1.01-.43c.26-.28.39-.61.39-.97s-.13-.68-.39-.97M312.23,257.36c-.26-.28-.59-.43-1.01-.43s-.75.14-1.01.43c-.26.28-.39.61-.39.97s.13.68.39.97.59.43,1.01.43.75-.14,1.01-.43c.26-.28.39-.61.39-.97s-.13-.68-.39-.97M299.31,249.36c-.4-.79-.95-1.35-1.68-1.68-.72-.33-1.5-.49-2.35-.49-.57,0-1.12.07-1.65.22-.53.15-1.01.37-1.43.66-.42.29-.76.67-1.01,1.13s-.37,1-.37,1.62c0,.57.12,1.04.36,1.43s.53.7.86.94.68.42,1.03.54.63.21.84.26l1.65.39c.63.15,1.18.37,1.62.63.45.27.67.7.67,1.3,0,.34-.08.64-.24.9-.16.26-.38.47-.64.63-.27.16-.57.28-.91.36s-.69.12-1.03.12c-.72,0-1.34-.16-1.87-.49-.52-.33-.96-.76-1.3-1.31l-1.47,1.01c.57.86,1.25,1.46,2.05,1.82.8.35,1.66.53,2.59.53.58,0,1.16-.07,1.73-.21.57-.14,1.07-.36,1.51-.66.44-.3.79-.69,1.06-1.16.27-.47.4-1.04.4-1.69,0-.86-.28-1.58-.84-2.15-.56-.58-1.26-.96-2.1-1.15l-1.73-.41c-.79-.19-1.38-.41-1.78-.67-.4-.26-.59-.67-.59-1.24,0-.33.07-.6.22-.82.14-.22.34-.41.58-.55s.51-.25.81-.32c.3-.07.59-.1.89-.1.62,0,1.14.15,1.57.44.43.29.77.69,1.03,1.19l1.52-1.01ZM288.3,254v-.77c0-.82-.13-1.6-.39-2.33-.26-.73-.63-1.37-1.12-1.91-.49-.54-1.1-.97-1.82-1.3s-1.54-.49-2.45-.49c-.86,0-1.66.16-2.4.48-.74.32-1.38.76-1.93,1.33s-.98,1.24-1.29,2.01c-.31.77-.46,1.61-.46,2.53s.16,1.75.48,2.53c.32.77.75,1.44,1.3,2.01s1.21,1.01,1.97,1.33,1.59.48,2.49.48c1,0,1.93-.2,2.8-.59.87-.4,1.66-1.05,2.38-1.96l-1.31-1.08c-.34.55-.85,1.04-1.51,1.46-.66.42-1.45.63-2.36.63-.6,0-1.16-.11-1.68-.33-.52-.22-.97-.53-1.37-.91-.4-.39-.71-.85-.95-1.38-.24-.53-.39-1.1-.44-1.7h10.05ZM278.3,252.61c0-.5.12-.98.35-1.44s.54-.88.93-1.24c.39-.36.84-.65,1.35-.86.52-.21,1.05-.32,1.6-.32,1.24,0,2.2.36,2.89,1.07.69.71,1.03,1.65,1.03,2.8h-8.14ZM271.4,241.32h-2.35l-2.58,3.71h1.52l3.4-3.71ZM273.97,254v-.77c0-.82-.13-1.6-.39-2.33-.26-.73-.63-1.37-1.12-1.91-.49-.54-1.1-.97-1.82-1.3s-1.54-.49-2.45-.49c-.86,0-1.66.16-2.4.48-.74.32-1.38.76-1.93,1.33-.55.57-.98,1.24-1.29,2.01-.31.77-.46,1.61-.46,2.53s.16,1.75.48,2.53c.32.77.75,1.44,1.3,2.01s1.21,1.01,1.97,1.33,1.59.48,2.49.48c1,0,1.93-.2,2.8-.59.87-.4,1.66-1.05,2.38-1.96l-1.31-1.08c-.34.55-.85,1.04-1.51,1.46-.66.42-1.45.63-2.36.63-.6,0-1.16-.11-1.68-.33-.52-.22-.97-.53-1.37-.91-.4-.39-.71-.85-.95-1.38-.24-.53-.39-1.1-.44-1.7h10.05ZM263.98,252.61c0-.5.12-.98.35-1.44s.54-.88.93-1.24c.39-.36.84-.65,1.35-.86.52-.21,1.05-.32,1.6-.32,1.24,0,2.2.36,2.89,1.07.69.71,1.03,1.65,1.03,2.8h-8.14ZM260.42,247.5h-3.48v-3.4h-1.7v3.4h-2.55v1.55h2.55v7.6c0,.67.09,1.21.28,1.62.19.41.43.74.72.98s.61.4.97.49c.35.09.69.13,1.02.13.89,0,1.66-.15,2.29-.44l-.08-1.57c-.26.14-.54.25-.85.34-.31.09-.61.13-.9.13-.26,0-.49-.03-.71-.09-.21-.06-.4-.17-.55-.32-.15-.15-.27-.37-.36-.66-.09-.28-.13-.65-.13-1.1v-7.11h3.48v-1.55ZM251.12,249.36c-.4-.79-.95-1.35-1.68-1.68s-1.5-.49-2.35-.49c-.57,0-1.12.07-1.65.22-.53.15-1.01.37-1.43.66-.42.29-.76.67-1.01,1.13s-.37,1-.37,1.62c0,.57.12,1.04.36,1.43s.53.7.86.94.68.42,1.03.54.63.21.84.26l1.65.39c.64.15,1.18.37,1.62.63.45.27.67.7.67,1.3,0,.34-.08.64-.24.9-.16.26-.38.47-.64.63-.27.16-.57.28-.91.36-.34.08-.69.12-1.03.12-.72,0-1.34-.16-1.87-.49-.52-.33-.96-.76-1.3-1.31l-1.47,1.01c.57.86,1.25,1.46,2.05,1.82.8.35,1.66.53,2.59.53.58,0,1.16-.07,1.73-.21.57-.14,1.07-.36,1.51-.66.44-.3.79-.69,1.06-1.16.27-.47.4-1.04.4-1.69,0-.86-.28-1.58-.84-2.15-.56-.58-1.26-.96-2.1-1.15l-1.73-.41c-.79-.19-1.38-.41-1.78-.67-.4-.26-.59-.67-.59-1.24,0-.33.07-.6.22-.82.15-.22.34-.41.58-.55s.51-.25.81-.32c.3-.07.6-.1.89-.1.62,0,1.14.15,1.57.44.43.29.77.69,1.03,1.19l1.52-1.01ZM240.11,254v-.77c0-.82-.13-1.6-.39-2.33-.26-.73-.63-1.37-1.12-1.91-.49-.54-1.1-.97-1.82-1.3-.72-.33-1.54-.49-2.45-.49-.86,0-1.66.16-2.4.48-.74.32-1.38.76-1.93,1.33s-.98,1.24-1.29,2.01c-.31.77-.46,1.61-.46,2.53s.16,1.75.48,2.53c.32.77.75,1.44,1.3,2.01.55.57,1.21,1.01,1.97,1.33.76.32,1.59.48,2.49.48,1,0,1.93-.2,2.8-.59.87-.4,1.66-1.05,2.38-1.96l-1.31-1.08c-.34.55-.85,1.04-1.51,1.46-.66.42-1.45.63-2.36.63-.6,0-1.16-.11-1.68-.33-.52-.22-.97-.53-1.37-.91-.4-.39-.71-.85-.95-1.38-.24-.53-.39-1.1-.44-1.7h10.05ZM230.11,252.61c0-.5.12-.98.35-1.44.23-.46.54-.88.93-1.24s.84-.65,1.35-.86c.52-.21,1.05-.32,1.6-.32,1.24,0,2.2.36,2.89,1.07.69.71,1.03,1.65,1.03,2.8h-8.14ZM226.56,247.5h-3.48v-3.4h-1.7v3.4h-2.55v1.55h2.55v7.6c0,.67.09,1.21.28,1.62.19.41.43.74.72.98s.61.4.97.49c.35.09.69.13,1.02.13.89,0,1.66-.15,2.29-.44l-.08-1.57c-.26.14-.54.25-.85.34-.31.09-.61.13-.9.13-.26,0-.49-.03-.71-.09-.21-.06-.4-.17-.55-.32-.15-.15-.27-.37-.36-.66-.09-.28-.13-.65-.13-1.1v-7.11h3.48v-1.55ZM214.65,241.32h-2.35l-2.58,3.71h1.52l3.4-3.71ZM217.23,254v-.77c0-.82-.13-1.6-.39-2.33-.26-.73-.63-1.37-1.12-1.91-.49-.54-1.1-.97-1.82-1.3s-1.54-.49-2.45-.49c-.86,0-1.66.16-2.4.48-.74.32-1.38.76-1.93,1.33s-.98,1.24-1.29,2.01c-.31.77-.46,1.61-.46,2.53s.16,1.75.48,2.53c.32.77.75,1.44,1.3,2.01.55.57,1.21,1.01,1.97,1.33.76.32,1.59.48,2.49.48,1,0,1.93-.2,2.8-.59.87-.4,1.66-1.05,2.38-1.96l-1.31-1.08c-.34.55-.85,1.04-1.51,1.46-.66.42-1.45.63-2.36.63-.6,0-1.16-.11-1.68-.33-.52-.22-.97-.53-1.37-.91-.4-.39-.71-.85-.95-1.38-.24-.53-.39-1.1-.44-1.7h10.05ZM207.23,252.61c0-.5.12-.98.35-1.44s.54-.88.93-1.24c.39-.36.84-.65,1.35-.86s1.05-.32,1.6-.32c1.24,0,2.2.36,2.89,1.07.69.71,1.03,1.65,1.03,2.8h-8.14ZM202.28,240.08h-1.7v9.43h-.05c-.27-.41-.6-.76-.98-1.06-.38-.29-.77-.53-1.19-.72-.41-.19-.84-.33-1.28-.41s-.85-.13-1.25-.13c-.94,0-1.81.16-2.59.48-.78.32-1.46.76-2.02,1.33-.57.57-1.01,1.24-1.33,2.01-.32.77-.48,1.61-.48,2.53s.16,1.75.48,2.53c.32.77.76,1.44,1.33,2.01.57.57,1.24,1.01,2.02,1.33.78.32,1.64.48,2.59.48.4,0,.81-.04,1.25-.13.44-.09.86-.22,1.28-.41.41-.19.81-.43,1.19-.72.38-.29.7-.64.98-1.06h.05v2.01h1.7v-19.48ZM191.6,251.65c.21-.58.52-1.09.91-1.52.4-.43.87-.77,1.43-1.02.56-.25,1.19-.37,1.89-.37s1.33.12,1.92.37,1.1.59,1.53,1.02c.43.43.76.94,1.01,1.52.24.58.36,1.21.36,1.88s-.12,1.3-.36,1.88-.58,1.09-1.01,1.52c-.43.43-.94.77-1.53,1.02s-1.23.37-1.92.37-1.34-.12-1.89-.37c-.56-.25-1.04-.59-1.43-1.02-.4-.43-.7-.94-.91-1.52-.21-.58-.32-1.21-.32-1.88s.11-1.3.32-1.88M180.05,249.36c-.4-.79-.95-1.35-1.68-1.68s-1.5-.49-2.35-.49c-.57,0-1.12.07-1.65.22-.53.15-1.01.37-1.43.66-.42.29-.76.67-1.01,1.13-.25.46-.37,1-.37,1.62,0,.57.12,1.04.36,1.43s.53.7.86.94.68.42,1.03.54c.35.12.63.21.84.26l1.65.39c.64.15,1.18.37,1.62.63.45.27.67.7.67,1.3,0,.34-.08.64-.24.9-.16.26-.38.47-.64.63-.27.16-.57.28-.91.36-.34.08-.69.12-1.03.12-.72,0-1.34-.16-1.87-.49-.52-.33-.96-.76-1.3-1.31l-1.47,1.01c.57.86,1.25,1.46,2.05,1.82.8.35,1.66.53,2.59.53.58,0,1.16-.07,1.73-.21.57-.14,1.07-.36,1.51-.66.44-.3.79-.69,1.06-1.16s.4-1.04.4-1.69c0-.86-.28-1.58-.84-2.15-.56-.58-1.26-.96-2.1-1.15l-1.73-.41c-.79-.19-1.38-.41-1.78-.67-.4-.26-.59-.67-.59-1.24,0-.33.07-.6.22-.82.15-.22.34-.41.58-.55s.51-.25.81-.32c.3-.07.6-.1.89-.1.62,0,1.14.15,1.57.44.43.29.77.69,1.03,1.19l1.52-1.01ZM169.05,254v-.77c0-.82-.13-1.6-.39-2.33-.26-.73-.63-1.37-1.12-1.91-.49-.54-1.1-.97-1.82-1.3s-1.54-.49-2.45-.49c-.86,0-1.66.16-2.4.48-.74.32-1.38.76-1.93,1.33-.55.57-.98,1.24-1.29,2.01-.31.77-.46,1.61-.46,2.53s.16,1.75.48,2.53c.32.77.75,1.44,1.3,2.01.55.57,1.21,1.01,1.97,1.33.76.32,1.59.48,2.49.48,1,0,1.93-.2,2.8-.59.87-.4,1.66-1.05,2.38-1.96l-1.31-1.08c-.34.55-.85,1.04-1.51,1.46-.66.42-1.45.63-2.36.63-.6,0-1.16-.11-1.68-.33-.52-.22-.97-.53-1.37-.91-.4-.39-.71-.85-.95-1.38-.24-.53-.39-1.1-.44-1.7h10.05ZM159.05,252.61c0-.5.12-.98.35-1.44.23-.46.54-.88.93-1.24s.84-.65,1.35-.86,1.05-.32,1.6-.32c1.24,0,2.2.36,2.89,1.07.69.71,1.03,1.65,1.03,2.8h-8.14ZM149.9,259.56h1.7v-6.8c0-.41.07-.84.22-1.29.15-.45.37-.86.68-1.25.31-.39.7-.7,1.16-.95.46-.25,1.02-.37,1.68-.37.43,0,.76.04.98.13l.34-1.68c-.36-.1-.78-.15-1.26-.15-.53,0-1.01.07-1.43.22-.42.15-.79.34-1.11.58s-.59.51-.81.81c-.22.3-.4.61-.52.94h-.05v-2.24h-1.68c.02.88.04,1.59.06,2.14.03.55.04,1.09.04,1.62v8.3ZM140.76,245.03h1.52l-2.58-3.71h-2.35l3.4,3.71ZM146.63,254v-.77c0-.82-.13-1.6-.39-2.33-.26-.73-.63-1.37-1.12-1.91-.49-.54-1.1-.97-1.82-1.3s-1.54-.49-2.45-.49c-.86,0-1.66.16-2.4.48-.74.32-1.38.76-1.93,1.33-.55.57-.98,1.24-1.29,2.01-.31.77-.46,1.61-.46,2.53s.16,1.75.48,2.53c.32.77.75,1.44,1.3,2.01.55.57,1.21,1.01,1.97,1.33.76.32,1.59.48,2.49.48,1,0,1.93-.2,2.8-.59.87-.4,1.66-1.05,2.38-1.96l-1.31-1.08c-.34.55-.85,1.04-1.51,1.46-.66.42-1.45.63-2.36.63-.6,0-1.16-.11-1.68-.33-.52-.22-.97-.53-1.37-.91-.4-.39-.71-.85-.95-1.38-.24-.53-.39-1.1-.44-1.7h10.05ZM136.63,252.61c0-.5.12-.98.35-1.44s.54-.88.93-1.24.84-.65,1.35-.86c.52-.21,1.05-.32,1.6-.32,1.24,0,2.2.36,2.89,1.07.69.71,1.03,1.65,1.03,2.8h-8.14ZM131.3,247.5h-1.7v12.06h1.7v-12.06ZM131.3,241.98c-.26-.23-.54-.35-.85-.35s-.59.12-.85.35c-.26.23-.39.53-.39.89s.13.66.39.89c.26.23.54.35.85.35s.59-.12.85-.35c.26-.23.39-.53.39-.89s-.13-.66-.39-.89M126.89,247.5h-3.48v-3.4h-1.7v3.4h-2.55v1.55h2.55v7.6c0,.67.09,1.21.28,1.62.19.41.43.74.72.98.29.24.61.4.97.49.35.09.69.13,1.02.13.89,0,1.66-.15,2.29-.44l-.08-1.57c-.26.14-.54.25-.85.34-.31.09-.61.13-.9.13-.26,0-.49-.03-.71-.09-.21-.06-.4-.17-.55-.32-.15-.15-.27-.37-.36-.66s-.13-.65-.13-1.1v-7.11h3.48v-1.55ZM114.16,252.17c-.72,0-1.52.03-2.38.1-.87.07-1.68.24-2.45.52-.76.27-1.4.69-1.91,1.25s-.76,1.33-.76,2.31c0,.58.12,1.1.35,1.53s.54.81.93,1.11c.39.3.83.52,1.33.67.5.15,1.01.22,1.55.22.98,0,1.81-.18,2.49-.53s1.27-.93,1.77-1.74h.05c0,.33.01.66.04,1.01s.06.66.12.95h1.65c-.05-.33-.1-.74-.14-1.25-.04-.51-.06-.99-.06-1.46v-5.39c0-.74-.12-1.37-.36-1.91-.24-.53-.56-.97-.95-1.33s-.86-.61-1.4-.79c-.54-.17-1.1-.26-1.69-.26-2.27,0-3.97.58-5.1,1.75l1.03,1.21c1.05-.94,2.28-1.42,3.69-1.42,2.06,0,3.09,1.04,3.09,3.12v.31h-.85ZM115.01,253.56v.88c0,.53-.07,1.04-.22,1.51s-.37.88-.68,1.24-.69.63-1.15.84c-.46.21-.99.31-1.61.31-.34,0-.68-.04-1.02-.12-.34-.08-.64-.21-.91-.39-.27-.18-.49-.41-.66-.7-.16-.28-.24-.62-.24-1.02,0-.6.21-1.07.63-1.42s.93-.6,1.52-.76,1.21-.27,1.86-.31c.64-.04,1.18-.06,1.61-.06h.88ZM85.33,259.56h1.7v-6.18c0-1.1.16-1.96.48-2.58.32-.62.67-1.08,1.07-1.39.4-.31.78-.5,1.15-.57.37-.07.61-.1.71-.1,1.17,0,1.97.33,2.4.98.43.65.64,1.59.64,2.81v7.04h1.7v-6.42c0-.57.06-1.11.18-1.64.12-.52.31-.99.58-1.4.27-.41.61-.74,1.04-.99.43-.25.96-.37,1.6-.37,1.17,0,1.97.33,2.4.98.43.65.64,1.59.64,2.81v7.04h1.7v-7.65c0-1.51-.37-2.68-1.11-3.49s-1.88-1.22-3.43-1.22c-.81,0-1.58.22-2.33.67-.75.45-1.29,1.06-1.64,1.83-.21-.52-.46-.94-.76-1.26-.3-.33-.62-.58-.97-.76-.34-.18-.7-.3-1.07-.37s-.72-.1-1.04-.1c-.72,0-1.45.18-2.18.54-.73.36-1.3.89-1.71,1.6h-.05v-1.83h-1.83c.03.45.06.89.09,1.34.03.45.04.89.04,1.34v9.38ZM74.85,257.86h-9.59l5.75-5.7c.46-.45.91-.9,1.35-1.37s.83-.95,1.17-1.47c.34-.52.62-1.07.84-1.65.21-.58.32-1.23.32-1.93,0-.79-.15-1.48-.45-2.07s-.7-1.09-1.21-1.48-1.09-.69-1.75-.89c-.66-.2-1.36-.3-2.1-.3-1.41,0-2.61.39-3.59,1.16-.99.77-1.61,1.84-1.87,3.2l1.96.21c.19-.88.61-1.57,1.26-2.09s1.44-.77,2.37-.77c.48,0,.94.07,1.37.22.43.15.81.36,1.13.63.33.27.58.61.76,1s.27.84.27,1.34c0,.41-.07.81-.21,1.19-.14.38-.32.74-.54,1.08-.22.34-.47.67-.75.98-.27.31-.55.6-.82.88l-7.27,7.4v2.14h11.6v-1.7Z" style="fill: #231f20;"/>
  <path d="M308.06,208.29c-.26-.28-.59-.43-1.01-.43s-.75.14-1.01.43c-.26.28-.39.61-.39.97s.13.68.39.97c.26.28.59.43,1.01.43s.75-.14,1.01-.43c.26-.28.39-.61.39-.97s-.13-.68-.39-.97M308.06,217.85c-.26-.28-.59-.43-1.01-.43s-.75.14-1.01.43c-.26.28-.39.61-.39.97s.13.68.39.97.59.43,1.01.43.75-.14,1.01-.43c.26-.28.39-.61.39-.97s-.13-.68-.39-.97M295.1,209.85c-.4-.79-.95-1.35-1.68-1.68-.72-.33-1.5-.49-2.35-.49-.57,0-1.12.07-1.65.22-.53.15-1.01.37-1.43.66-.42.29-.76.67-1.01,1.13-.25.46-.37,1-.37,1.62,0,.57.12,1.04.36,1.43s.53.7.86.94.68.42,1.03.54.63.21.84.26l1.65.39c.64.15,1.18.37,1.62.63.45.27.67.7.67,1.3,0,.34-.08.64-.24.9s-.38.47-.64.63c-.27.16-.57.28-.91.36s-.69.12-1.03.12c-.72,0-1.34-.16-1.87-.49-.52-.33-.96-.76-1.3-1.31l-1.47,1.01c.57.86,1.25,1.46,2.05,1.82.8.35,1.66.53,2.59.53.58,0,1.16-.07,1.73-.21.57-.14,1.07-.36,1.51-.66.44-.3.79-.69,1.06-1.16.27-.47.4-1.04.4-1.69,0-.86-.28-1.58-.84-2.15-.56-.58-1.26-.96-2.1-1.15l-1.73-.41c-.79-.19-1.38-.41-1.78-.67-.4-.26-.59-.67-.59-1.24,0-.33.07-.6.22-.82.15-.22.34-.41.58-.55s.51-.25.81-.32c.3-.07.6-.1.89-.1.62,0,1.14.15,1.57.44.43.29.77.69,1.03,1.19l1.52-1.01ZM284.1,214.48v-.77c0-.82-.13-1.6-.39-2.33-.26-.73-.63-1.37-1.12-1.91-.49-.54-1.1-.97-1.82-1.3s-1.54-.49-2.45-.49c-.86,0-1.66.16-2.4.48-.74.32-1.38.76-1.93,1.33-.55.57-.98,1.24-1.29,2.01-.31.77-.46,1.61-.46,2.53s.16,1.75.48,2.53c.32.77.75,1.44,1.3,2.01s1.21,1.01,1.97,1.33,1.59.48,2.49.48c1,0,1.93-.2,2.8-.59.87-.4,1.66-1.05,2.38-1.96l-1.31-1.08c-.34.55-.85,1.04-1.51,1.46-.66.42-1.45.63-2.36.63-.6,0-1.16-.11-1.68-.33-.52-.22-.97-.53-1.37-.91-.4-.39-.71-.85-.95-1.38-.24-.53-.39-1.1-.44-1.7h10.05ZM274.1,213.09c0-.5.12-.98.35-1.44s.54-.88.93-1.24c.39-.36.84-.65,1.35-.86.52-.21,1.05-.32,1.6-.32,1.24,0,2.2.36,2.89,1.07.69.71,1.03,1.65,1.03,2.8h-8.14ZM267.19,201.8h-2.35l-2.58,3.71h1.52l3.4-3.71ZM269.77,214.48v-.77c0-.82-.13-1.6-.39-2.33-.26-.73-.63-1.37-1.12-1.91-.49-.54-1.1-.97-1.82-1.3s-1.54-.49-2.45-.49c-.86,0-1.66.16-2.4.48-.74.32-1.38.76-1.93,1.33-.55.57-.98,1.24-1.29,2.01-.31.77-.46,1.61-.46,2.53s.16,1.75.48,2.53c.32.77.75,1.44,1.3,2.01s1.21,1.01,1.97,1.33,1.59.48,2.49.48c1,0,1.93-.2,2.8-.59.87-.4,1.66-1.05,2.38-1.96l-1.31-1.08c-.34.55-.85,1.04-1.51,1.46-.66.42-1.45.63-2.36.63-.6,0-1.16-.11-1.68-.33-.52-.22-.97-.53-1.37-.91-.4-.39-.71-.85-.95-1.38-.24-.53-.39-1.1-.44-1.7h10.05ZM259.77,213.09c0-.5.12-.98.35-1.44s.54-.88.93-1.24c.39-.36.84-.65,1.35-.86.52-.21,1.05-.32,1.6-.32,1.24,0,2.2.36,2.89,1.07.69.71,1.03,1.65,1.03,2.8h-8.14ZM250.62,220.05h1.7v-6.8c0-.41.07-.84.22-1.29.15-.45.37-.86.68-1.25.31-.39.7-.7,1.16-.95s1.02-.37,1.68-.37c.43,0,.76.04.98.13l.34-1.68c-.36-.1-.78-.15-1.26-.15-.53,0-1.01.07-1.43.22-.42.15-.79.34-1.11.58-.32.24-.59.51-.81.81-.22.3-.4.61-.52.94h-.05v-2.24h-1.68c.02.88.04,1.59.06,2.14.03.55.04,1.09.04,1.62v8.3ZM244.77,201.8h-2.35l-2.58,3.71h1.52l3.4-3.71ZM247.35,214.48v-.77c0-.82-.13-1.6-.39-2.33-.26-.73-.63-1.37-1.12-1.91-.49-.54-1.1-.97-1.82-1.3s-1.54-.49-2.45-.49c-.86,0-1.66.16-2.4.48-.74.32-1.38.76-1.93,1.33-.55.57-.98,1.24-1.29,2.01-.31.77-.46,1.61-.46,2.53s.16,1.75.48,2.53c.32.77.75,1.44,1.3,2.01s1.21,1.01,1.97,1.33,1.59.48,2.49.48c1,0,1.93-.2,2.8-.59.87-.4,1.66-1.05,2.38-1.96l-1.31-1.08c-.34.55-.85,1.04-1.51,1.46-.66.42-1.45.63-2.36.63-.6,0-1.16-.11-1.68-.33-.52-.22-.97-.53-1.37-.91-.4-.39-.71-.85-.95-1.38-.24-.53-.39-1.1-.44-1.7h10.05ZM237.35,213.09c0-.5.12-.98.35-1.44s.54-.88.93-1.24c.39-.36.84-.65,1.35-.86.52-.21,1.05-.32,1.6-.32,1.24,0,2.2.36,2.89,1.07.69.71,1.03,1.65,1.03,2.8h-8.14ZM234.1,207.99h-2.86v-3.09c0-.43.03-.83.08-1.21.05-.38.15-.71.31-.99.15-.28.38-.5.67-.66.29-.15.67-.23,1.13-.23.22,0,.45.02.67.05.22.03.44.08.64.13l.31-1.55c-.24-.05-.49-.09-.73-.13-.25-.03-.49-.05-.73-.05-1.22,0-2.2.34-2.94,1.02s-1.11,1.82-1.11,3.41v3.3h-2.55v1.55h2.55v10.51h1.7v-10.51h2.86v-1.55ZM222.81,201.8h-2.35l-2.58,3.71h1.52l3.4-3.71ZM225.39,214.48v-.77c0-.82-.13-1.6-.39-2.33-.26-.73-.63-1.37-1.12-1.91-.49-.54-1.1-.97-1.82-1.3s-1.54-.49-2.45-.49c-.86,0-1.66.16-2.4.48-.74.32-1.38.76-1.93,1.33-.55.57-.98,1.24-1.29,2.01-.31.77-.46,1.61-.46,2.53s.16,1.75.48,2.53c.32.77.75,1.44,1.3,2.01s1.21,1.01,1.97,1.33,1.59.48,2.49.48c1,0,1.93-.2,2.8-.59.87-.4,1.66-1.05,2.38-1.96l-1.31-1.08c-.34.55-.85,1.04-1.51,1.46-.66.42-1.45.63-2.36.63-.6,0-1.16-.11-1.68-.33-.52-.22-.97-.53-1.37-.91-.4-.39-.71-.85-.95-1.38-.24-.53-.39-1.1-.44-1.7h10.05ZM215.39,213.09c0-.5.12-.98.35-1.44s.54-.88.93-1.24c.39-.36.84-.65,1.35-.86.52-.21,1.05-.32,1.6-.32,1.24,0,2.2.36,2.89,1.07.69.71,1.03,1.65,1.03,2.8h-8.14ZM206.24,220.05h1.7v-6.8c0-.41.07-.84.22-1.29s.37-.86.68-1.25c.31-.39.7-.7,1.16-.95s1.02-.37,1.68-.37c.43,0,.76.04.98.13l.33-1.68c-.36-.1-.78-.15-1.26-.15-.53,0-1.01.07-1.43.22-.42.15-.79.34-1.11.58-.32.24-.59.51-.81.81-.22.3-.4.61-.52.94h-.05v-2.24h-1.68c.02.88.04,1.59.06,2.14.03.55.04,1.09.04,1.62v8.3ZM190.32,227.47h1.7v-9.43h.05c.27.41.6.76.98,1.06.38.29.77.53,1.19.72.41.19.84.33,1.28.41.44.09.85.13,1.25.13.94,0,1.81-.16,2.59-.48s1.46-.76,2.02-1.33c.57-.57,1.01-1.24,1.33-2.01.32-.77.48-1.61.48-2.53s-.16-1.75-.48-2.53c-.32-.77-.76-1.44-1.33-2.01-.57-.57-1.24-1.01-2.02-1.33-.78-.32-1.64-.48-2.59-.48-.4,0-.81.04-1.25.13s-.86.22-1.28.41c-.41.19-.81.43-1.19.72-.38.29-.7.64-.98,1.06h-.05v-2.01h-1.7v19.48ZM201,215.9c-.21.58-.52,1.09-.91,1.52-.4.43-.87.77-1.43,1.02-.56.25-1.19.37-1.89.37s-1.35-.12-1.93-.37c-.58-.25-1.09-.59-1.52-1.02-.43-.43-.76-.94-1.01-1.52s-.36-1.21-.36-1.88.12-1.3.36-1.88c.24-.58.58-1.09,1.01-1.52.43-.43.94-.77,1.52-1.02.58-.25,1.23-.37,1.93-.37s1.34.12,1.89.37c.56.25,1.04.59,1.43,1.02.4.43.7.94.91,1.52.21.58.32,1.21.32,1.88s-.11,1.3-.32,1.88M180.09,209.85c-.4-.79-.95-1.35-1.68-1.68s-1.5-.49-2.35-.49c-.57,0-1.12.07-1.65.22-.53.15-1.01.37-1.43.66-.42.29-.76.67-1.01,1.13-.25.46-.37,1-.37,1.62,0,.57.12,1.04.36,1.43s.53.7.86.94.68.42,1.03.54.63.21.84.26l1.65.39c.64.15,1.18.37,1.62.63.45.27.67.7.67,1.3,0,.34-.08.64-.24.9s-.38.47-.64.63c-.27.16-.57.28-.91.36s-.69.12-1.03.12c-.72,0-1.34-.16-1.87-.49-.52-.33-.96-.76-1.3-1.31l-1.47,1.01c.57.86,1.25,1.46,2.05,1.82.8.35,1.66.53,2.59.53.58,0,1.16-.07,1.73-.21.57-.14,1.07-.36,1.51-.66.44-.3.79-.69,1.06-1.16.27-.47.4-1.04.4-1.69,0-.86-.28-1.58-.84-2.15-.56-.58-1.26-.96-2.1-1.15l-1.73-.41c-.79-.19-1.38-.41-1.78-.67-.4-.26-.59-.67-.59-1.24,0-.33.07-.6.22-.82s.34-.41.58-.55.51-.25.81-.32c.3-.07.6-.1.89-.1.62,0,1.14.15,1.57.44.43.29.77.69,1.03,1.19l1.52-1.01ZM169.09,214.48v-.77c0-.82-.13-1.6-.39-2.33-.26-.73-.63-1.37-1.12-1.91-.49-.54-1.1-.97-1.82-1.3s-1.54-.49-2.45-.49c-.86,0-1.66.16-2.4.48-.74.32-1.38.76-1.93,1.33-.55.57-.98,1.24-1.29,2.01-.31.77-.46,1.61-.46,2.53s.16,1.75.48,2.53c.32.77.75,1.44,1.3,2.01.55.57,1.21,1.01,1.97,1.33.76.32,1.59.48,2.49.48,1,0,1.93-.2,2.8-.59.87-.4,1.66-1.05,2.38-1.96l-1.31-1.08c-.34.55-.85,1.04-1.51,1.46-.66.42-1.45.63-2.36.63-.6,0-1.16-.11-1.68-.33-.52-.22-.97-.53-1.37-.91-.4-.39-.71-.85-.95-1.38-.24-.53-.39-1.1-.44-1.7h10.05ZM159.09,213.09c0-.5.12-.98.35-1.44s.54-.88.93-1.24.84-.65,1.35-.86c.52-.21,1.05-.32,1.6-.32,1.24,0,2.2.36,2.89,1.07.69.71,1.03,1.65,1.03,2.8h-8.14ZM149.94,220.05h1.7v-6.8c0-.41.07-.84.22-1.29.14-.45.37-.86.68-1.25.31-.39.7-.7,1.16-.95.46-.25,1.02-.37,1.68-.37.43,0,.75.04.98.13l.34-1.68c-.36-.1-.78-.15-1.26-.15-.53,0-1.01.07-1.43.22-.42.15-.79.34-1.11.58-.32.24-.59.51-.81.81-.23.3-.4.61-.52.94h-.05v-2.24h-1.68c.02.88.04,1.59.06,2.14.03.55.04,1.09.04,1.62v8.3ZM140.79,205.52h1.52l-2.58-3.71h-2.35l3.4,3.71ZM146.67,214.48v-.77c0-.82-.13-1.6-.39-2.33-.26-.73-.63-1.37-1.12-1.91-.49-.54-1.1-.97-1.82-1.3s-1.54-.49-2.45-.49c-.86,0-1.66.16-2.4.48-.74.32-1.39.76-1.93,1.33-.55.57-.98,1.24-1.29,2.01-.31.77-.46,1.61-.46,2.53s.16,1.75.48,2.53c.32.77.75,1.44,1.3,2.01.55.57,1.2,1.01,1.97,1.33.76.32,1.59.48,2.49.48.99,0,1.93-.2,2.8-.59.87-.4,1.66-1.05,2.38-1.96l-1.31-1.08c-.35.55-.85,1.04-1.51,1.46-.66.42-1.45.63-2.36.63-.6,0-1.16-.11-1.68-.33-.52-.22-.97-.53-1.37-.91-.4-.39-.72-.85-.95-1.38-.24-.53-.39-1.1-.44-1.7h10.05ZM136.67,213.09c0-.5.12-.98.35-1.44s.54-.88.93-1.24.84-.65,1.35-.86c.52-.21,1.05-.32,1.6-.32,1.24,0,2.2.36,2.89,1.07.69.71,1.03,1.65,1.03,2.8h-8.14ZM131.33,207.99h-1.7v12.06h1.7v-12.06ZM131.33,202.46c-.26-.23-.54-.35-.85-.35s-.59.12-.85.35c-.26.23-.39.53-.39.89s.13.66.39.89c.26.23.54.35.85.35s.59-.12.85-.35c.26-.23.39-.53.39-.89s-.13-.66-.39-.89M126.93,207.99h-3.48v-3.4h-1.7v3.4h-2.55v1.55h2.55v7.6c0,.67.09,1.21.28,1.62.19.41.43.74.72.98s.61.4.97.49c.35.09.69.13,1.02.13.89,0,1.66-.15,2.29-.44l-.08-1.57c-.26.14-.54.25-.85.34-.31.09-.61.13-.9.13-.26,0-.49-.03-.71-.09-.21-.06-.4-.17-.55-.32-.15-.15-.27-.37-.36-.66-.09-.28-.13-.65-.13-1.1v-7.11h3.48v-1.55ZM114.2,212.65c-.72,0-1.52.03-2.38.1-.87.07-1.68.24-2.45.52s-1.4.69-1.91,1.25-.76,1.33-.76,2.31c0,.58.12,1.1.35,1.53s.54.81.93,1.11c.39.3.83.52,1.33.67.5.15,1.01.22,1.55.22.98,0,1.81-.18,2.49-.53s1.27-.93,1.77-1.74h.05c0,.33.01.66.04,1.01s.06.66.12.95h1.65c-.05-.33-.1-.74-.14-1.25-.04-.51-.06-.99-.06-1.46v-5.39c0-.74-.12-1.37-.36-1.91-.24-.53-.56-.97-.95-1.33-.4-.35-.86-.61-1.4-.79-.54-.17-1.1-.26-1.69-.26-2.27,0-3.97.58-5.1,1.75l1.03,1.21c1.05-.94,2.28-1.42,3.69-1.42,2.06,0,3.09,1.04,3.09,3.12v.31h-.85ZM115.05,214.05v.88c0,.53-.07,1.04-.22,1.51s-.37.88-.68,1.24c-.31.35-.69.63-1.15.84s-.99.31-1.61.31c-.34,0-.68-.04-1.02-.12-.34-.08-.64-.21-.91-.39-.27-.18-.49-.41-.66-.7-.16-.28-.24-.62-.24-1.02,0-.6.21-1.07.63-1.42s.93-.6,1.52-.76,1.21-.27,1.86-.31c.64-.04,1.18-.06,1.61-.06h.88ZM85.36,220.05h1.7v-6.18c0-1.1.16-1.96.48-2.58s.67-1.08,1.07-1.39c.4-.31.78-.5,1.15-.57.37-.07.61-.1.71-.1,1.17,0,1.97.33,2.4.98.43.65.64,1.59.64,2.81v7.04h1.7v-6.42c0-.57.06-1.11.18-1.64.12-.52.31-.99.58-1.4.27-.41.61-.74,1.04-.99.43-.25.96-.37,1.6-.37,1.17,0,1.97.33,2.4.98.43.65.64,1.59.64,2.81v7.04h1.7v-7.65c0-1.51-.37-2.68-1.11-3.49s-1.88-1.22-3.43-1.22c-.81,0-1.58.22-2.33.67-.75.45-1.29,1.06-1.64,1.83-.21-.52-.46-.94-.76-1.26-.3-.33-.62-.58-.97-.76-.34-.18-.7-.3-1.07-.37-.37-.07-.72-.1-1.04-.1-.72,0-1.45.18-2.18.54-.73.36-1.3.89-1.71,1.6h-.05v-1.83h-1.83c.03.45.06.89.09,1.34s.04.89.04,1.34v9.38ZM74.85,218.35h-9.59l5.75-5.7c.46-.45.91-.9,1.35-1.37s.83-.95,1.17-1.47c.34-.52.62-1.07.84-1.65.21-.58.32-1.23.32-1.93,0-.79-.15-1.48-.45-2.07s-.7-1.09-1.21-1.48-1.09-.69-1.75-.89c-.66-.2-1.36-.3-2.1-.3-1.41,0-2.61.39-3.59,1.16-.99.77-1.61,1.84-1.87,3.2l1.96.21c.19-.88.61-1.57,1.26-2.09s1.44-.77,2.37-.77c.48,0,.94.07,1.37.22.43.15.81.36,1.13.63.33.27.58.61.76,1s.27.84.27,1.34c0,.41-.07.81-.21,1.19-.14.38-.32.74-.54,1.08-.22.34-.47.67-.75.98-.27.31-.55.6-.82.88l-7.27,7.4v2.14h11.6v-1.7Z" style="fill: #231f20;"/>
  <path d="M200.16,168.77c-.26-.28-.59-.43-1.01-.43s-.75.14-1.01.43c-.26.28-.39.61-.39.97s.13.68.39.97c.26.28.59.43,1.01.43s.75-.14,1.01-.43c.26-.28.39-.61.39-.97s-.13-.68-.39-.97M200.16,178.33c-.26-.28-.59-.43-1.01-.43s-.75.14-1.01.43c-.26.28-.39.61-.39.97s.13.68.39.97c.26.28.59.43,1.01.43s.75-.14,1.01-.43c.26-.28.39-.61.39-.97s-.13-.68-.39-.97M184.6,162.29h-2.35l-2.58,3.71h1.52l3.4-3.71ZM187.18,174.97v-.77c0-.82-.13-1.6-.39-2.33-.26-.73-.63-1.37-1.12-1.91-.49-.54-1.1-.97-1.82-1.3s-1.54-.49-2.45-.49c-.86,0-1.66.16-2.4.48-.74.32-1.38.76-1.93,1.33-.55.57-.98,1.24-1.29,2.01-.31.77-.46,1.61-.46,2.53s.16,1.75.48,2.53c.32.77.75,1.44,1.3,2.01s1.21,1.01,1.97,1.33c.76.32,1.59.48,2.49.48,1,0,1.93-.2,2.8-.59.87-.4,1.66-1.05,2.38-1.96l-1.31-1.08c-.34.55-.85,1.04-1.51,1.46-.66.42-1.45.63-2.36.63-.6,0-1.16-.11-1.68-.34-.52-.22-.97-.53-1.37-.91-.4-.39-.71-.85-.95-1.38s-.39-1.1-.44-1.7h10.05ZM177.18,173.58c0-.5.12-.98.35-1.44s.54-.88.93-1.24c.39-.36.84-.65,1.35-.86.52-.21,1.05-.32,1.6-.32,1.24,0,2.2.36,2.89,1.07.69.71,1.03,1.64,1.03,2.8h-8.14ZM173.62,168.48h-3.48v-3.4h-1.7v3.4h-2.55v1.55h2.55v7.6c0,.67.09,1.21.28,1.62.19.41.43.74.72.98s.61.4.97.49c.35.09.69.13,1.02.13.89,0,1.66-.15,2.29-.44l-.08-1.57c-.26.14-.54.25-.85.34-.31.09-.61.13-.9.13-.26,0-.49-.03-.71-.09-.21-.06-.4-.17-.55-.32-.15-.15-.27-.37-.36-.66-.09-.28-.13-.65-.13-1.1v-7.11h3.48v-1.55ZM163.29,168.48h-1.7v12.06h1.7v-12.06ZM163.29,162.95c-.26-.23-.54-.35-.85-.35s-.59.12-.85.35c-.26.23-.39.53-.39.89s.13.66.39.89c.26.23.54.35.85.35s.59-.12.85-.35c.26-.23.39-.53.39-.89s-.13-.66-.39-.89M157.1,161.05h-1.7v19.48h1.7v-19.48ZM148.52,173.14c-.72,0-1.52.03-2.38.1-.87.07-1.69.24-2.45.52-.77.27-1.4.69-1.91,1.25-.51.56-.76,1.33-.76,2.31,0,.58.12,1.1.35,1.53.23.44.54.81.93,1.11.39.3.83.52,1.32.67.5.15,1.01.22,1.55.22.98,0,1.81-.18,2.49-.53.68-.35,1.26-.93,1.77-1.74h.05c0,.33.01.66.04,1,.03.34.06.66.12.95h1.65c-.05-.33-.1-.74-.14-1.25-.05-.51-.06-.99-.06-1.46v-5.39c0-.74-.12-1.37-.36-1.91-.24-.53-.56-.97-.95-1.33-.4-.35-.86-.61-1.4-.79-.54-.17-1.11-.26-1.69-.26-2.27,0-3.97.58-5.1,1.75l1.03,1.21c1.05-.94,2.27-1.42,3.69-1.42,2.06,0,3.09,1.04,3.09,3.12v.31h-.85ZM149.37,174.53v.88c0,.53-.08,1.04-.22,1.51-.15.47-.37.88-.68,1.24-.31.35-.69.63-1.15.84-.46.21-.99.31-1.61.31-.34,0-.68-.04-1.02-.12-.34-.08-.64-.21-.91-.39-.28-.18-.5-.41-.66-.7-.17-.28-.24-.62-.24-1.02,0-.6.21-1.07.63-1.42.42-.34.93-.6,1.52-.76.59-.16,1.21-.27,1.86-.31.64-.04,1.18-.06,1.61-.06h.88ZM127.19,168.48c.03.45.06.92.09,1.42s.04.91.04,1.24v9.41h1.7v-6.18c0-1.1.17-1.96.52-2.58.34-.62.73-1.08,1.17-1.39.44-.31.85-.5,1.25-.57.39-.07.63-.1.72-.1,1.25,0,2.11.36,2.58,1.07.46.71.7,1.74.7,3.08v6.67h1.7v-7.65c0-1.51-.37-2.68-1.11-3.49-.74-.82-1.88-1.22-3.43-1.22-.4,0-.8.06-1.2.17-.41.11-.79.27-1.15.46-.36.2-.69.43-.98.71-.29.27-.53.58-.72.9h-.05c0-.33,0-.65-.01-.97-.01-.32-.03-.64-.06-.97h-1.75ZM123.75,171.98c-.32-.77-.76-1.44-1.33-2.01s-1.24-1.01-2.02-1.33c-.78-.32-1.64-.48-2.59-.48s-1.78.16-2.56.48c-.78.32-1.46.76-2.02,1.33s-1.01,1.24-1.33,2.01c-.32.77-.48,1.61-.48,2.53s.16,1.75.48,2.53c.32.77.76,1.44,1.33,2.01s1.24,1.01,2.02,1.33c.78.32,1.64.48,2.56.48s1.81-.16,2.59-.48c.78-.32,1.46-.76,2.02-1.33s1.01-1.24,1.33-2.01c.32-.77.48-1.61.48-2.53s-.16-1.75-.48-2.53M122.04,176.39c-.21.58-.52,1.09-.91,1.52-.4.43-.87.77-1.43,1.02-.56.25-1.19.37-1.89.37s-1.34-.12-1.89-.37c-.56-.25-1.03-.59-1.42-1.02-.39-.43-.69-.94-.9-1.52s-.32-1.21-.32-1.88.11-1.3.32-1.88.52-1.09.9-1.52c.39-.43.86-.77,1.42-1.02s1.19-.37,1.89-.37,1.34.12,1.89.37,1.04.59,1.43,1.02c.4.43.7.94.91,1.52.21.58.32,1.21.32,1.88s-.11,1.3-.32,1.88M107.94,168.48h-1.7v12.06h1.7v-12.06ZM107.94,162.95c-.26-.23-.54-.35-.85-.35s-.59.12-.85.35c-.26.23-.39.53-.39.89s.13.66.39.89c.26.23.54.35.85.35s.59-.12.85-.35c.26-.23.39-.53.39-.89s-.13-.66-.39-.89M103.53,168.48h-3.48v-3.4h-1.7v3.4h-2.55v1.55h2.55v7.6c0,.67.09,1.21.28,1.62.19.41.43.74.72.98s.61.4.97.49.69.13,1.02.13c.89,0,1.66-.15,2.29-.44l-.08-1.57c-.26.14-.54.25-.85.34-.31.09-.61.13-.9.13-.26,0-.49-.03-.71-.09-.21-.06-.4-.17-.55-.32-.15-.15-.27-.37-.36-.66-.09-.28-.13-.65-.13-1.1v-7.11h3.48v-1.55ZM90.8,173.14c-.72,0-1.52.03-2.38.1-.87.07-1.68.24-2.45.52-.76.27-1.4.69-1.91,1.25-.51.56-.76,1.33-.76,2.31,0,.58.12,1.1.35,1.53.23.44.54.81.93,1.11.39.3.83.52,1.33.67.5.15,1.01.22,1.55.22.98,0,1.81-.18,2.49-.53s1.27-.93,1.77-1.74h.05c0,.33.01.66.04,1,.03.34.06.66.12.95h1.65c-.05-.33-.1-.74-.14-1.25-.04-.51-.06-.99-.06-1.46v-5.39c0-.74-.12-1.37-.36-1.91-.24-.53-.56-.97-.95-1.33-.4-.35-.86-.61-1.4-.79-.54-.17-1.1-.26-1.69-.26-2.27,0-3.97.58-5.1,1.75l1.03,1.21c1.05-.94,2.28-1.42,3.69-1.42,2.06,0,3.09,1.04,3.09,3.12v.31h-.85ZM91.65,174.53v.88c0,.53-.07,1.04-.22,1.51s-.37.88-.68,1.24c-.31.35-.69.63-1.15.84-.46.21-.99.31-1.61.31-.34,0-.68-.04-1.02-.12-.34-.08-.64-.21-.91-.39-.27-.18-.49-.41-.66-.7-.16-.28-.24-.62-.24-1.02,0-.6.21-1.07.63-1.42.42-.34.93-.6,1.52-.76.59-.16,1.21-.27,1.86-.31s1.18-.06,1.61-.06h.88ZM66.81,162.29h-2.32v18.24h1.86v-15.62h.05l10.87,15.62h2.32v-18.24h-1.86v15.46h-.05l-10.87-15.46Z" style="fill: #231f20;"/>
  <path d="M121.52,129.26c-.26-.28-.59-.43-1.01-.43s-.75.14-1.01.43c-.26.28-.39.61-.39.97s.13.68.39.97c.26.28.59.43,1.01.43s.75-.14,1.01-.43c.26-.28.39-.61.39-.97s-.13-.68-.39-.97M121.52,138.82c-.26-.28-.59-.43-1.01-.43s-.75.14-1.01.43c-.26.28-.39.61-.39.97s.13.68.39.97c.26.28.59.43,1.01.43s.75-.14,1.01-.43c.26-.28.39-.61.39-.97s-.13-.68-.39-.97M108.53,135.46v-.77c0-.82-.13-1.6-.39-2.33-.26-.73-.63-1.37-1.12-1.91-.49-.54-1.1-.97-1.82-1.3-.72-.33-1.54-.49-2.45-.49-.86,0-1.66.16-2.4.48s-1.38.76-1.93,1.33c-.55.57-.98,1.24-1.29,2.01-.31.77-.46,1.61-.46,2.53s.16,1.75.48,2.53c.32.77.75,1.44,1.3,2.01.55.57,1.21,1.01,1.97,1.33.76.32,1.59.48,2.49.48,1,0,1.93-.2,2.8-.59s1.66-1.05,2.38-1.96l-1.31-1.08c-.34.55-.85,1.04-1.51,1.46-.66.42-1.45.63-2.36.63-.6,0-1.16-.11-1.68-.34s-.97-.53-1.37-.91c-.4-.39-.71-.85-.95-1.38-.24-.53-.39-1.1-.44-1.7h10.05ZM98.53,134.07c0-.5.12-.98.35-1.44s.54-.88.93-1.24c.39-.36.84-.65,1.35-.86.52-.21,1.05-.32,1.6-.32,1.24,0,2.2.36,2.89,1.07s1.03,1.64,1.03,2.8h-8.14ZM81.21,144.79c.77.82,1.63,1.43,2.58,1.83.94.4,2.02.59,3.22.59,1.36,0,2.46-.21,3.3-.62.84-.41,1.5-.93,1.97-1.55s.79-1.3.95-2.04c.16-.74.24-1.43.24-2.09v-11.96h-1.7v2.01h-.05c-.34-.46-.71-.85-1.11-1.15-.4-.3-.79-.54-1.2-.71-.4-.17-.81-.29-1.21-.36-.4-.07-.79-.1-1.15-.1-.89,0-1.71.16-2.46.48-.75.32-1.39.76-1.93,1.33-.54.57-.97,1.23-1.28,1.98-.31.76-.46,1.57-.46,2.45s.16,1.69.49,2.45c.33.76.77,1.4,1.34,1.95.57.54,1.23.97,2,1.28.76.31,1.58.46,2.46.46s1.71-.17,2.5-.52c.79-.34,1.46-.93,2.01-1.75h.05v2.16c0,.65-.08,1.27-.24,1.84-.16.58-.43,1.08-.8,1.51-.37.43-.85.77-1.46,1.02-.6.25-1.33.37-2.19.37-.98,0-1.87-.2-2.67-.61-.8-.4-1.45-.94-1.95-1.61l-1.26,1.34ZM83.13,133.05c.23-.56.55-1.05.95-1.47.4-.42.88-.76,1.42-1.01s1.13-.37,1.77-.37c.7,0,1.34.12,1.91.37s1.05.58,1.44,1.01c.4.42.7.91.9,1.47.21.56.31,1.16.31,1.79.02.7-.09,1.34-.32,1.91-.23.57-.56,1.05-.99,1.46-.43.4-.92.72-1.48.94-.56.22-1.15.33-1.77.33s-1.22-.12-1.77-.37-1.01-.58-1.42-1.01c-.4-.42-.72-.91-.95-1.47s-.35-1.16-.35-1.79.12-1.23.35-1.79M71.88,118.27h-2.06l-2.81,3.71h1.7l2.14-2.78,2.14,2.78h1.7l-2.81-3.71ZM66.19,136.23h9.33l2.01,4.79h2.16l-7.94-18.24h-1.8l-7.94,18.24h2.16l2.01-4.79ZM70.85,124.94l3.94,9.59h-7.91l3.97-9.59Z" style="fill: #231f20;"/>
  <path d="M162.54,89.75c-.26-.28-.59-.43-1.01-.43s-.75.14-1.01.43c-.26.28-.39.61-.39.97s.13.68.39.97c.26.28.59.43,1.01.43s.75-.14,1.01-.43c.26-.28.39-.61.39-.97s-.13-.68-.39-.97M162.54,99.31c-.26-.28-.59-.43-1.01-.43s-.75.14-1.01.43c-.26.28-.39.61-.39.97s.13.68.39.97c.26.28.59.43,1.01.43s.75-.14,1.01-.43c.26-.28.39-.61.39-.97s-.13-.68-.39-.97M130.69,101.51h1.7v-6.18c0-1.1.16-1.96.48-2.58s.67-1.08,1.07-1.39.78-.5,1.15-.57c.37-.07.61-.1.71-.1,1.17,0,1.97.33,2.4.98.43.65.64,1.59.64,2.81v7.04h1.7v-6.42c0-.57.06-1.11.18-1.64.12-.52.31-.99.58-1.4.27-.41.61-.74,1.04-.99.43-.25.96-.37,1.6-.37,1.17,0,1.97.33,2.4.98.43.65.64,1.59.64,2.81v7.04h1.7v-7.65c0-1.51-.37-2.68-1.11-3.49s-1.88-1.22-3.43-1.22c-.81,0-1.58.22-2.33.67s-1.29,1.06-1.64,1.83c-.21-.52-.46-.94-.76-1.26s-.62-.58-.97-.76c-.34-.18-.7-.3-1.07-.37-.37-.07-.72-.1-1.04-.1-.72,0-1.45.18-2.18.54-.73.36-1.3.89-1.71,1.6h-.05v-1.83h-1.83c.03.45.06.89.09,1.34.03.45.04.89.04,1.34v9.38ZM127.12,92.95c-.32-.77-.76-1.44-1.33-2.01-.57-.57-1.24-1.01-2.02-1.33s-1.64-.48-2.59-.48-1.78.16-2.56.48-1.46.76-2.02,1.33c-.57.57-1.01,1.24-1.33,2.01-.32.77-.48,1.61-.48,2.53s.16,1.75.48,2.53c.32.77.76,1.44,1.33,2.01.57.57,1.24,1.01,2.02,1.33.78.32,1.64.48,2.56.48s1.81-.16,2.59-.48c.78-.32,1.46-.76,2.02-1.33.57-.57,1.01-1.24,1.33-2.01.32-.77.48-1.61.48-2.53s-.16-1.75-.48-2.53M125.42,97.36c-.21.58-.52,1.09-.91,1.52-.4.43-.87.77-1.43,1.02-.56.25-1.19.37-1.89.37s-1.34-.12-1.89-.37c-.56-.25-1.03-.59-1.42-1.02-.39-.43-.69-.94-.9-1.52s-.32-1.21-.32-1.88.11-1.3.32-1.88.52-1.09.9-1.52c.39-.43.86-.77,1.42-1.02.56-.25,1.19-.37,1.89-.37s1.34.12,1.89.37c.56.25,1.04.59,1.43,1.02.4.43.7.94.91,1.52.21.58.32,1.21.32,1.88s-.11,1.3-.32,1.88M100.95,89.45c.03.45.06.92.09,1.42s.04.91.04,1.24v9.41h1.7v-6.18c0-1.1.17-1.96.52-2.58.34-.62.73-1.08,1.17-1.39s.85-.5,1.25-.57c.4-.07.64-.1.72-.1,1.25,0,2.11.36,2.58,1.07.46.71.7,1.74.7,3.08v6.67h1.7v-7.65c0-1.51-.37-2.68-1.11-3.49-.74-.82-1.88-1.22-3.43-1.22-.4,0-.79.06-1.2.17-.4.11-.79.27-1.15.46-.36.2-.69.43-.98.71-.29.27-.53.58-.72.9h-.05c0-.33,0-.65-.01-.97,0-.32-.03-.64-.06-.97h-1.75ZM95.41,83.26h-2.35l-2.58,3.71h1.52l3.4-3.71ZM97.99,95.94v-.77c0-.82-.13-1.6-.39-2.33-.26-.73-.63-1.37-1.12-1.91s-1.1-.97-1.82-1.3c-.72-.33-1.54-.49-2.45-.49-.86,0-1.66.16-2.4.48-.74.32-1.38.76-1.93,1.33-.55.57-.98,1.24-1.29,2.01-.31.77-.46,1.61-.46,2.53s.16,1.75.48,2.53c.32.77.75,1.44,1.3,2.01.55.57,1.21,1.01,1.97,1.33.76.32,1.59.48,2.49.48,1,0,1.93-.2,2.8-.59.87-.4,1.66-1.05,2.38-1.96l-1.31-1.08c-.34.55-.85,1.04-1.51,1.46s-1.45.63-2.36.63c-.6,0-1.16-.11-1.68-.34s-.97-.53-1.37-.91-.71-.85-.95-1.38c-.24-.53-.39-1.1-.44-1.7h10.05ZM87.99,94.55c0-.5.12-.98.35-1.44s.54-.88.93-1.24.84-.65,1.35-.86c.52-.21,1.05-.32,1.6-.32,1.24,0,2.2.36,2.89,1.07s1.03,1.64,1.03,2.8h-8.14ZM78.84,101.51h1.7v-6.8c0-.41.07-.84.22-1.29.15-.45.37-.86.68-1.25.31-.39.7-.7,1.16-.95.46-.25,1.02-.37,1.68-.37.43,0,.76.04.98.13l.34-1.68c-.36-.1-.78-.15-1.26-.15-.53,0-1.01.07-1.43.22s-.79.34-1.11.58c-.32.24-.59.51-.81.81-.22.3-.4.61-.52.94h-.05v-2.24h-1.68c.02.88.04,1.59.06,2.14s.04,1.09.04,1.62v8.3ZM64.49,101.51h1.86v-8.48h3.45c1.86,0,3.32-.41,4.39-1.22,1.07-.82,1.61-2.04,1.61-3.67s-.54-2.85-1.61-3.66c-1.07-.81-2.54-1.21-4.39-1.21h-5.31v18.24ZM66.34,84.97h2.99c.82,0,1.52.08,2.1.24s1.04.39,1.38.68c.34.29.59.63.75,1.02.15.39.23.79.23,1.22s-.08.86-.23,1.25c-.15.39-.4.72-.75,1-.34.28-.8.51-1.38.68-.58.17-1.28.26-2.1.26h-2.99v-6.37Z" style="fill: #231f20;"/>
  <path d="M131.05,50.23c-.26-.28-.59-.43-1.01-.43s-.75.14-1.01.43c-.26.28-.39.61-.39.97s.13.68.39.97c.26.28.59.43,1.01.43s.75-.14,1.01-.43c.26-.28.39-.61.39-.97s-.13-.68-.39-.97M131.05,59.79c-.26-.28-.59-.43-1.01-.43s-.75.14-1.01.43c-.26.28-.39.61-.39.97s.13.68.39.97c.26.28.59.43,1.01.43s.75-.14,1.01-.43c.26-.28.39-.61.39-.97s-.13-.68-.39-.97M99.2,62h1.7v-6.18c0-1.1.16-1.96.48-2.58.32-.62.67-1.08,1.07-1.39.4-.31.78-.5,1.15-.57.37-.07.61-.1.71-.1,1.17,0,1.97.33,2.4.98.43.65.64,1.59.64,2.81v7.04h1.7v-6.42c0-.57.06-1.11.18-1.64.12-.52.31-.99.58-1.4.27-.41.61-.74,1.04-.99.43-.25.96-.37,1.6-.37,1.17,0,1.97.33,2.4.98.43.65.64,1.59.64,2.81v7.04h1.7v-7.65c0-1.51-.37-2.68-1.11-3.49-.74-.82-1.88-1.22-3.43-1.22-.81,0-1.58.22-2.33.67-.75.45-1.29,1.06-1.64,1.83-.21-.52-.46-.94-.76-1.26s-.62-.58-.97-.76c-.34-.18-.7-.3-1.07-.37-.37-.07-.72-.1-1.04-.1-.72,0-1.45.18-2.18.54-.73.36-1.3.89-1.71,1.6h-.05v-1.83h-1.83c.03.45.06.89.09,1.34.03.45.04.89.04,1.34v9.38ZM95.63,53.44c-.32-.77-.76-1.44-1.33-2.01s-1.24-1.01-2.02-1.33c-.78-.32-1.64-.48-2.59-.48s-1.78.16-2.56.48c-.78.32-1.46.76-2.02,1.33s-1.01,1.24-1.33,2.01c-.32.77-.48,1.61-.48,2.53s.16,1.75.48,2.53c.32.77.76,1.44,1.33,2.01s1.24,1.01,2.02,1.33c.78.32,1.64.48,2.56.48s1.81-.16,2.59-.48c.78-.32,1.46-.76,2.02-1.33s1.01-1.24,1.33-2.01c.32-.77.48-1.61.48-2.53s-.16-1.75-.48-2.53M93.93,57.85c-.21.58-.52,1.09-.91,1.52-.4.43-.87.77-1.43,1.02-.56.25-1.19.37-1.89.37s-1.34-.12-1.89-.37c-.56-.25-1.03-.59-1.42-1.02-.39-.43-.69-.94-.9-1.52-.21-.58-.32-1.21-.32-1.88s.11-1.3.32-1.88c.21-.58.52-1.09.9-1.52.39-.43.86-.77,1.42-1.02.56-.25,1.19-.37,1.89-.37s1.34.12,1.89.37c.56.25,1.04.59,1.43,1.02.4.43.7.94.91,1.52s.32,1.21.32,1.88-.11,1.3-.32,1.88M66.81,43.75h-2.32v18.24h1.86v-15.62h.05l10.87,15.62h2.32v-18.24h-1.86v15.46h-.05l-10.87-15.46Z" style="fill: #231f20;"/>
</svg>